<?xml version="1.0" encoding="UTF-8" standalone="no"?><!DOCTYPE svg PUBLIC "-//W3C//DTD SVG 1.1//EN" "http://www.w3.org/Graphics/SVG/1.1/DTD/svg11.dtd"><svg width="100%" height="100%" viewBox="0 0 2084 2084" version="1.1" xmlns="http://www.w3.org/2000/svg" xmlns:xlink="http://www.w3.org/1999/xlink" xml:space="preserve" xmlns:serif="http://www.serif.com/" style="fill-rule:evenodd;clip-rule:evenodd;stroke-linejoin:round;stroke-miterlimit:1.41421;"><g id="Layer2"><g><g><g><path d="M1312.77,555.45l0.719,0.007l0.718,0.011l0.716,0.016l0.716,0.021l0.714,0.025l0.714,0.029l0.712,0.034l0.711,0.038l0.71,0.043l0.708,0.047l0.708,0.052l0.706,0.056l0.705,0.06l0.704,0.065l0.702,0.069l0.701,0.074l0.7,0.078l0.699,0.082l0.697,0.086l0.696,0.091l0.694,0.095l0.694,0.1l0.691,0.103l0.691,0.108l0.689,0.112l0.688,0.117l0.686,0.12l0.684,0.125l0.684,0.129l0.682,0.133l0.68,0.137l0.679,0.141l0.677,0.145l0.676,0.15l0.674,0.153l0.673,0.158l0.671,0.162l0.67,0.166l0.668,0.169l0.666,0.174l0.665,0.178l0.663,0.182l0.661,0.186l0.66,0.19l0.658,0.193l0.657,0.198l0.654,0.202l0.653,0.205l0.652,0.21l0.649,0.213l0.648,0.217l0.646,0.221l0.644,0.225l0.643,0.229l0.64,0.232l0.639,0.236l0.637,0.24l0.635,0.244l0.633,0.248l0.632,0.251l0.629,0.255l0.628,0.259l0.625,0.263l0.624,0.266l0.622,0.27l0.619,0.274l0.618,0.277l0.616,0.281l0.614,0.284l0.611,0.288l0.61,0.292l0.608,0.295l0.605,0.299l0.604,0.302l0.601,0.306l0.6,0.31l0.597,0.313l0.595,0.316l0.593,0.32l0.591,0.324l0.589,0.327l0.586,0.33l0.584,0.334l0.582,0.337l0.58,0.341l0.578,0.344l0.575,0.347l0.573,0.351l0.571,0.354l0.569,0.357l0.566,0.361l0.564,0.364l0.561,0.367l0.559,0.371l0.557,0.374l0.555,0.377l0.552,0.38l0.549,0.384l0.548,0.387l0.544,0.39l0.543,0.393l0.54,0.396l0.537,0.4l0.535,0.403l0.533,0.405l0.529,0.409l0.528,0.412l0.525,0.415l0.522,0.419l0.52,0.421l0.517,0.424l0.515,0.428l0.512,0.43l0.509,0.433l0.507,0.437l0.504,0.439l0.501,0.442l0.499,0.445l0.496,0.449l0.493,0.451l0.491,0.454l0.488,0.457l0.485,0.46l0.482,0.462l0.48,0.466l0.477,0.468l0.474,0.471l0.471,0.474l0.468,0.477l0.466,0.48l0.462,0.482l0.46,0.485l0.457,0.488l0.454,0.491l0.451,0.493l0.448,0.496l0.446,0.499l0.442,0.501l0.439,0.504l0.437,0.507l0.433,0.509l0.43,0.512l0.428,0.515l0.424,0.517l0.421,0.52l0.418,0.522l0.415,0.525l0.412,0.527l0.409,0.53l0.406,0.533l0.403,0.535l0.399,0.537l0.397,0.54l0.393,0.542l0.39,0.545l0.387,0.548l0.383,0.549l0.381,0.552l0.377,0.555l0.374,0.557l0.37,0.559l0.368,0.561l0.364,0.564l0.361,0.566l0.357,0.569l0.354,0.571l0.351,0.573l0.347,0.575l0.344,0.578l0.341,0.579l0.337,0.583l0.334,0.584l0.33,0.586l0.327,0.589l0.323,0.591l0.32,0.593l0.317,0.595l0.313,0.597l0.309,0.599l0.306,0.602l0.303,0.603l0.299,0.606l0.295,0.608l0.292,0.609l0.288,0.612l0.284,0.614l0.281,0.616l0.277,0.618l0.274,0.619l0.27,0.622l0.266,0.624l0.263,0.625l0.258,0.628l0.255,0.629l0.252,0.632l0.247,0.633l0.244,0.635l0.24,0.637l0.237,0.639l0.232,0.64l0.229,0.643l0.225,0.644l0.221,0.646l0.217,0.648l0.213,0.649l0.21,0.651l0.205,0.653l0.202,0.655l0.198,0.657l0.193,0.658l0.19,0.66l0.186,0.661l0.182,0.663l0.178,0.665l0.173,0.666l0.17,0.668l0.166,0.67l0.162,0.671l0.157,0.673l0.154,0.674l0.149,0.676l0.146,0.677l0.141,0.679l0.137,0.68l0.133,0.682l0.129,0.683l0.125,0.685l0.12,0.686l0.117,0.688l0.112,0.689l0.107,0.69l0.104,0.692l0.099,0.693l0.096,0.695l0.09,0.696l0.087,0.697l0.082,0.699l0.078,0.7l0.073,0.701l0.07,0.702l0.064,0.704l0.061,0.705l0.056,0.706l0.052,0.707l0.047,0.709l0.043,0.71l0.038,0.711l0.034,0.712l0.029,0.713l0.025,0.715l0.021,0.715l0.016,0.717l0.011,0.718l0.007,0.719l0.002,0.72l0,519.862l-0.002,0.72l-0.007,0.719l-0.011,0.718l-0.016,0.717l-0.021,0.715l-0.025,0.715l-0.029,0.713l-0.034,0.712l-0.038,0.711l-0.043,0.71l-0.047,0.709l-0.052,0.707l-0.056,0.706l-0.061,0.705l-0.064,0.704l-0.07,0.702l-0.073,0.702l-0.078,0.699l-0.082,0.699l-0.087,0.697l-0.09,0.696l-0.096,0.695l-0.099,0.693l-0.104,0.692l-0.107,0.69l-0.112,0.689l-0.117,0.688l-0.12,0.686l-0.125,0.685l-0.129,0.683l-0.133,0.682l-0.137,0.68l-0.141,0.679l-0.146,0.677l-0.149,0.676l-0.154,0.675l-0.157,0.672l-0.162,0.671l-0.166,0.67l-0.17,0.668l-0.173,0.666l-0.178,0.665l-0.182,0.663l-0.186,0.662l-0.19,0.659l-0.193,0.659l-0.198,0.656l-0.202,0.655l-0.205,0.653l-0.21,0.651l-0.213,0.65l-0.217,0.647l-0.221,0.646l-0.225,0.645l-0.229,0.642l-0.232,0.641l-0.237,0.638l-0.24,0.637l-0.244,0.635l-0.247,0.634l-0.252,0.631l-0.255,0.629l-0.258,0.628l-0.263,0.626l-0.266,0.623l-0.27,0.622l-0.274,0.62l-0.277,0.617l-0.281,0.616l-0.284,0.614l-0.288,0.612l-0.292,0.61l-0.295,0.607l-0.299,0.606l-0.303,0.603l-0.306,0.602l-0.309,0.599l-0.313,0.597l-0.317,0.596l-0.32,0.593l-0.323,0.59l-0.327,0.589l-0.33,0.586l-0.334,0.585l-0.337,0.582l-0.341,0.58l-0.344,0.577l-0.347,0.576l-0.351,0.573l-0.354,0.57l-0.357,0.569l-0.361,0.566l-0.364,0.564l-0.368,0.562l-0.37,0.559l-0.374,0.557l-0.377,0.554l-0.381,0.552l-0.383,0.55l-0.387,0.547l-0.39,0.545l-0.393,0.542l-0.397,0.54l-0.399,0.537l-0.403,0.535l-0.406,0.533l-0.409,0.53l-0.412,0.527l-0.415,0.525l-0.418,0.522l-0.421,0.52l-0.424,0.517l-0.428,0.515l-0.43,0.512l-0.433,0.509l-0.437,0.507l-0.439,0.504l-0.442,0.501l-0.446,0.499l-0.448,0.496l-0.451,0.494l-0.454,0.49l-0.457,0.488l-0.46,0.485l-0.462,0.483l-0.466,0.479l-0.468,0.477l-0.471,0.474l-0.474,0.471l-0.477,0.469l-0.48,0.465l-0.482,0.463l-0.485,0.46l-0.488,0.456l-0.491,0.454l-0.493,0.452l-0.496,0.448l-0.499,0.445l-0.501,0.442l-0.504,0.44l-0.507,0.436l-0.509,0.433l-0.512,0.431l-0.515,0.427l-0.517,0.424l-0.52,0.422l-0.522,0.418l-0.525,0.415l-0.528,0.412l-0.529,0.409l-0.533,0.406l-0.535,0.402l-0.537,0.4l-0.54,0.396l-0.543,0.393l-0.544,0.39l-0.548,0.387l-0.549,0.384l-0.552,0.38l-0.555,0.377l-0.557,0.374l-0.559,0.371l-0.561,0.367l-0.564,0.364l-0.566,0.361l-0.569,0.357l-0.571,0.355l-0.573,0.35l-0.575,0.348l-0.578,0.344l-0.58,0.34l-0.582,0.337l-0.584,0.334l-0.586,0.331l-0.589,0.326l-0.591,0.324l-0.593,0.32l-0.595,0.316l-0.597,0.313l-0.6,0.31l-0.601,0.306l-0.604,0.302l-0.605,0.299l-0.608,0.295l-0.61,0.292l-0.611,0.288l-0.614,0.285l-0.616,0.28l-0.618,0.278l-0.619,0.273l-0.622,0.27l-0.624,0.266l-0.625,0.263l-0.628,0.259l-0.629,0.255l-0.632,0.251l-0.633,0.248l-0.635,0.244l-0.637,0.24l-0.639,0.236l-0.64,0.233l-0.643,0.228l-0.644,0.225l-0.646,0.221l-0.648,0.217l-0.649,0.214l-0.652,0.209l-0.653,0.206l-0.654,0.201l-0.657,0.198l-0.658,0.194l-0.66,0.189l-0.661,0.186l-0.663,0.182l-0.665,0.178l-0.666,0.174l-0.668,0.17l-0.67,0.165l-0.671,0.162l-0.673,0.158l-0.674,0.153l-0.676,0.15l-0.677,0.145l-0.679,0.142l-0.68,0.137l-0.682,0.133l-0.684,0.129l-0.684,0.124l-0.686,0.121l-0.688,0.116l-0.689,0.112l-0.691,0.108l-0.691,0.103l-0.694,0.1l-0.694,0.095l-0.696,0.091l-0.697,0.086l-0.699,0.082l-0.7,0.078l-0.701,0.074l-0.702,0.069l-0.704,0.065l-0.705,0.06l-0.706,0.056l-0.708,0.052l-0.708,0.047l-0.71,0.043l-0.711,0.038l-0.712,0.034l-0.714,0.03l-0.714,0.025l-0.716,0.02l-0.716,0.016l-0.718,0.011l-0.719,0.007l-0.72,0.002l-942.447,0l-0.72,-0.002l-0.719,-0.007l-0.718,-0.011l-0.716,-0.016l-0.716,-0.02l-0.714,-0.025l-0.714,-0.03l-0.712,-0.034l-0.711,-0.038l-0.71,-0.043l-0.708,-0.047l-0.708,-0.052l-0.706,-0.056l-0.705,-0.06l-0.704,-0.065l-0.702,-0.069l-0.701,-0.074l-0.7,-0.078l-0.699,-0.082l-0.697,-0.086l-0.696,-0.091l-0.694,-0.095l-0.694,-0.1l-0.691,-0.103l-0.691,-0.108l-0.689,-0.112l-0.687,-0.116l-0.687,-0.121l-0.684,-0.124l-0.684,-0.129l-0.682,-0.133l-0.68,-0.137l-0.679,-0.142l-0.677,-0.145l-0.676,-0.15l-0.674,-0.153l-0.673,-0.158l-0.671,-0.162l-0.67,-0.165l-0.668,-0.17l-0.666,-0.174l-0.665,-0.178l-0.663,-0.182l-0.661,-0.186l-0.66,-0.189l-0.658,-0.194l-0.657,-0.198l-0.654,-0.201l-0.653,-0.206l-0.652,-0.209l-0.649,-0.214l-0.648,-0.217l-0.646,-0.221l-0.644,-0.225l-0.643,-0.228l-0.64,-0.233l-0.639,-0.236l-0.637,-0.24l-0.635,-0.244l-0.633,-0.248l-0.631,-0.251l-0.63,-0.255l-0.627,-0.259l-0.626,-0.263l-0.624,-0.266l-0.621,-0.27l-0.62,-0.273l-0.618,-0.278l-0.616,-0.28l-0.614,-0.285l-0.611,-0.288l-0.61,-0.292l-0.608,-0.295l-0.605,-0.299l-0.604,-0.302l-0.601,-0.306l-0.6,-0.31l-0.597,-0.313l-0.595,-0.316l-0.593,-0.32l-0.591,-0.324l-0.589,-0.326l-0.586,-0.331l-0.584,-0.334l-0.582,-0.337l-0.58,-0.34l-0.578,-0.344l-0.575,-0.348l-0.573,-0.35l-0.571,-0.355l-0.568,-0.357l-0.567,-0.361l-0.564,-0.364l-0.561,-0.367l-0.559,-0.371l-0.557,-0.374l-0.555,-0.377l-0.552,-0.38l-0.549,-0.384l-0.548,-0.387l-0.544,-0.39l-0.543,-0.393l-0.54,-0.396l-0.537,-0.4l-0.535,-0.402l-0.532,-0.406l-0.53,-0.409l-0.528,-0.412l-0.525,-0.415l-0.522,-0.418l-0.52,-0.422l-0.517,-0.424l-0.515,-0.427l-0.512,-0.431l-0.509,-0.433l-0.507,-0.436l-0.504,-0.44l-0.501,-0.442l-0.499,-0.445l-0.496,-0.448l-0.493,-0.452l-0.491,-0.454l-0.488,-0.456l-0.485,-0.46l-0.482,-0.463l-0.48,-0.465l-0.476,-0.469l-0.475,-0.471l-0.471,-0.474l-0.468,-0.477l-0.466,-0.479l-0.462,-0.483l-0.46,-0.485l-0.457,-0.488l-0.454,-0.49l-0.451,-0.494l-0.448,-0.496l-0.446,-0.499l-0.442,-0.501l-0.439,-0.504l-0.437,-0.507l-0.433,-0.509l-0.43,-0.512l-0.428,-0.515l-0.424,-0.517l-0.421,-0.52l-0.418,-0.522l-0.415,-0.525l-0.412,-0.527l-0.409,-0.53l-0.406,-0.533l-0.403,-0.535l-0.399,-0.537l-0.397,-0.54l-0.393,-0.542l-0.39,-0.545l-0.387,-0.547l-0.383,-0.55l-0.381,-0.552l-0.377,-0.554l-0.374,-0.557l-0.37,-0.559l-0.368,-0.562l-0.364,-0.564l-0.361,-0.566l-0.357,-0.569l-0.354,-0.57l-0.351,-0.573l-0.347,-0.576l-0.344,-0.577l-0.341,-0.58l-0.337,-0.582l-0.334,-0.585l-0.33,-0.586l-0.327,-0.589l-0.323,-0.59l-0.32,-0.593l-0.317,-0.596l-0.313,-0.597l-0.309,-0.599l-0.306,-0.602l-0.303,-0.603l-0.299,-0.606l-0.295,-0.607l-0.291,-0.61l-0.289,-0.612l-0.284,-0.614l-0.281,-0.616l-0.277,-0.617l-0.274,-0.62l-0.27,-0.622l-0.266,-0.623l-0.262,-0.626l-0.259,-0.628l-0.255,-0.629l-0.252,-0.631l-0.247,-0.634l-0.244,-0.635l-0.24,-0.637l-0.237,-0.638l-0.232,-0.641l-0.229,-0.642l-0.225,-0.645l-0.221,-0.646l-0.217,-0.647l-0.213,-0.65l-0.21,-0.651l-0.205,-0.653l-0.202,-0.655l-0.197,-0.656l-0.194,-0.659l-0.19,-0.659l-0.186,-0.662l-0.182,-0.663l-0.177,-0.665l-0.174,-0.666l-0.17,-0.668l-0.166,-0.67l-0.162,-0.671l-0.157,-0.672l-0.154,-0.675l-0.149,-0.676l-0.146,-0.677l-0.141,-0.679l-0.137,-0.68l-0.133,-0.682l-0.129,-0.683l-0.125,-0.685l-0.12,-0.686l-0.117,-0.688l-0.112,-0.689l-0.107,-0.69l-0.104,-0.692l-0.099,-0.693l-0.095,-0.695l-0.091,-0.696l-0.087,-0.697l-0.082,-0.699l-0.078,-0.699l-0.073,-0.702l-0.07,-0.702l-0.064,-0.704l-0.061,-0.705l-0.056,-0.706l-0.052,-0.707l-0.047,-0.709l-0.043,-0.71l-0.038,-0.711l-0.034,-0.712l-0.029,-0.713l-0.025,-0.715l-0.021,-0.715l-0.015,-0.717l-0.012,-0.718l-0.007,-0.719l-0.002,-0.72l0,-519.862l0.002,-0.72l0.007,-0.719l0.012,-0.718l0.015,-0.717l0.021,-0.715l0.025,-0.715l0.029,-0.713l0.034,-0.712l0.038,-0.711l0.043,-0.71l0.047,-0.709l0.052,-0.707l0.056,-0.706l0.061,-0.705l0.064,-0.704l0.07,-0.702l0.073,-0.701l0.078,-0.7l0.082,-0.699l0.087,-0.697l0.091,-0.696l0.095,-0.695l0.099,-0.693l0.104,-0.692l0.107,-0.69l0.112,-0.689l0.117,-0.688l0.12,-0.686l0.125,-0.685l0.129,-0.683l0.133,-0.682l0.137,-0.68l0.141,-0.679l0.146,-0.677l0.149,-0.676l0.154,-0.674l0.157,-0.673l0.162,-0.671l0.166,-0.67l0.17,-0.668l0.174,-0.666l0.177,-0.665l0.182,-0.663l0.186,-0.661l0.19,-0.66l0.194,-0.658l0.197,-0.657l0.202,-0.655l0.205,-0.653l0.21,-0.651l0.213,-0.649l0.217,-0.648l0.221,-0.646l0.225,-0.644l0.229,-0.643l0.232,-0.64l0.237,-0.639l0.24,-0.637l0.244,-0.635l0.247,-0.633l0.252,-0.632l0.255,-0.629l0.259,-0.628l0.262,-0.625l0.266,-0.624l0.27,-0.622l0.274,-0.619l0.277,-0.618l0.281,-0.616l0.284,-0.614l0.289,-0.612l0.291,-0.609l0.295,-0.608l0.299,-0.606l0.303,-0.603l0.306,-0.602l0.309,-0.599l0.313,-0.597l0.317,-0.595l0.32,-0.593l0.323,-0.591l0.327,-0.589l0.33,-0.586l0.334,-0.584l0.337,-0.583l0.341,-0.579l0.344,-0.578l0.347,-0.575l0.351,-0.573l0.354,-0.571l0.357,-0.569l0.361,-0.566l0.364,-0.564l0.368,-0.561l0.37,-0.559l0.374,-0.557l0.377,-0.555l0.381,-0.552l0.383,-0.549l0.387,-0.548l0.39,-0.545l0.393,-0.542l0.397,-0.54l0.399,-0.537l0.403,-0.535l0.406,-0.533l0.409,-0.53l0.412,-0.527l0.415,-0.525l0.418,-0.522l0.421,-0.52l0.424,-0.517l0.428,-0.515l0.43,-0.512l0.433,-0.509l0.437,-0.507l0.439,-0.504l0.442,-0.501l0.446,-0.499l0.448,-0.496l0.451,-0.493l0.454,-0.491l0.457,-0.488l0.46,-0.485l0.462,-0.482l0.466,-0.48l0.468,-0.477l0.471,-0.474l0.475,-0.471l0.476,-0.468l0.48,-0.466l0.482,-0.462l0.485,-0.46l0.488,-0.457l0.491,-0.454l0.493,-0.451l0.496,-0.449l0.499,-0.445l0.501,-0.442l0.504,-0.439l0.507,-0.437l0.509,-0.433l0.512,-0.43l0.515,-0.428l0.517,-0.424l0.52,-0.421l0.522,-0.419l0.525,-0.415l0.528,-0.412l0.53,-0.409l0.532,-0.405l0.535,-0.403l0.537,-0.4l0.54,-0.396l0.543,-0.393l0.544,-0.39l0.548,-0.387l0.549,-0.384l0.552,-0.38l0.555,-0.377l0.557,-0.374l0.559,-0.371l0.561,-0.367l0.564,-0.364l0.567,-0.361l0.568,-0.357l0.571,-0.354l0.573,-0.351l0.575,-0.347l0.578,-0.344l0.58,-0.341l0.582,-0.337l0.584,-0.334l0.586,-0.33l0.589,-0.327l0.591,-0.324l0.593,-0.32l0.595,-0.316l0.597,-0.313l0.6,-0.31l0.601,-0.306l0.604,-0.302l0.605,-0.299l0.608,-0.295l0.61,-0.292l0.611,-0.288l0.614,-0.284l0.616,-0.281l0.618,-0.277l0.62,-0.274l0.621,-0.27l0.624,-0.266l0.626,-0.263l0.627,-0.259l0.63,-0.255l0.631,-0.251l0.633,-0.248l0.635,-0.244l0.637,-0.24l0.639,-0.236l0.64,-0.232l0.643,-0.229l0.644,-0.225l0.646,-0.221l0.648,-0.217l0.649,-0.213l0.652,-0.21l0.653,-0.205l0.654,-0.202l0.657,-0.198l0.658,-0.193l0.66,-0.19l0.661,-0.186l0.663,-0.182l0.665,-0.178l0.666,-0.174l0.668,-0.169l0.67,-0.166l0.671,-0.162l0.673,-0.158l0.674,-0.153l0.676,-0.15l0.677,-0.145l0.679,-0.141l0.68,-0.137l0.682,-0.133l0.684,-0.129l0.684,-0.125l0.687,-0.12l0.687,-0.117l0.689,-0.112l0.691,-0.108l0.691,-0.103l0.694,-0.1l0.694,-0.095l0.696,-0.091l0.697,-0.086l0.699,-0.082l0.7,-0.078l0.701,-0.074l0.702,-0.069l0.704,-0.065l0.705,-0.06l0.706,-0.056l0.708,-0.052l0.708,-0.047l0.71,-0.043l0.711,-0.038l0.712,-0.034l0.714,-0.029l0.714,-0.025l0.716,-0.021l0.716,-0.016l0.718,-0.011l0.719,-0.007l0.72,-0.002l942.447,0l0.72,0.002Zm-943.087,49.998l-0.482,0.001l-0.402,0.004l-0.402,0.007l-0.4,0.008l-0.399,0.012l-0.396,0.014l-0.397,0.016l-0.397,0.019l-0.394,0.021l-0.394,0.024l-0.393,0.026l-0.391,0.029l-0.39,0.031l-0.391,0.033l-0.39,0.036l-0.386,0.038l-0.387,0.041l-0.386,0.043l-0.387,0.045l-0.383,0.048l-0.383,0.05l-0.383,0.052l-0.381,0.055l-0.38,0.057l-0.38,0.059l-0.378,0.061l-0.376,0.064l-0.379,0.067l-0.377,0.068l-0.375,0.071l-0.373,0.073l-0.373,0.075l-0.372,0.077l-0.37,0.08l-0.37,0.081l-0.372,0.085l-0.369,0.087l-0.364,0.088l-0.367,0.09l-0.367,0.094l-0.366,0.095l-0.364,0.097l-0.361,0.1l-0.362,0.101l-0.363,0.104l-0.36,0.107l-0.359,0.108l-0.356,0.109l-0.36,0.114l-0.358,0.115l-0.353,0.116l-0.356,0.119l-0.354,0.121l-0.352,0.123l-0.352,0.125l-0.35,0.127l-0.351,0.13l-0.349,0.132l-0.347,0.133l-0.347,0.136l-0.346,0.137l-0.345,0.14l-0.346,0.143l-0.341,0.143l-0.343,0.146l-0.342,0.149l-0.337,0.149l-0.341,0.153l-0.338,0.154l-0.337,0.156l-0.337,0.159l-0.332,0.159l-0.335,0.162l-0.335,0.166l-0.331,0.166l-0.329,0.167l-0.329,0.17l-0.329,0.172l-0.33,0.175l-0.325,0.176l-0.325,0.178l-0.325,0.181l-0.322,0.181l-0.321,0.183l-0.322,0.187l-0.319,0.187l-0.319,0.19l-0.317,0.192l-0.316,0.193l-0.315,0.195l-0.313,0.197l-0.313,0.2l-0.311,0.2l-0.311,0.204l-0.309,0.204l-0.306,0.206l-0.307,0.209l-0.306,0.211l-0.304,0.212l-0.301,0.213l-0.302,0.216l-0.299,0.217l-0.299,0.219l-0.297,0.221l-0.297,0.224l-0.295,0.224l-0.292,0.225l-0.293,0.229l-0.291,0.231l-0.289,0.231l-0.287,0.233l-0.287,0.235l-0.285,0.237l-0.284,0.238l-0.283,0.241l-0.28,0.241l-0.279,0.243l-0.278,0.246l-0.277,0.247l-0.274,0.247l-0.273,0.251l-0.273,0.252l-0.27,0.253l-0.27,0.255l-0.267,0.257l-0.266,0.258l-0.264,0.259l-0.264,0.262l-0.26,0.263l-0.26,0.264l-0.258,0.266l-0.256,0.266l-0.255,0.27l-0.254,0.271l-0.252,0.272l-0.25,0.273l-0.248,0.275l-0.247,0.276l-0.245,0.278l-0.243,0.28l-0.242,0.281l-0.24,0.282l-0.24,0.284l-0.236,0.285l-0.234,0.285l-0.235,0.29l-0.231,0.289l-0.229,0.29l-0.229,0.292l-0.225,0.292l-0.225,0.295l-0.223,0.297l-0.221,0.298l-0.22,0.299l-0.217,0.299l-0.216,0.302l-0.214,0.302l-0.211,0.303l-0.211,0.306l-0.208,0.306l-0.207,0.308l-0.204,0.308l-0.203,0.31l-0.202,0.312l-0.198,0.312l-0.197,0.313l-0.196,0.316l-0.194,0.316l-0.191,0.318l-0.19,0.318l-0.187,0.319l-0.186,0.32l-0.183,0.322l-0.183,0.324l-0.179,0.323l-0.179,0.326l-0.176,0.327l-0.173,0.326l-0.173,0.329l-0.17,0.33l-0.169,0.331l-0.166,0.331l-0.164,0.333l-0.163,0.335l-0.159,0.334l-0.159,0.336l-0.156,0.338l-0.154,0.337l-0.152,0.339l-0.15,0.34l-0.149,0.342l-0.145,0.341l-0.144,0.342l-0.142,0.345l-0.14,0.346l-0.138,0.345l-0.136,0.348l-0.133,0.348l-0.132,0.348l-0.129,0.35l-0.128,0.351l-0.125,0.352l-0.123,0.352l-0.121,0.355l-0.119,0.354l-0.117,0.356l-0.115,0.357l-0.112,0.357l-0.11,0.358l-0.108,0.359l-0.106,0.361l-0.104,0.361l-0.102,0.362l-0.1,0.363l-0.097,0.364l-0.095,0.364l-0.093,0.366l-0.091,0.367l-0.089,0.368l-0.086,0.367l-0.084,0.37l-0.082,0.371l-0.08,0.371l-0.077,0.372l-0.075,0.373l-0.073,0.374l-0.071,0.375l-0.068,0.376l-0.066,0.377l-0.064,0.378l-0.062,0.378l-0.059,0.379l-0.057,0.381l-0.055,0.381l-0.052,0.383l-0.05,0.382l-0.048,0.385l-0.045,0.385l-0.043,0.386l-0.041,0.387l-0.038,0.388l-0.036,0.389l-0.033,0.389l-0.031,0.392l-0.029,0.392l-0.026,0.392l-0.024,0.394l-0.021,0.395l-0.019,0.396l-0.016,0.396l-0.014,0.398l-0.011,0.399l-0.009,0.399l-0.007,0.401l-0.003,0.402l-0.002,0.482l0,519.704l0.002,0.482l0.003,0.402l0.007,0.401l0.009,0.4l0.011,0.399l0.014,0.397l0.016,0.397l0.019,0.395l0.021,0.395l0.024,0.394l0.026,0.393l0.029,0.392l0.031,0.391l0.033,0.389l0.036,0.389l0.038,0.388l0.041,0.388l0.043,0.385l0.045,0.385l0.048,0.385l0.05,0.383l0.052,0.381l0.055,0.382l0.057,0.381l0.059,0.38l0.062,0.378l0.063,0.377l0.067,0.377l0.068,0.376l0.071,0.375l0.073,0.373l0.075,0.374l0.078,0.373l0.079,0.37l0.082,0.37l0.084,0.37l0.087,0.369l0.088,0.367l0.091,0.366l0.093,0.367l0.095,0.365l0.098,0.364l0.099,0.363l0.101,0.36l0.104,0.362l0.107,0.362l0.108,0.359l0.11,0.357l0.112,0.357l0.115,0.358l0.117,0.355l0.119,0.355l0.121,0.354l0.123,0.351l0.125,0.353l0.128,0.352l0.129,0.35l0.131,0.347l0.134,0.348l0.136,0.348l0.138,0.346l0.14,0.346l0.142,0.343l0.143,0.343l0.147,0.343l0.148,0.341l0.149,0.339l0.153,0.339l0.154,0.338l0.156,0.337l0.159,0.337l0.159,0.334l0.163,0.334l0.164,0.332l0.166,0.331l0.169,0.333l0.171,0.331l0.171,0.327l0.173,0.325l0.178,0.329l0.178,0.325l0.178,0.322l0.184,0.325l0.184,0.323l0.184,0.318l0.188,0.32l0.191,0.321l0.19,0.314l0.193,0.316l0.197,0.317l0.197,0.314l0.198,0.311l0.202,0.312l0.203,0.31l0.203,0.307l0.209,0.311l0.207,0.304l0.21,0.305l0.213,0.306l0.213,0.301l0.216,0.301l0.218,0.301l0.218,0.297l0.221,0.297l0.225,0.299l0.223,0.293l0.226,0.292l0.23,0.295l0.229,0.29l0.23,0.287l0.235,0.29l0.234,0.285l0.236,0.285l0.24,0.284l0.239,0.281l0.243,0.282l0.244,0.281l0.245,0.278l0.246,0.275l0.247,0.274l0.251,0.274l0.252,0.272l0.254,0.271l0.255,0.27l0.256,0.266l0.259,0.267l0.257,0.262l0.262,0.264l0.264,0.262l0.263,0.258l0.268,0.26l0.268,0.257l0.267,0.253l0.271,0.254l0.271,0.251l0.274,0.251l0.278,0.25l0.274,0.246l0.277,0.244l0.281,0.245l0.281,0.241l0.28,0.239l0.285,0.239l0.286,0.238l0.286,0.234l0.286,0.232l0.29,0.232l0.291,0.231l0.292,0.228l0.293,0.226l0.295,0.224l0.297,0.224l0.299,0.222l0.298,0.219l0.296,0.215l0.302,0.216l0.305,0.215l0.302,0.212l0.304,0.209l0.31,0.211l0.305,0.205l0.308,0.204l0.312,0.204l0.311,0.201l0.313,0.199l0.315,0.198l0.313,0.195l0.316,0.193l0.317,0.191l0.319,0.19l0.321,0.189l0.32,0.185l0.318,0.181l0.323,0.182l0.329,0.183l0.323,0.177l0.325,0.176l0.332,0.176l0.325,0.17l0.331,0.171l0.332,0.169l0.328,0.165l0.333,0.164l0.335,0.163l0.336,0.16l0.335,0.158l0.337,0.156l0.338,0.155l0.341,0.152l0.337,0.149l0.34,0.148l0.347,0.148l0.339,0.142l0.346,0.143l0.347,0.141l0.342,0.136l0.347,0.136l0.349,0.134l0.351,0.132l0.349,0.129l0.35,0.127l0.352,0.125l0.35,0.123l0.356,0.121l0.358,0.12l0.351,0.116l0.358,0.115l0.36,0.113l0.356,0.11l0.359,0.108l0.36,0.106l0.363,0.104l0.359,0.101l0.367,0.1l0.363,0.098l0.362,0.094l0.367,0.093l0.369,0.092l0.367,0.088l0.368,0.086l0.37,0.085l0.368,0.081l0.37,0.08l0.376,0.078l0.373,0.075l0.371,0.072l0.373,0.071l0.379,0.069l0.377,0.066l0.378,0.064l0.38,0.062l0.378,0.059l0.38,0.057l0.381,0.054l0.383,0.053l0.381,0.049l0.387,0.048l0.385,0.046l0.386,0.043l0.389,0.04l0.381,0.038l0.393,0.036l0.394,0.034l0.387,0.031l0.389,0.028l0.395,0.026l0.394,0.024l0.394,0.021l0.397,0.019l0.395,0.017l0.401,0.014l0.398,0.011l0.396,0.009l0.402,0.006l0.404,0.004l0.482,0.001l942.287,0l0.482,-0.001l0.404,-0.004l0.402,-0.006l0.396,-0.009l0.399,-0.011l0.4,-0.014l0.395,-0.017l0.397,-0.019l0.395,-0.021l0.393,-0.024l0.395,-0.026l0.389,-0.028l0.387,-0.031l0.395,-0.034l0.392,-0.036l0.382,-0.038l0.388,-0.04l0.386,-0.043l0.385,-0.046l0.387,-0.048l0.381,-0.049l0.383,-0.053l0.381,-0.054l0.38,-0.057l0.378,-0.059l0.381,-0.062l0.377,-0.064l0.377,-0.066l0.379,-0.069l0.373,-0.071l0.37,-0.072l0.374,-0.075l0.377,-0.079l0.368,-0.079l0.368,-0.081l0.371,-0.085l0.369,-0.086l0.366,-0.088l0.368,-0.091l0.369,-0.094l0.362,-0.094l0.363,-0.098l0.366,-0.1l0.358,-0.101l0.363,-0.104l0.361,-0.106l0.358,-0.108l0.358,-0.11l0.36,-0.114l0.356,-0.114l0.351,-0.115l0.359,-0.121l0.356,-0.122l0.349,-0.121l0.353,-0.126l0.351,-0.127l0.349,-0.129l0.349,-0.132l0.349,-0.134l0.348,-0.136l0.341,-0.136l0.348,-0.141l0.346,-0.143l0.34,-0.142l0.347,-0.149l0.34,-0.147l0.336,-0.149l0.341,-0.152l0.339,-0.155l0.336,-0.156l0.334,-0.157l0.337,-0.161l0.336,-0.163l0.332,-0.164l0.326,-0.164l0.335,-0.17l0.331,-0.171l0.325,-0.17l0.33,-0.176l0.327,-0.176l0.323,-0.177l0.327,-0.182l0.324,-0.183l0.318,-0.181l0.319,-0.185l0.323,-0.19l0.318,-0.189l0.316,-0.191l0.317,-0.194l0.314,-0.194l0.315,-0.198l0.312,-0.199l0.31,-0.2l0.314,-0.206l0.307,-0.203l0.306,-0.206l0.309,-0.21l0.303,-0.209l0.305,-0.213l0.302,-0.213l0.303,-0.217l0.298,-0.216l0.295,-0.217l0.299,-0.222l0.3,-0.225l0.293,-0.224l0.292,-0.226l0.294,-0.229l0.292,-0.231l0.288,-0.23l0.284,-0.231l0.287,-0.236l0.289,-0.24l0.283,-0.237l0.279,-0.237l0.282,-0.243l0.283,-0.247l0.277,-0.244l0.272,-0.244l0.277,-0.249l0.275,-0.252l0.271,-0.25l0.271,-0.255l0.268,-0.254l0.266,-0.255l0.27,-0.262l0.261,-0.256l0.264,-0.263l0.263,-0.264l0.256,-0.261l0.262,-0.269l0.255,-0.266l0.254,-0.268l0.254,-0.272l0.251,-0.271l0.251,-0.275l0.25,-0.276l0.244,-0.273l0.244,-0.277l0.247,-0.283l0.242,-0.282l0.237,-0.278l0.24,-0.285l0.238,-0.287l0.232,-0.283l0.234,-0.289l0.233,-0.291l0.229,-0.289l0.229,-0.293l0.225,-0.292l0.224,-0.294l0.226,-0.3l0.22,-0.296l0.219,-0.298l0.218,-0.301l0.215,-0.3l0.213,-0.301l0.213,-0.305l0.209,-0.304l0.21,-0.309l0.207,-0.308l0.202,-0.305l0.204,-0.312l0.202,-0.312l0.198,-0.312l0.198,-0.315l0.196,-0.316l0.193,-0.314l0.189,-0.315l0.192,-0.321l0.189,-0.322l0.182,-0.313l0.184,-0.323l0.185,-0.328l0.179,-0.324l0.177,-0.323l0.177,-0.327l0.175,-0.33l0.17,-0.324l0.169,-0.328l0.173,-0.338l0.165,-0.331l0.162,-0.328l0.163,-0.335l0.161,-0.337l0.158,-0.335l0.156,-0.336l0.154,-0.339l0.153,-0.34l0.149,-0.337l0.147,-0.34l0.149,-0.348l0.142,-0.339l0.142,-0.344l0.142,-0.349l0.135,-0.341l0.136,-0.348l0.135,-0.35l0.131,-0.349l0.129,-0.348l0.128,-0.352l0.125,-0.353l0.122,-0.349l0.122,-0.356l0.12,-0.359l0.115,-0.35l0.115,-0.358l0.114,-0.359l0.109,-0.356l0.108,-0.358l0.107,-0.363l0.104,-0.362l0.101,-0.359l0.1,-0.366l0.097,-0.363l0.094,-0.362l0.094,-0.368l0.091,-0.368l0.089,-0.367l0.086,-0.369l0.085,-0.37l0.081,-0.368l0.079,-0.369l0.078,-0.377l0.076,-0.373l0.072,-0.371l0.07,-0.372l0.069,-0.38l0.066,-0.376l0.064,-0.378l0.062,-0.38l0.059,-0.378l0.057,-0.38l0.055,-0.382l0.052,-0.383l0.05,-0.38l0.048,-0.388l0.045,-0.385l0.043,-0.381l0.041,-0.393l0.038,-0.386l0.036,-0.388l0.034,-0.394l0.03,-0.387l0.029,-0.39l0.026,-0.395l0.024,-0.393l0.021,-0.395l0.019,-0.397l0.016,-0.394l0.014,-0.401l0.012,-0.399l0.008,-0.395l0.007,-0.403l0.004,-0.404l0.001,-0.481l0,-519.704l-0.001,-0.481l-0.004,-0.404l-0.007,-0.402l-0.008,-0.396l-0.012,-0.399l-0.014,-0.401l-0.016,-0.394l-0.019,-0.397l-0.021,-0.395l-0.024,-0.393l-0.026,-0.395l-0.029,-0.389l-0.03,-0.388l-0.034,-0.394l-0.036,-0.388l-0.038,-0.386l-0.041,-0.392l-0.043,-0.382l-0.045,-0.385l-0.048,-0.387l-0.05,-0.381l-0.052,-0.383l-0.055,-0.382l-0.057,-0.38l-0.059,-0.377l-0.062,-0.38l-0.064,-0.379l-0.066,-0.376l-0.069,-0.379l-0.07,-0.373l-0.072,-0.371l-0.076,-0.373l-0.078,-0.376l-0.079,-0.37l-0.082,-0.368l-0.084,-0.371l-0.086,-0.368l-0.089,-0.366l-0.091,-0.369l-0.094,-0.368l-0.094,-0.361l-0.097,-0.363l-0.1,-0.367l-0.101,-0.359l-0.105,-0.363l-0.106,-0.361l-0.108,-0.358l-0.11,-0.357l-0.113,-0.359l-0.115,-0.358l-0.115,-0.351l-0.12,-0.357l-0.122,-0.357l-0.122,-0.35l-0.125,-0.352l-0.128,-0.351l-0.128,-0.348l-0.133,-0.351l-0.134,-0.349l-0.136,-0.348l-0.135,-0.34l-0.142,-0.349l-0.142,-0.346l-0.142,-0.338l-0.148,-0.346l-0.148,-0.341l-0.149,-0.338l-0.153,-0.34l-0.154,-0.338l-0.156,-0.337l-0.158,-0.335l-0.161,-0.336l-0.163,-0.336l-0.162,-0.329l-0.166,-0.33l-0.171,-0.337l-0.169,-0.327l-0.171,-0.327l-0.176,-0.33l-0.175,-0.325l-0.178,-0.324l-0.18,-0.325l-0.184,-0.327l-0.184,-0.321l-0.183,-0.316l-0.188,-0.32l-0.19,-0.32l-0.192,-0.318l-0.193,-0.314l-0.195,-0.315l-0.197,-0.314l-0.199,-0.313l-0.202,-0.312l-0.204,-0.312l-0.203,-0.306l-0.205,-0.306l-0.211,-0.31l-0.21,-0.305l-0.211,-0.302l-0.214,-0.303l-0.215,-0.3l-0.217,-0.3l-0.221,-0.3l-0.22,-0.296l-0.224,-0.298l-0.226,-0.296l-0.225,-0.292l-0.227,-0.291l-0.229,-0.289l-0.234,-0.292l-0.234,-0.289l-0.232,-0.283l-0.238,-0.286l-0.24,-0.285l-0.238,-0.28l-0.241,-0.281l-0.246,-0.282l-0.244,-0.277l-0.245,-0.274l-0.251,-0.277l-0.25,-0.274l-0.251,-0.271l-0.254,-0.271l-0.254,-0.268l-0.255,-0.267l-0.261,-0.268l-0.259,-0.263l-0.261,-0.263l-0.264,-0.263l-0.262,-0.257l-0.267,-0.26l-0.267,-0.255l-0.27,-0.256l-0.27,-0.254l-0.273,-0.251l-0.274,-0.252l-0.273,-0.246l-0.275,-0.246l-0.278,-0.245l-0.281,-0.245l-0.282,-0.242l-0.281,-0.24l-0.282,-0.236l-0.287,-0.239l-0.289,-0.237l-0.285,-0.231l-0.287,-0.23l-0.292,-0.231l-0.295,-0.23l-0.291,-0.225l-0.293,-0.223l-0.3,-0.226l-0.298,-0.221l-0.295,-0.217l-0.301,-0.218l-0.303,-0.217l-0.298,-0.211l-0.307,-0.214l-0.305,-0.21l-0.305,-0.208l-0.308,-0.206l-0.309,-0.205l-0.312,-0.205l-0.31,-0.2l-0.312,-0.198l-0.314,-0.198l-0.315,-0.195l-0.317,-0.194l-0.316,-0.191l-0.318,-0.189l-0.321,-0.189l-0.321,-0.186l-0.321,-0.183l-0.322,-0.182l-0.324,-0.18l-0.325,-0.178l-0.327,-0.176l-0.329,-0.175l-0.328,-0.172l-0.329,-0.17l-0.331,-0.168l-0.33,-0.166l-0.334,-0.164l-0.336,-0.163l-0.333,-0.16l-0.336,-0.158l-0.336,-0.156l-0.339,-0.154l-0.341,-0.153l-0.336,-0.149l-0.342,-0.148l-0.343,-0.147l-0.342,-0.143l-0.346,-0.143l-0.346,-0.14l-0.345,-0.137l-0.348,-0.136l-0.347,-0.134l-0.347,-0.131l-0.351,-0.129l-0.351,-0.128l-0.353,-0.125l-0.351,-0.123l-0.354,-0.121l-0.357,-0.12l-0.353,-0.116l-0.356,-0.114l-0.36,-0.113l-0.358,-0.111l-0.358,-0.107l-0.361,-0.107l-0.363,-0.104l-0.36,-0.101l-0.362,-0.1l-0.363,-0.097l-0.366,-0.095l-0.369,-0.094l-0.366,-0.09l-0.364,-0.088l-0.369,-0.087l-0.373,-0.085l-0.37,-0.082l-0.368,-0.079l-0.373,-0.077l-0.374,-0.075l-0.372,-0.073l-0.375,-0.071l-0.377,-0.069l-0.379,-0.066l-0.375,-0.064l-0.379,-0.061l-0.38,-0.059l-0.38,-0.057l-0.381,-0.055l-0.383,-0.052l-0.383,-0.05l-0.383,-0.048l-0.387,-0.045l-0.386,-0.043l-0.386,-0.041l-0.387,-0.038l-0.389,-0.036l-0.392,-0.033l-0.39,-0.031l-0.391,-0.029l-0.393,-0.026l-0.393,-0.024l-0.395,-0.021l-0.397,-0.019l-0.397,-0.016l-0.396,-0.014l-0.399,-0.012l-0.4,-0.008l-0.402,-0.007l-0.402,-0.004l-0.482,-0.001l-942.287,0Z" style="fill:#fff;"/><rect x="807.595" y="1319.74" width="66.459" height="144.673" style="fill:#fff;"/><circle cx="1307.83" cy="1197.84" r="23.535" style="fill:#fff;"/><circle cx="1249.57" cy="1197.84" r="23.535" style="fill:#fff;"/><circle cx="1191.32" cy="1197.84" r="23.535" style="fill:#fff;"/><rect x="349.425" y="631.284" width="981.938" height="47.07" style="fill:#fff;"/><path d="M1134.44,1221.38l-785.02,0l0,-523.688l785.02,0l0,523.688Zm-760.02,-498.688l0,473.688l735.02,0l0,-473.688l-735.02,0Z" style="fill:#fff;"/><g><path d="M1768.97,926.783l0.733,0.014l0.73,0.023l0.729,0.032l0.725,0.042l0.724,0.05l0.72,0.06l0.719,0.068l0.715,0.077l0.713,0.087l0.71,0.095l0.708,0.103l0.704,0.113l0.702,0.12l0.699,0.13l0.695,0.138l0.693,0.146l0.69,0.155l0.686,0.163l0.683,0.172l0.68,0.179l0.677,0.188l0.673,0.196l0.67,0.204l0.666,0.212l0.662,0.22l0.659,0.228l0.656,0.235l0.651,0.243l0.648,0.251l0.644,0.259l0.64,0.266l0.636,0.274l0.632,0.282l0.628,0.288l0.624,0.297l0.62,0.303l0.615,0.311l0.612,0.318l0.606,0.325l0.603,0.332l0.598,0.339l0.593,0.346l0.589,0.353l0.584,0.36l0.58,0.367l0.575,0.374l0.57,0.38l0.565,0.387l0.56,0.394l0.556,0.4l0.55,0.406l0.545,0.413l0.54,0.419l0.535,0.426l0.53,0.432l0.524,0.438l0.519,0.444l0.514,0.45l0.508,0.457l0.502,0.462l0.497,0.468l0.491,0.474l0.486,0.48l0.48,0.486l0.474,0.491l0.468,0.497l0.463,0.503l0.456,0.508l0.45,0.513l0.444,0.519l0.439,0.525l0.431,0.529l0.426,0.535l0.419,0.54l0.413,0.546l0.407,0.55l0.4,0.555l0.393,0.56l0.387,0.566l0.381,0.57l0.373,0.574l0.367,0.58l0.36,0.584l0.353,0.589l0.346,0.594l0.34,0.598l0.332,0.602l0.325,0.607l0.318,0.611l0.31,0.615l0.304,0.62l0.296,0.624l0.289,0.628l0.281,0.632l0.274,0.636l0.266,0.64l0.259,0.644l0.251,0.648l0.243,0.652l0.236,0.655l0.228,0.659l0.22,0.663l0.211,0.666l0.204,0.67l0.196,0.673l0.188,0.676l0.18,0.68l0.171,0.683l0.163,0.687l0.155,0.689l0.146,0.693l0.138,0.696l0.13,0.698l0.121,0.702l0.112,0.705l0.104,0.707l0.095,0.71l0.086,0.713l0.077,0.716l0.069,0.718l0.059,0.721l0.051,0.723l0.041,0.726l0.033,0.728l0.023,0.73l0.014,0.733l0.004,0.735l0,487.31l-0.004,0.735l-0.014,0.732l-0.023,0.731l-0.033,0.728l-0.041,0.725l-0.051,0.724l-0.059,0.721l-0.069,0.718l-0.077,0.715l-0.086,0.713l-0.095,0.71l-0.104,0.708l-0.112,0.705l-0.121,0.701l-0.13,0.699l-0.138,0.696l-0.146,0.692l-0.155,0.69l-0.163,0.686l-0.171,0.684l-0.18,0.679l-0.188,0.677l-0.196,0.673l-0.204,0.67l-0.211,0.666l-0.22,0.663l-0.228,0.659l-0.236,0.655l-0.243,0.652l-0.251,0.647l-0.259,0.644l-0.266,0.64l-0.274,0.636l-0.281,0.633l-0.289,0.628l-0.296,0.623l-0.304,0.62l-0.31,0.616l-0.318,0.611l-0.325,0.607l-0.332,0.602l-0.34,0.598l-0.346,0.594l-0.353,0.588l-0.36,0.585l-0.367,0.579l-0.373,0.575l-0.381,0.57l-0.387,0.565l-0.393,0.561l-0.4,0.555l-0.407,0.55l-0.413,0.545l-0.419,0.54l-0.426,0.535l-0.431,0.53l-0.439,0.524l-0.444,0.519l-0.45,0.514l-0.456,0.508l-0.463,0.502l-0.468,0.497l-0.474,0.492l-0.48,0.485l-0.486,0.48l-0.491,0.474l-0.497,0.469l-0.502,0.462l-0.508,0.456l-0.514,0.451l-0.519,0.444l-0.524,0.438l-0.53,0.432l-0.535,0.425l-0.54,0.42l-0.545,0.413l-0.55,0.406l-0.556,0.4l-0.56,0.394l-0.565,0.387l-0.57,0.38l-0.575,0.373l-0.58,0.367l-0.584,0.36l-0.589,0.353l-0.593,0.347l-0.598,0.339l-0.603,0.332l-0.606,0.325l-0.612,0.318l-0.615,0.311l-0.62,0.303l-0.624,0.296l-0.628,0.289l-0.632,0.281l-0.636,0.274l-0.64,0.266l-0.644,0.259l-0.648,0.251l-0.651,0.244l-0.656,0.235l-0.659,0.228l-0.662,0.22l-0.666,0.212l-0.67,0.204l-0.673,0.196l-0.677,0.187l-0.68,0.18l-0.683,0.171l-0.686,0.163l-0.69,0.155l-0.693,0.147l-0.695,0.138l-0.699,0.129l-0.702,0.121l-0.704,0.112l-0.708,0.104l-0.71,0.095l-0.713,0.086l-0.715,0.078l-0.719,0.068l-0.72,0.06l-0.724,0.05l-0.725,0.041l-0.729,0.033l-0.73,0.023l-0.733,0.014l-0.735,0.005l-265.528,0l-0.735,-0.005l-0.733,-0.014l-0.73,-0.023l-0.728,-0.033l-0.726,-0.041l-0.723,-0.05l-0.721,-0.06l-0.718,-0.068l-0.716,-0.078l-0.713,-0.086l-0.71,-0.095l-0.707,-0.104l-0.705,-0.112l-0.702,-0.121l-0.698,-0.129l-0.696,-0.138l-0.693,-0.147l-0.689,-0.155l-0.687,-0.163l-0.683,-0.171l-0.68,-0.18l-0.676,-0.187l-0.673,-0.196l-0.67,-0.204l-0.666,-0.212l-0.663,-0.22l-0.659,-0.228l-0.655,-0.235l-0.652,-0.244l-0.648,-0.251l-0.644,-0.259l-0.64,-0.266l-0.636,-0.274l-0.632,-0.281l-0.628,-0.289l-0.624,-0.296l-0.62,-0.303l-0.615,-0.311l-0.611,-0.318l-0.607,-0.325l-0.602,-0.332l-0.598,-0.339l-0.594,-0.347l-0.589,-0.353l-0.584,-0.36l-0.58,-0.367l-0.574,-0.373l-0.57,-0.38l-0.566,-0.387l-0.56,-0.394l-0.555,-0.4l-0.55,-0.406l-0.546,-0.413l-0.54,-0.42l-0.535,-0.425l-0.529,-0.432l-0.525,-0.438l-0.519,-0.444l-0.513,-0.451l-0.508,-0.456l-0.503,-0.462l-0.497,-0.469l-0.491,-0.474l-0.486,-0.48l-0.48,-0.485l-0.474,-0.492l-0.468,-0.497l-0.462,-0.502l-0.457,-0.508l-0.45,-0.514l-0.444,-0.519l-0.438,-0.524l-0.432,-0.53l-0.426,-0.535l-0.419,-0.54l-0.413,-0.545l-0.406,-0.55l-0.4,-0.555l-0.394,-0.561l-0.387,-0.565l-0.38,-0.57l-0.374,-0.575l-0.367,-0.579l-0.36,-0.585l-0.353,-0.588l-0.346,-0.594l-0.339,-0.598l-0.332,-0.602l-0.325,-0.607l-0.318,-0.611l-0.311,-0.616l-0.303,-0.62l-0.297,-0.623l-0.288,-0.628l-0.282,-0.633l-0.274,-0.636l-0.266,-0.64l-0.259,-0.644l-0.251,-0.647l-0.243,-0.652l-0.236,-0.655l-0.227,-0.659l-0.22,-0.663l-0.212,-0.666l-0.204,-0.67l-0.196,-0.673l-0.188,-0.677l-0.179,-0.679l-0.172,-0.684l-0.163,-0.686l-0.155,-0.69l-0.146,-0.692l-0.138,-0.696l-0.13,-0.699l-0.12,-0.701l-0.113,-0.705l-0.103,-0.708l-0.095,-0.71l-0.087,-0.713l-0.077,-0.715l-0.068,-0.718l-0.06,-0.721l-0.05,-0.724l-0.042,-0.725l-0.032,-0.728l-0.023,-0.731l-0.014,-0.732l-0.005,-0.735l0,-487.31l0.005,-0.735l0.014,-0.733l0.023,-0.73l0.032,-0.728l0.042,-0.726l0.05,-0.723l0.06,-0.721l0.068,-0.718l0.077,-0.716l0.087,-0.713l0.095,-0.71l0.103,-0.707l0.113,-0.705l0.12,-0.702l0.13,-0.698l0.138,-0.696l0.146,-0.693l0.155,-0.689l0.163,-0.687l0.172,-0.683l0.179,-0.68l0.188,-0.676l0.196,-0.673l0.204,-0.67l0.212,-0.666l0.22,-0.663l0.227,-0.659l0.236,-0.655l0.243,-0.652l0.251,-0.648l0.259,-0.644l0.266,-0.64l0.274,-0.636l0.282,-0.632l0.288,-0.628l0.297,-0.624l0.303,-0.62l0.311,-0.615l0.318,-0.611l0.325,-0.607l0.332,-0.602l0.339,-0.598l0.346,-0.594l0.353,-0.589l0.36,-0.584l0.367,-0.58l0.374,-0.574l0.38,-0.57l0.387,-0.566l0.394,-0.56l0.4,-0.555l0.406,-0.55l0.413,-0.546l0.419,-0.54l0.426,-0.535l0.432,-0.529l0.438,-0.525l0.444,-0.519l0.45,-0.513l0.457,-0.508l0.462,-0.503l0.468,-0.497l0.474,-0.491l0.48,-0.486l0.486,-0.48l0.491,-0.474l0.497,-0.468l0.503,-0.462l0.508,-0.457l0.513,-0.45l0.519,-0.444l0.525,-0.438l0.529,-0.432l0.535,-0.426l0.54,-0.419l0.546,-0.413l0.55,-0.406l0.555,-0.4l0.56,-0.394l0.566,-0.387l0.57,-0.38l0.574,-0.374l0.58,-0.367l0.584,-0.36l0.589,-0.353l0.594,-0.346l0.598,-0.339l0.602,-0.332l0.607,-0.325l0.611,-0.318l0.615,-0.311l0.62,-0.303l0.624,-0.297l0.628,-0.288l0.632,-0.282l0.636,-0.274l0.64,-0.266l0.644,-0.259l0.648,-0.251l0.652,-0.243l0.655,-0.235l0.659,-0.228l0.663,-0.22l0.666,-0.212l0.67,-0.204l0.673,-0.196l0.676,-0.188l0.68,-0.179l0.683,-0.172l0.687,-0.163l0.689,-0.155l0.693,-0.146l0.696,-0.138l0.698,-0.13l0.702,-0.12l0.705,-0.113l0.707,-0.103l0.71,-0.095l0.713,-0.087l0.716,-0.077l0.718,-0.068l0.721,-0.06l0.723,-0.05l0.726,-0.042l0.728,-0.032l0.73,-0.023l0.733,-0.014l0.735,-0.005l265.528,0l0.735,0.005Zm-266.184,24.995l-0.498,0.003l-0.415,0.008l-0.413,0.013l-0.412,0.019l-0.41,0.023l-0.407,0.028l-0.405,0.034l-0.405,0.038l-0.401,0.044l-0.399,0.048l-0.397,0.053l-0.397,0.058l-0.394,0.063l-0.392,0.068l-0.389,0.072l-0.389,0.077l-0.387,0.082l-0.384,0.086l-0.382,0.091l-0.381,0.095l-0.379,0.1l-0.376,0.105l-0.374,0.109l-0.374,0.113l-0.372,0.119l-0.368,0.122l-0.367,0.127l-0.366,0.131l-0.363,0.136l-0.361,0.14l-0.36,0.144l-0.357,0.149l-0.353,0.152l-0.353,0.157l-0.352,0.162l-0.348,0.165l-0.346,0.17l-0.345,0.174l-0.342,0.178l-0.34,0.182l-0.337,0.185l-0.335,0.19l-0.333,0.195l-0.33,0.197l-0.328,0.203l-0.325,0.205l-0.322,0.21l-0.321,0.214l-0.317,0.217l-0.315,0.221l-0.313,0.226l-0.31,0.229l-0.306,0.232l-0.304,0.236l-0.302,0.24l-0.297,0.242l-0.296,0.247l-0.292,0.25l-0.29,0.254l-0.287,0.258l-0.283,0.261l-0.28,0.264l-0.276,0.266l-0.275,0.271l-0.27,0.274l-0.267,0.276l-0.265,0.282l-0.261,0.283l-0.256,0.286l-0.254,0.289l-0.25,0.293l-0.248,0.296l-0.243,0.298l-0.239,0.301l-0.237,0.305l-0.232,0.306l-0.228,0.309l-0.225,0.312l-0.222,0.317l-0.217,0.317l-0.213,0.318l-0.21,0.324l-0.207,0.326l-0.201,0.327l-0.199,0.332l-0.194,0.331l-0.189,0.334l-0.186,0.338l-0.182,0.34l-0.179,0.343l-0.174,0.345l-0.169,0.344l-0.165,0.349l-0.162,0.352l-0.156,0.351l-0.154,0.356l-0.148,0.357l-0.144,0.358l-0.14,0.363l-0.136,0.364l-0.131,0.363l-0.127,0.367l-0.122,0.37l-0.118,0.371l-0.114,0.374l-0.109,0.374l-0.104,0.375l-0.101,0.38l-0.095,0.382l-0.091,0.381l-0.087,0.385l-0.081,0.387l-0.077,0.387l-0.072,0.39l-0.068,0.393l-0.063,0.394l-0.058,0.394l-0.053,0.397l-0.048,0.402l-0.044,0.402l-0.038,0.403l-0.034,0.405l-0.028,0.407l-0.023,0.409l-0.019,0.413l-0.013,0.415l-0.008,0.413l-0.003,0.497l0,487.154l0.003,0.496l0.008,0.413l0.013,0.415l0.019,0.413l0.023,0.409l0.028,0.408l0.034,0.405l0.038,0.403l0.044,0.401l0.048,0.402l0.053,0.398l0.058,0.394l0.063,0.394l0.068,0.392l0.072,0.391l0.077,0.386l0.081,0.388l0.087,0.385l0.09,0.381l0.096,0.381l0.101,0.38l0.104,0.376l0.109,0.374l0.114,0.374l0.117,0.37l0.123,0.371l0.127,0.367l0.131,0.363l0.136,0.364l0.14,0.363l0.144,0.357l0.148,0.357l0.154,0.357l0.156,0.351l0.162,0.351l0.165,0.349l0.169,0.345l0.175,0.345l0.178,0.343l0.182,0.339l0.186,0.338l0.189,0.334l0.194,0.333l0.198,0.33l0.202,0.328l0.207,0.326l0.21,0.323l0.212,0.319l0.218,0.317l0.222,0.316l0.225,0.312l0.228,0.31l0.233,0.307l0.236,0.304l0.239,0.301l0.243,0.298l0.247,0.295l0.251,0.294l0.254,0.289l0.256,0.285l0.262,0.285l0.264,0.28l0.266,0.276l0.271,0.274l0.275,0.272l0.276,0.266l0.28,0.264l0.283,0.261l0.287,0.257l0.29,0.254l0.294,0.252l0.294,0.245l0.297,0.242l0.302,0.241l0.304,0.236l0.307,0.232l0.309,0.229l0.312,0.225l0.317,0.222l0.317,0.217l0.32,0.214l0.322,0.209l0.325,0.205l0.328,0.203l0.331,0.198l0.332,0.194l0.334,0.189l0.338,0.187l0.341,0.183l0.341,0.177l0.346,0.174l0.345,0.17l0.348,0.165l0.352,0.161l0.351,0.157l0.356,0.153l0.357,0.149l0.359,0.144l0.361,0.14l0.363,0.135l0.367,0.132l0.365,0.126l0.368,0.123l0.372,0.118l0.375,0.114l0.374,0.109l0.375,0.104l0.38,0.1l0.382,0.096l0.383,0.091l0.383,0.086l0.385,0.082l0.389,0.077l0.39,0.072l0.393,0.068l0.394,0.063l0.396,0.058l0.395,0.052l0.4,0.049l0.403,0.043l0.404,0.039l0.405,0.033l0.407,0.029l0.411,0.023l0.411,0.018l0.413,0.014l0.415,0.007l0.497,0.004l265.372,0l0.497,-0.004l0.415,-0.007l0.413,-0.014l0.411,-0.018l0.411,-0.023l0.407,-0.029l0.406,-0.033l0.403,-0.039l0.403,-0.043l0.4,-0.049l0.396,-0.052l0.396,-0.058l0.394,-0.063l0.392,-0.068l0.39,-0.072l0.389,-0.077l0.385,-0.082l0.383,-0.086l0.383,-0.091l0.382,-0.096l0.38,-0.1l0.376,-0.104l0.374,-0.109l0.374,-0.114l0.372,-0.118l0.369,-0.123l0.364,-0.126l0.367,-0.132l0.363,-0.135l0.361,-0.14l0.359,-0.144l0.357,-0.149l0.357,-0.153l0.351,-0.157l0.351,-0.161l0.349,-0.166l0.345,-0.169l0.344,-0.173l0.343,-0.179l0.34,-0.182l0.338,-0.186l0.334,-0.19l0.332,-0.194l0.331,-0.198l0.329,-0.203l0.325,-0.205l0.321,-0.209l0.32,-0.214l0.318,-0.217l0.316,-0.222l0.312,-0.225l0.31,-0.229l0.306,-0.232l0.304,-0.236l0.303,-0.241l0.297,-0.242l0.294,-0.245l0.294,-0.253l0.29,-0.253l0.285,-0.256l0.284,-0.262l0.28,-0.264l0.277,-0.267l0.274,-0.271l0.271,-0.273l0.267,-0.277l0.264,-0.28l0.261,-0.285l0.257,-0.286l0.253,-0.288l0.251,-0.294l0.247,-0.295l0.242,-0.297l0.241,-0.302l0.236,-0.304l0.232,-0.307l0.229,-0.31l0.225,-0.312l0.222,-0.316l0.217,-0.317l0.214,-0.32l0.209,-0.322l0.205,-0.325l0.203,-0.329l0.198,-0.33l0.194,-0.333l0.191,-0.336l0.185,-0.336l0.181,-0.338l0.179,-0.344l0.174,-0.345l0.169,-0.345l0.166,-0.349l0.161,-0.351l0.157,-0.353l0.153,-0.355l0.148,-0.355l0.145,-0.361l0.14,-0.361l0.135,-0.363l0.132,-0.366l0.126,-0.365l0.122,-0.369l0.119,-0.374l0.114,-0.372l0.108,-0.374l0.105,-0.376l0.1,-0.378l0.096,-0.383l0.091,-0.383l0.086,-0.383l0.081,-0.386l0.077,-0.388l0.073,-0.391l0.067,-0.392l0.063,-0.394l0.058,-0.396l0.053,-0.398l0.049,-0.398l0.043,-0.401l0.039,-0.405l0.033,-0.405l0.028,-0.408l0.024,-0.411l0.018,-0.411l0.013,-0.413l0.008,-0.415l0.003,-0.496l0,-487.154l-0.003,-0.497l-0.008,-0.415l-0.013,-0.413l-0.018,-0.411l-0.024,-0.411l-0.028,-0.407l-0.033,-0.405l-0.039,-0.405l-0.043,-0.402l-0.049,-0.398l-0.053,-0.397l-0.058,-0.396l-0.063,-0.394l-0.067,-0.393l-0.073,-0.39l-0.077,-0.389l-0.081,-0.385l-0.086,-0.383l-0.091,-0.383l-0.096,-0.384l-0.1,-0.378l-0.104,-0.375l-0.109,-0.374l-0.114,-0.372l-0.119,-0.375l-0.122,-0.368l-0.126,-0.365l-0.132,-0.367l-0.135,-0.362l-0.14,-0.361l-0.145,-0.361l-0.148,-0.356l-0.153,-0.355l-0.157,-0.352l-0.161,-0.352l-0.166,-0.349l-0.169,-0.344l-0.174,-0.345l-0.179,-0.344l-0.181,-0.339l-0.186,-0.336l-0.19,-0.336l-0.194,-0.331l-0.198,-0.332l-0.203,-0.328l-0.205,-0.325l-0.21,-0.322l-0.213,-0.32l-0.217,-0.317l-0.222,-0.317l-0.225,-0.312l-0.228,-0.309l-0.233,-0.306l-0.236,-0.305l-0.241,-0.302l-0.242,-0.297l-0.247,-0.296l-0.251,-0.293l-0.253,-0.288l-0.257,-0.287l-0.261,-0.283l-0.265,-0.282l-0.267,-0.277l-0.27,-0.273l-0.273,-0.27l-0.278,-0.267l-0.28,-0.264l-0.284,-0.262l-0.286,-0.257l-0.289,-0.253l-0.293,-0.251l-0.295,-0.247l-0.298,-0.242l-0.302,-0.24l-0.304,-0.236l-0.306,-0.232l-0.31,-0.229l-0.313,-0.226l-0.314,-0.221l-0.318,-0.217l-0.321,-0.214l-0.322,-0.21l-0.325,-0.205l-0.328,-0.203l-0.33,-0.197l-0.333,-0.195l-0.336,-0.19l-0.336,-0.185l-0.339,-0.182l-0.344,-0.179l-0.343,-0.173l-0.346,-0.17l-0.349,-0.165l-0.351,-0.162l-0.353,-0.157l-0.354,-0.152l-0.357,-0.149l-0.36,-0.144l-0.361,-0.14l-0.363,-0.136l-0.366,-0.131l-0.366,-0.127l-0.369,-0.122l-0.372,-0.119l-0.373,-0.113l-0.374,-0.109l-0.377,-0.105l-0.379,-0.1l-0.381,-0.095l-0.382,-0.091l-0.384,-0.086l-0.387,-0.082l-0.389,-0.077l-0.389,-0.072l-0.391,-0.068l-0.394,-0.063l-0.397,-0.058l-0.398,-0.053l-0.399,-0.048l-0.401,-0.044l-0.404,-0.038l-0.406,-0.034l-0.407,-0.028l-0.41,-0.023l-0.412,-0.019l-0.413,-0.013l-0.415,-0.008l-0.498,-0.003l-265.37,0Z" style="fill:#fff;"/><path d="M1778.92,1429.33l-286.902,0l0,-445.655l286.902,0l0,445.655Zm-274.402,-433.155l0,420.655l261.902,0l0,-420.655l-261.902,0Z" style="fill:#fff;"/><path d="M1778.92,1420.67l0,58.521l-286.902,0l0,-58.521l286.902,0Zm-143.451,8.665c11.367,0 20.596,9.228 20.596,20.595c0,11.367 -9.229,20.596 -20.596,20.596c-11.367,0 -20.595,-9.229 -20.595,-20.596c0,-11.367 9.228,-20.595 20.595,-20.595Z" style="fill:#fff;"/></g></g></g><ellipse cx="828.061" cy="1498.62" rx="239.699" ry="60.166" style="fill:#fff;"/></g></g></svg>