<?xml version="1.0" encoding="UTF-8" standalone="no"?><!DOCTYPE svg PUBLIC "-//W3C//DTD SVG 1.1//EN" "http://www.w3.org/Graphics/SVG/1.1/DTD/svg11.dtd"><svg width="100%" height="100%" viewBox="0 0 2084 2084" version="1.1" xmlns="http://www.w3.org/2000/svg" xmlns:xlink="http://www.w3.org/1999/xlink" xml:space="preserve" xmlns:serif="http://www.serif.com/" style="fill-rule:evenodd;clip-rule:evenodd;stroke-linejoin:round;stroke-miterlimit:1.41421;"><g id="Layer2"><g><g><path d="M1260.72,594.843l0.661,0.007l0.66,0.01l0.658,0.015l0.658,0.018l0.657,0.023l0.655,0.027l0.655,0.032l0.653,0.035l0.652,0.039l0.652,0.043l0.65,0.048l0.649,0.051l0.647,0.056l0.647,0.06l0.646,0.063l0.644,0.068l0.643,0.071l0.642,0.076l0.641,0.079l0.639,0.084l0.639,0.087l0.637,0.091l0.636,0.096l0.634,0.099l0.633,0.103l0.632,0.107l0.631,0.11l0.629,0.115l0.628,0.118l0.627,0.123l0.625,0.126l0.624,0.129l0.622,0.134l0.621,0.137l0.62,0.142l0.618,0.144l0.617,0.149l0.615,0.152l0.614,0.157l0.612,0.159l0.611,0.164l0.61,0.167l0.607,0.171l0.607,0.174l0.605,0.178l0.603,0.182l0.602,0.185l0.6,0.189l0.598,0.192l0.597,0.196l0.595,0.2l0.594,0.203l0.592,0.207l0.59,0.21l0.589,0.213l0.587,0.218l0.585,0.22l0.584,0.224l0.582,0.228l0.58,0.231l0.579,0.234l0.576,0.238l0.575,0.242l0.573,0.244l0.572,0.248l0.569,0.252l0.568,0.254l0.566,0.259l0.564,0.261l0.562,0.265l0.56,0.268l0.559,0.271l0.557,0.275l0.554,0.278l0.553,0.281l0.551,0.284l0.549,0.288l0.546,0.291l0.545,0.294l0.543,0.297l0.541,0.3l0.539,0.304l0.537,0.307l0.535,0.31l0.533,0.313l0.531,0.316l0.528,0.319l0.527,0.322l0.525,0.326l0.522,0.328l0.52,0.332l0.519,0.334l0.516,0.338l0.514,0.34l0.511,0.344l0.51,0.347l0.507,0.349l0.505,0.353l0.503,0.355l0.501,0.359l0.498,0.361l0.496,0.364l0.494,0.367l0.492,0.37l0.489,0.373l0.487,0.376l0.485,0.379l0.482,0.381l0.48,0.385l0.478,0.387l0.475,0.39l0.473,0.392l0.471,0.396l0.468,0.398l0.465,0.401l0.464,0.404l0.46,0.406l0.459,0.409l0.455,0.412l0.454,0.415l0.451,0.417l0.448,0.42l0.446,0.422l0.443,0.426l0.441,0.427l0.438,0.431l0.436,0.433l0.433,0.436l0.43,0.438l0.428,0.44l0.425,0.444l0.423,0.446l0.42,0.448l0.417,0.451l0.414,0.453l0.412,0.456l0.409,0.458l0.407,0.461l0.404,0.463l0.401,0.466l0.398,0.468l0.395,0.47l0.393,0.473l0.39,0.476l0.387,0.477l0.384,0.48l0.382,0.483l0.378,0.484l0.376,0.487l0.373,0.49l0.37,0.491l0.367,0.494l0.365,0.496l0.361,0.499l0.358,0.5l0.356,0.503l0.352,0.505l0.35,0.508l0.347,0.509l0.343,0.512l0.341,0.514l0.337,0.516l0.335,0.518l0.331,0.521l0.329,0.522l0.325,0.524l0.323,0.527l0.319,0.529l0.316,0.531l0.313,0.533l0.31,0.534l0.307,0.537l0.303,0.539l0.301,0.541l0.297,0.543l0.294,0.545l0.291,0.547l0.287,0.549l0.285,0.551l0.281,0.552l0.278,0.555l0.274,0.557l0.272,0.558l0.268,0.56l0.265,0.563l0.261,0.564l0.258,0.566l0.255,0.567l0.251,0.57l0.248,0.571l0.245,0.573l0.241,0.575l0.238,0.577l0.235,0.578l0.231,0.581l0.227,0.581l0.224,0.584l0.221,0.585l0.217,0.587l0.214,0.589l0.21,0.591l0.207,0.592l0.203,0.593l0.199,0.596l0.196,0.596l0.193,0.599l0.189,0.6l0.185,0.602l0.182,0.603l0.178,0.605l0.174,0.606l0.171,0.608l0.167,0.609l0.163,0.611l0.16,0.613l0.156,0.613l0.152,0.616l0.149,0.617l0.145,0.618l0.141,0.619l0.138,0.621l0.133,0.623l0.13,0.624l0.126,0.625l0.122,0.627l0.119,0.628l0.114,0.629l0.111,0.63l0.107,0.632l0.103,0.634l0.099,0.634l0.095,0.636l0.091,0.637l0.088,0.638l0.083,0.64l0.08,0.64l0.075,0.642l0.072,0.644l0.067,0.644l0.064,0.645l0.06,0.647l0.055,0.648l0.052,0.649l0.047,0.65l0.043,0.651l0.04,0.653l0.035,0.653l0.031,0.654l0.027,0.656l0.023,0.657l0.019,0.657l0.015,0.659l0.01,0.659l0.006,0.661l0.002,0.662l0,477.743l-0.002,0.662l-0.006,0.66l-0.01,0.66l-0.015,0.659l-0.019,0.657l-0.023,0.657l-0.027,0.655l-0.031,0.655l-0.035,0.653l-0.04,0.653l-0.043,0.651l-0.047,0.65l-0.052,0.649l-0.055,0.648l-0.06,0.646l-0.064,0.646l-0.067,0.644l-0.072,0.643l-0.075,0.642l-0.08,0.641l-0.083,0.64l-0.088,0.638l-0.091,0.637l-0.095,0.636l-0.099,0.634l-0.103,0.633l-0.107,0.632l-0.111,0.631l-0.114,0.629l-0.119,0.628l-0.122,0.627l-0.126,0.625l-0.13,0.624l-0.133,0.622l-0.138,0.621l-0.141,0.62l-0.145,0.618l-0.149,0.617l-0.152,0.615l-0.156,0.614l-0.16,0.612l-0.163,0.611l-0.167,0.61l-0.171,0.608l-0.174,0.606l-0.178,0.605l-0.182,0.603l-0.185,0.602l-0.189,0.6l-0.193,0.598l-0.196,0.597l-0.199,0.596l-0.203,0.593l-0.207,0.592l-0.21,0.591l-0.214,0.588l-0.217,0.587l-0.221,0.586l-0.224,0.583l-0.227,0.582l-0.231,0.58l-0.235,0.579l-0.238,0.577l-0.241,0.574l-0.245,0.574l-0.248,0.571l-0.251,0.569l-0.255,0.568l-0.258,0.566l-0.261,0.564l-0.265,0.562l-0.268,0.561l-0.272,0.558l-0.274,0.557l-0.278,0.554l-0.281,0.553l-0.285,0.551l-0.287,0.549l-0.291,0.547l-0.294,0.545l-0.297,0.542l-0.301,0.541l-0.303,0.539l-0.307,0.537l-0.31,0.535l-0.313,0.533l-0.316,0.531l-0.319,0.529l-0.323,0.526l-0.325,0.525l-0.329,0.522l-0.331,0.521l-0.335,0.518l-0.337,0.516l-0.341,0.514l-0.343,0.511l-0.347,0.51l-0.35,0.507l-0.352,0.505l-0.356,0.503l-0.358,0.501l-0.361,0.498l-0.365,0.497l-0.367,0.493l-0.37,0.492l-0.373,0.489l-0.376,0.487l-0.378,0.485l-0.382,0.482l-0.384,0.48l-0.387,0.478l-0.39,0.475l-0.393,0.473l-0.395,0.471l-0.398,0.468l-0.401,0.465l-0.404,0.464l-0.407,0.46l-0.409,0.459l-0.412,0.456l-0.414,0.453l-0.417,0.451l-0.42,0.448l-0.423,0.446l-0.425,0.443l-0.428,0.441l-0.43,0.438l-0.433,0.436l-0.436,0.433l-0.438,0.43l-0.441,0.428l-0.443,0.425l-0.446,0.423l-0.448,0.42l-0.451,0.417l-0.454,0.414l-0.455,0.412l-0.459,0.41l-0.46,0.406l-0.464,0.404l-0.465,0.401l-0.468,0.398l-0.471,0.395l-0.473,0.393l-0.475,0.39l-0.478,0.387l-0.48,0.385l-0.482,0.381l-0.485,0.379l-0.487,0.375l-0.489,0.373l-0.492,0.37l-0.494,0.368l-0.496,0.364l-0.498,0.361l-0.501,0.359l-0.503,0.355l-0.505,0.353l-0.507,0.349l-0.51,0.347l-0.511,0.343l-0.514,0.341l-0.516,0.338l-0.519,0.334l-0.52,0.332l-0.522,0.328l-0.525,0.325l-0.527,0.323l-0.528,0.319l-0.531,0.316l-0.533,0.313l-0.535,0.31l-0.537,0.307l-0.539,0.303l-0.541,0.301l-0.543,0.297l-0.545,0.294l-0.546,0.291l-0.549,0.288l-0.551,0.284l-0.553,0.281l-0.554,0.278l-0.557,0.275l-0.559,0.271l-0.56,0.268l-0.562,0.265l-0.564,0.261l-0.566,0.258l-0.568,0.255l-0.569,0.251l-0.572,0.249l-0.573,0.244l-0.575,0.241l-0.576,0.238l-0.579,0.235l-0.58,0.231l-0.582,0.227l-0.584,0.224l-0.585,0.221l-0.587,0.217l-0.589,0.214l-0.59,0.21l-0.592,0.207l-0.594,0.203l-0.595,0.199l-0.597,0.196l-0.598,0.193l-0.6,0.189l-0.602,0.185l-0.603,0.182l-0.605,0.178l-0.607,0.174l-0.607,0.171l-0.61,0.167l-0.611,0.163l-0.612,0.16l-0.614,0.156l-0.615,0.153l-0.617,0.148l-0.618,0.145l-0.62,0.141l-0.621,0.138l-0.622,0.133l-0.624,0.13l-0.625,0.126l-0.627,0.122l-0.628,0.119l-0.629,0.114l-0.631,0.111l-0.632,0.107l-0.633,0.103l-0.634,0.099l-0.636,0.095l-0.637,0.092l-0.639,0.087l-0.639,0.083l-0.641,0.08l-0.642,0.075l-0.643,0.072l-0.644,0.068l-0.646,0.063l-0.647,0.06l-0.647,0.055l-0.649,0.052l-0.65,0.047l-0.652,0.044l-0.652,0.039l-0.653,0.035l-0.655,0.031l-0.655,0.027l-0.657,0.023l-0.658,0.019l-0.658,0.015l-0.66,0.01l-0.661,0.006l-0.661,0.003l-866.09,0l-0.662,-0.003l-0.66,-0.006l-0.66,-0.01l-0.659,-0.015l-0.657,-0.019l-0.657,-0.023l-0.655,-0.027l-0.655,-0.031l-0.653,-0.035l-0.653,-0.039l-0.651,-0.044l-0.65,-0.047l-0.649,-0.052l-0.648,-0.055l-0.646,-0.06l-0.646,-0.063l-0.644,-0.068l-0.643,-0.072l-0.642,-0.075l-0.641,-0.08l-0.64,-0.083l-0.638,-0.087l-0.637,-0.092l-0.636,-0.095l-0.634,-0.099l-0.633,-0.103l-0.632,-0.107l-0.631,-0.111l-0.629,-0.114l-0.628,-0.119l-0.627,-0.122l-0.625,-0.126l-0.624,-0.13l-0.622,-0.133l-0.621,-0.138l-0.62,-0.141l-0.618,-0.145l-0.617,-0.148l-0.615,-0.153l-0.614,-0.156l-0.613,-0.16l-0.61,-0.163l-0.61,-0.167l-0.608,-0.171l-0.606,-0.174l-0.605,-0.178l-0.603,-0.182l-0.602,-0.185l-0.6,-0.189l-0.598,-0.193l-0.597,-0.196l-0.596,-0.199l-0.593,-0.203l-0.592,-0.207l-0.591,-0.21l-0.588,-0.214l-0.587,-0.217l-0.586,-0.221l-0.583,-0.224l-0.582,-0.227l-0.58,-0.231l-0.579,-0.235l-0.577,-0.238l-0.574,-0.241l-0.574,-0.244l-0.571,-0.249l-0.57,-0.251l-0.567,-0.255l-0.566,-0.258l-0.564,-0.261l-0.562,-0.265l-0.561,-0.268l-0.558,-0.271l-0.557,-0.275l-0.554,-0.278l-0.553,-0.281l-0.551,-0.284l-0.549,-0.288l-0.547,-0.291l-0.545,-0.294l-0.543,-0.297l-0.54,-0.301l-0.539,-0.303l-0.537,-0.307l-0.535,-0.31l-0.533,-0.313l-0.531,-0.316l-0.529,-0.319l-0.526,-0.323l-0.525,-0.325l-0.522,-0.328l-0.521,-0.332l-0.518,-0.334l-0.516,-0.338l-0.514,-0.341l-0.511,-0.343l-0.51,-0.347l-0.507,-0.349l-0.505,-0.353l-0.503,-0.355l-0.501,-0.359l-0.498,-0.361l-0.497,-0.364l-0.494,-0.368l-0.491,-0.37l-0.489,-0.373l-0.487,-0.375l-0.485,-0.379l-0.482,-0.381l-0.48,-0.385l-0.478,-0.387l-0.475,-0.39l-0.473,-0.393l-0.471,-0.395l-0.468,-0.398l-0.466,-0.401l-0.463,-0.404l-0.461,-0.406l-0.458,-0.41l-0.456,-0.412l-0.453,-0.414l-0.451,-0.417l-0.448,-0.42l-0.446,-0.423l-0.443,-0.425l-0.441,-0.428l-0.438,-0.43l-0.436,-0.433l-0.433,-0.436l-0.43,-0.438l-0.428,-0.441l-0.425,-0.443l-0.423,-0.446l-0.42,-0.448l-0.417,-0.451l-0.415,-0.453l-0.411,-0.456l-0.41,-0.459l-0.406,-0.46l-0.404,-0.464l-0.401,-0.465l-0.398,-0.468l-0.396,-0.471l-0.392,-0.473l-0.39,-0.475l-0.387,-0.478l-0.385,-0.48l-0.381,-0.482l-0.379,-0.485l-0.375,-0.487l-0.373,-0.489l-0.37,-0.492l-0.368,-0.493l-0.364,-0.497l-0.361,-0.498l-0.359,-0.501l-0.355,-0.503l-0.353,-0.505l-0.349,-0.507l-0.347,-0.51l-0.343,-0.511l-0.341,-0.514l-0.338,-0.516l-0.334,-0.518l-0.332,-0.521l-0.328,-0.522l-0.326,-0.525l-0.322,-0.526l-0.319,-0.529l-0.316,-0.531l-0.313,-0.533l-0.31,-0.535l-0.307,-0.537l-0.303,-0.539l-0.301,-0.541l-0.297,-0.542l-0.294,-0.545l-0.291,-0.547l-0.288,-0.549l-0.284,-0.551l-0.281,-0.553l-0.278,-0.554l-0.275,-0.557l-0.271,-0.558l-0.268,-0.561l-0.265,-0.562l-0.261,-0.564l-0.258,-0.566l-0.255,-0.568l-0.252,-0.569l-0.248,-0.571l-0.244,-0.574l-0.242,-0.574l-0.237,-0.577l-0.235,-0.579l-0.231,-0.58l-0.227,-0.582l-0.225,-0.583l-0.22,-0.586l-0.217,-0.587l-0.214,-0.588l-0.21,-0.591l-0.207,-0.592l-0.203,-0.593l-0.2,-0.596l-0.196,-0.597l-0.192,-0.598l-0.189,-0.6l-0.185,-0.602l-0.182,-0.603l-0.178,-0.605l-0.174,-0.606l-0.171,-0.608l-0.167,-0.61l-0.164,-0.611l-0.159,-0.612l-0.156,-0.614l-0.153,-0.615l-0.148,-0.617l-0.145,-0.618l-0.141,-0.62l-0.138,-0.621l-0.133,-0.622l-0.13,-0.624l-0.126,-0.625l-0.122,-0.627l-0.119,-0.628l-0.114,-0.629l-0.111,-0.631l-0.107,-0.632l-0.103,-0.633l-0.099,-0.634l-0.095,-0.636l-0.092,-0.637l-0.087,-0.638l-0.083,-0.64l-0.08,-0.641l-0.075,-0.642l-0.072,-0.643l-0.068,-0.644l-0.063,-0.646l-0.06,-0.646l-0.055,-0.648l-0.052,-0.649l-0.047,-0.65l-0.044,-0.651l-0.039,-0.653l-0.035,-0.653l-0.031,-0.655l-0.027,-0.655l-0.023,-0.657l-0.019,-0.657l-0.015,-0.659l-0.01,-0.66l-0.007,-0.66l-0.002,-0.662l0,-477.743l0.002,-0.662l0.007,-0.661l0.01,-0.659l0.015,-0.659l0.019,-0.657l0.023,-0.657l0.027,-0.656l0.031,-0.654l0.035,-0.653l0.039,-0.653l0.044,-0.651l0.047,-0.65l0.052,-0.649l0.055,-0.648l0.06,-0.647l0.063,-0.645l0.068,-0.644l0.072,-0.644l0.075,-0.642l0.08,-0.64l0.083,-0.64l0.087,-0.638l0.092,-0.637l0.095,-0.636l0.099,-0.634l0.103,-0.634l0.107,-0.632l0.111,-0.63l0.114,-0.629l0.119,-0.628l0.122,-0.627l0.126,-0.625l0.13,-0.624l0.133,-0.623l0.138,-0.621l0.141,-0.619l0.145,-0.618l0.148,-0.617l0.153,-0.616l0.156,-0.613l0.159,-0.613l0.164,-0.611l0.167,-0.609l0.171,-0.608l0.174,-0.606l0.178,-0.605l0.182,-0.603l0.185,-0.602l0.189,-0.6l0.192,-0.599l0.196,-0.596l0.2,-0.596l0.203,-0.593l0.207,-0.592l0.21,-0.591l0.214,-0.589l0.217,-0.587l0.22,-0.585l0.225,-0.584l0.227,-0.581l0.231,-0.581l0.235,-0.578l0.237,-0.577l0.242,-0.575l0.244,-0.573l0.248,-0.571l0.252,-0.57l0.255,-0.567l0.258,-0.566l0.261,-0.564l0.265,-0.563l0.268,-0.56l0.271,-0.558l0.275,-0.557l0.278,-0.555l0.281,-0.552l0.284,-0.551l0.288,-0.549l0.291,-0.547l0.294,-0.545l0.297,-0.543l0.301,-0.541l0.303,-0.539l0.307,-0.537l0.31,-0.534l0.313,-0.533l0.316,-0.531l0.319,-0.529l0.322,-0.527l0.326,-0.524l0.328,-0.522l0.332,-0.521l0.334,-0.518l0.338,-0.516l0.341,-0.514l0.343,-0.512l0.347,-0.509l0.349,-0.508l0.353,-0.505l0.355,-0.503l0.359,-0.5l0.361,-0.499l0.364,-0.496l0.368,-0.494l0.37,-0.491l0.373,-0.49l0.375,-0.487l0.379,-0.484l0.381,-0.483l0.385,-0.48l0.387,-0.477l0.39,-0.476l0.392,-0.473l0.396,-0.47l0.398,-0.468l0.401,-0.466l0.404,-0.463l0.406,-0.461l0.41,-0.458l0.411,-0.456l0.415,-0.453l0.417,-0.451l0.42,-0.448l0.423,-0.446l0.425,-0.444l0.428,-0.44l0.43,-0.438l0.433,-0.436l0.436,-0.433l0.438,-0.431l0.441,-0.427l0.443,-0.426l0.446,-0.422l0.448,-0.42l0.451,-0.417l0.453,-0.415l0.456,-0.412l0.458,-0.409l0.461,-0.406l0.463,-0.404l0.466,-0.401l0.468,-0.398l0.471,-0.396l0.473,-0.392l0.475,-0.39l0.478,-0.387l0.48,-0.385l0.482,-0.381l0.485,-0.379l0.487,-0.376l0.489,-0.373l0.491,-0.37l0.494,-0.367l0.497,-0.364l0.498,-0.361l0.501,-0.359l0.503,-0.355l0.505,-0.353l0.507,-0.349l0.51,-0.347l0.511,-0.344l0.514,-0.34l0.516,-0.338l0.518,-0.334l0.521,-0.332l0.522,-0.328l0.525,-0.326l0.526,-0.322l0.529,-0.319l0.531,-0.316l0.533,-0.313l0.535,-0.31l0.537,-0.307l0.539,-0.304l0.54,-0.3l0.543,-0.297l0.545,-0.294l0.547,-0.291l0.549,-0.288l0.551,-0.284l0.553,-0.281l0.554,-0.278l0.557,-0.275l0.558,-0.271l0.561,-0.268l0.562,-0.265l0.564,-0.261l0.566,-0.259l0.567,-0.254l0.57,-0.252l0.571,-0.248l0.574,-0.244l0.574,-0.242l0.577,-0.238l0.579,-0.234l0.58,-0.231l0.582,-0.228l0.583,-0.224l0.586,-0.22l0.587,-0.218l0.588,-0.213l0.591,-0.21l0.592,-0.207l0.593,-0.203l0.596,-0.2l0.597,-0.196l0.598,-0.192l0.6,-0.189l0.602,-0.185l0.603,-0.182l0.605,-0.178l0.606,-0.174l0.608,-0.171l0.61,-0.167l0.61,-0.164l0.613,-0.159l0.614,-0.157l0.615,-0.152l0.617,-0.149l0.618,-0.144l0.62,-0.142l0.621,-0.137l0.622,-0.134l0.624,-0.129l0.625,-0.126l0.627,-0.123l0.628,-0.118l0.629,-0.115l0.631,-0.11l0.632,-0.107l0.633,-0.103l0.634,-0.099l0.636,-0.096l0.637,-0.091l0.638,-0.087l0.64,-0.084l0.641,-0.079l0.642,-0.076l0.643,-0.071l0.644,-0.068l0.646,-0.063l0.646,-0.06l0.648,-0.056l0.649,-0.051l0.65,-0.048l0.651,-0.043l0.653,-0.039l0.653,-0.035l0.655,-0.032l0.655,-0.027l0.657,-0.023l0.657,-0.018l0.659,-0.015l0.66,-0.01l0.66,-0.007l0.662,-0.002l866.09,0l0.661,0.002Zm-866.672,49.998l-0.423,0.002l-0.345,0.003l-0.343,0.005l-0.339,0.008l-0.341,0.01l-0.342,0.011l-0.338,0.014l-0.338,0.016l-0.337,0.019l-0.337,0.02l-0.335,0.022l-0.334,0.025l-0.334,0.026l-0.332,0.029l-0.333,0.03l-0.331,0.033l-0.331,0.035l-0.33,0.036l-0.325,0.039l-0.329,0.04l-0.327,0.043l-0.325,0.045l-0.328,0.047l-0.324,0.048l-0.322,0.05l-0.323,0.053l-0.321,0.054l-0.321,0.057l-0.323,0.058l-0.32,0.061l-0.317,0.062l-0.317,0.063l-0.317,0.067l-0.316,0.067l-0.317,0.07l-0.315,0.072l-0.315,0.074l-0.314,0.076l-0.31,0.076l-0.31,0.079l-0.313,0.082l-0.309,0.083l-0.31,0.085l-0.309,0.086l-0.306,0.088l-0.31,0.092l-0.305,0.091l-0.304,0.094l-0.304,0.096l-0.305,0.098l-0.303,0.099l-0.303,0.102l-0.301,0.103l-0.3,0.105l-0.3,0.107l-0.298,0.107l-0.299,0.111l-0.299,0.113l-0.294,0.113l-0.296,0.116l-0.296,0.117l-0.293,0.119l-0.294,0.121l-0.292,0.123l-0.29,0.124l-0.292,0.127l-0.291,0.128l-0.288,0.129l-0.288,0.132l-0.288,0.133l-0.287,0.135l-0.285,0.137l-0.283,0.137l-0.284,0.14l-0.284,0.143l-0.282,0.143l-0.281,0.145l-0.279,0.146l-0.279,0.149l-0.28,0.151l-0.277,0.152l-0.276,0.153l-0.275,0.154l-0.274,0.157l-0.275,0.159l-0.273,0.161l-0.271,0.161l-0.27,0.163l-0.27,0.165l-0.269,0.167l-0.268,0.169l-0.267,0.17l-0.265,0.171l-0.264,0.173l-0.264,0.175l-0.262,0.175l-0.261,0.178l-0.261,0.18l-0.259,0.181l-0.26,0.183l-0.255,0.183l-0.256,0.186l-0.256,0.188l-0.254,0.189l-0.252,0.189l-0.25,0.191l-0.252,0.194l-0.251,0.196l-0.246,0.195l-0.246,0.197l-0.247,0.2l-0.244,0.2l-0.244,0.203l-0.243,0.204l-0.24,0.204l-0.24,0.207l-0.238,0.208l-0.238,0.209l-0.236,0.21l-0.234,0.212l-0.234,0.214l-0.232,0.215l-0.23,0.216l-0.232,0.219l-0.228,0.219l-0.226,0.219l-0.225,0.221l-0.226,0.225l-0.223,0.225l-0.22,0.223l-0.221,0.228l-0.221,0.23l-0.217,0.229l-0.216,0.231l-0.215,0.232l-0.212,0.232l-0.212,0.235l-0.212,0.238l-0.21,0.237l-0.207,0.238l-0.207,0.24l-0.205,0.242l-0.203,0.241l-0.201,0.242l-0.202,0.246l-0.2,0.246l-0.197,0.246l-0.197,0.249l-0.194,0.249l-0.192,0.249l-0.192,0.252l-0.192,0.255l-0.187,0.252l-0.188,0.255l-0.186,0.257l-0.183,0.256l-0.183,0.259l-0.181,0.259l-0.179,0.26l-0.178,0.261l-0.177,0.264l-0.175,0.263l-0.172,0.264l-0.172,0.267l-0.169,0.265l-0.168,0.267l-0.167,0.269l-0.165,0.27l-0.165,0.273l-0.161,0.271l-0.159,0.27l-0.159,0.274l-0.157,0.275l-0.155,0.276l-0.153,0.276l-0.152,0.277l-0.151,0.279l-0.148,0.279l-0.147,0.281l-0.145,0.28l-0.143,0.281l-0.142,0.283l-0.141,0.286l-0.138,0.284l-0.136,0.285l-0.135,0.287l-0.133,0.285l-0.131,0.289l-0.13,0.29l-0.128,0.29l-0.126,0.289l-0.125,0.293l-0.123,0.293l-0.12,0.292l-0.12,0.295l-0.117,0.295l-0.116,0.295l-0.114,0.297l-0.111,0.296l-0.111,0.299l-0.109,0.299l-0.106,0.3l-0.105,0.301l-0.103,0.301l-0.101,0.302l-0.1,0.303l-0.098,0.304l-0.096,0.304l-0.094,0.306l-0.092,0.305l-0.09,0.307l-0.088,0.308l-0.087,0.309l-0.085,0.309l-0.083,0.31l-0.081,0.31l-0.079,0.313l-0.078,0.312l-0.075,0.313l-0.074,0.314l-0.071,0.315l-0.07,0.315l-0.068,0.317l-0.066,0.317l-0.064,0.317l-0.062,0.32l-0.061,0.319l-0.058,0.32l-0.056,0.322l-0.055,0.322l-0.052,0.323l-0.051,0.323l-0.048,0.324l-0.047,0.326l-0.045,0.326l-0.042,0.326l-0.041,0.328l-0.039,0.329l-0.036,0.329l-0.035,0.33l-0.033,0.331l-0.03,0.332l-0.029,0.333l-0.026,0.334l-0.024,0.333l-0.023,0.336l-0.02,0.337l-0.018,0.336l-0.016,0.339l-0.014,0.339l-0.012,0.339l-0.01,0.342l-0.008,0.341l-0.005,0.342l-0.003,0.343l-0.002,0.425l0,477.585l0.002,0.424l0.003,0.344l0.005,0.342l0.008,0.341l0.01,0.341l0.012,0.34l0.014,0.339l0.016,0.338l0.018,0.337l0.02,0.337l0.023,0.335l0.024,0.334l0.026,0.334l0.029,0.333l0.03,0.331l0.033,0.332l0.035,0.33l0.036,0.328l0.039,0.329l0.041,0.329l0.042,0.326l0.045,0.326l0.047,0.325l0.048,0.325l0.051,0.323l0.052,0.323l0.055,0.322l0.056,0.321l0.058,0.32l0.061,0.32l0.062,0.32l0.064,0.317l0.066,0.316l0.068,0.317l0.07,0.316l0.071,0.315l0.074,0.314l0.075,0.312l0.078,0.313l0.079,0.313l0.081,0.31l0.083,0.309l0.085,0.309l0.087,0.31l0.088,0.307l0.091,0.308l0.092,0.306l0.093,0.304l0.096,0.304l0.098,0.304l0.1,0.304l0.101,0.303l0.103,0.301l0.104,0.299l0.107,0.299l0.109,0.302l0.111,0.298l0.111,0.296l0.114,0.296l0.116,0.296l0.118,0.296l0.118,0.292l0.121,0.294l0.124,0.294l0.123,0.29l0.126,0.29l0.129,0.291l0.131,0.291l0.13,0.286l0.133,0.287l0.135,0.287l0.136,0.284l0.139,0.286l0.14,0.284l0.142,0.283l0.143,0.282l0.145,0.28l0.147,0.28l0.148,0.279l0.15,0.279l0.154,0.28l0.152,0.275l0.155,0.274l0.157,0.275l0.158,0.274l0.161,0.272l0.16,0.27l0.165,0.273l0.165,0.269l0.167,0.269l0.168,0.268l0.169,0.265l0.171,0.266l0.174,0.265l0.175,0.264l0.175,0.261l0.179,0.263l0.179,0.259l0.18,0.259l0.185,0.261l0.184,0.257l0.184,0.255l0.187,0.254l0.188,0.253l0.191,0.253l0.192,0.253l0.194,0.251l0.193,0.247l0.196,0.248l0.2,0.25l0.198,0.243l0.2,0.244l0.203,0.245l0.205,0.244l0.205,0.241l0.205,0.238l0.206,0.236l0.211,0.239l0.211,0.237l0.212,0.234l0.216,0.236l0.211,0.228l0.217,0.233l0.22,0.231l0.217,0.226l0.221,0.228l0.222,0.226l0.222,0.224l0.225,0.223l0.225,0.221l0.227,0.221l0.23,0.22l0.228,0.217l0.234,0.218l0.232,0.215l0.231,0.211l0.235,0.213l0.235,0.209l0.237,0.21l0.241,0.21l0.24,0.207l0.239,0.203l0.244,0.205l0.243,0.202l0.241,0.197l0.25,0.203l0.248,0.198l0.246,0.195l0.249,0.194l0.25,0.194l0.252,0.192l0.25,0.188l0.256,0.19l0.258,0.189l0.255,0.186l0.254,0.181l0.26,0.184l0.261,0.182l0.256,0.176l0.264,0.18l0.264,0.177l0.26,0.173l0.266,0.174l0.265,0.171l0.267,0.17l0.268,0.168l0.269,0.168l0.268,0.164l0.274,0.164l0.271,0.162l0.269,0.158l0.275,0.16l0.276,0.157l0.275,0.155l0.276,0.153l0.281,0.154l0.276,0.149l0.277,0.147l0.279,0.147l0.281,0.144l0.286,0.146l0.284,0.143l0.282,0.138l0.283,0.138l0.285,0.136l0.287,0.135l0.288,0.134l0.291,0.133l0.287,0.129l0.285,0.125l0.296,0.129l0.292,0.125l0.29,0.121l0.291,0.121l0.294,0.118l0.3,0.12l0.292,0.114l0.299,0.115l0.3,0.113l0.293,0.109l0.3,0.108l0.3,0.107l0.298,0.104l0.305,0.104l0.301,0.101l0.303,0.1l0.305,0.098l0.302,0.095l0.308,0.095l0.306,0.092l0.302,0.089l0.309,0.089l0.311,0.087l0.312,0.086l0.309,0.082l0.306,0.08l0.313,0.08l0.314,0.078l0.317,0.076l0.313,0.073l0.31,0.071l0.316,0.07l0.319,0.068l0.315,0.066l0.322,0.065l0.319,0.062l0.315,0.059l0.323,0.059l0.319,0.056l0.321,0.054l0.323,0.053l0.324,0.051l0.327,0.049l0.323,0.046l0.329,0.045l0.327,0.043l0.324,0.04l0.331,0.039l0.327,0.036l0.329,0.035l0.336,0.033l0.328,0.03l0.334,0.029l0.337,0.026l0.328,0.024l0.335,0.023l0.342,0.02l0.339,0.019l0.332,0.015l0.337,0.014l0.345,0.012l0.341,0.01l0.339,0.007l0.345,0.006l0.343,0.003l0.421,0.002l865.936,0l0.421,-0.002l0.342,-0.003l0.346,-0.006l0.338,-0.007l0.342,-0.01l0.344,-0.012l0.338,-0.014l0.331,-0.015l0.34,-0.019l0.341,-0.02l0.336,-0.023l0.328,-0.024l0.336,-0.026l0.335,-0.029l0.328,-0.03l0.336,-0.033l0.329,-0.035l0.327,-0.036l0.331,-0.039l0.323,-0.04l0.327,-0.043l0.33,-0.045l0.323,-0.047l0.327,-0.048l0.324,-0.051l0.323,-0.053l0.321,-0.054l0.319,-0.056l0.322,-0.059l0.316,-0.059l0.319,-0.062l0.322,-0.065l0.315,-0.066l0.318,-0.068l0.317,-0.07l0.31,-0.071l0.314,-0.073l0.316,-0.077l0.313,-0.077l0.313,-0.08l0.307,-0.08l0.309,-0.083l0.312,-0.085l0.311,-0.087l0.309,-0.089l0.301,-0.089l0.306,-0.092l0.308,-0.095l0.302,-0.095l0.307,-0.098l0.302,-0.1l0.301,-0.1l0.305,-0.105l0.298,-0.104l0.301,-0.107l0.298,-0.108l0.292,-0.108l0.302,-0.114l0.3,-0.115l0.291,-0.114l0.298,-0.119l0.296,-0.12l0.291,-0.12l0.288,-0.121l0.295,-0.126l0.296,-0.128l0.282,-0.125l0.289,-0.129l0.292,-0.133l0.287,-0.133l0.287,-0.136l0.284,-0.135l0.283,-0.138l0.283,-0.14l0.284,-0.142l0.287,-0.146l0.28,-0.144l0.278,-0.146l0.279,-0.148l0.276,-0.149l0.28,-0.154l0.275,-0.152l0.275,-0.156l0.279,-0.159l0.272,-0.158l0.268,-0.157l0.274,-0.163l0.273,-0.165l0.267,-0.163l0.27,-0.168l0.267,-0.167l0.267,-0.171l0.266,-0.171l0.266,-0.174l0.259,-0.172l0.263,-0.177l0.266,-0.181l0.257,-0.177l0.261,-0.182l0.257,-0.182l0.255,-0.182l0.257,-0.186l0.256,-0.189l0.255,-0.189l0.253,-0.191l0.253,-0.192l0.246,-0.19l0.25,-0.195l0.249,-0.197l0.246,-0.197l0.249,-0.202l0.243,-0.199l0.241,-0.201l0.244,-0.204l0.239,-0.204l0.241,-0.207l0.242,-0.211l0.235,-0.208l0.235,-0.209l0.236,-0.213l0.231,-0.212l0.233,-0.216l0.232,-0.217l0.228,-0.216l0.23,-0.22l0.228,-0.222l0.226,-0.222l0.223,-0.222l0.222,-0.222l0.225,-0.23l0.219,-0.225l0.215,-0.224l0.223,-0.236l0.217,-0.232l0.209,-0.225l0.217,-0.237l0.213,-0.236l0.211,-0.237l0.21,-0.238l0.204,-0.234l0.205,-0.238l0.209,-0.246l0.204,-0.242l0.2,-0.242l0.202,-0.246l0.198,-0.244l0.198,-0.247l0.197,-0.25l0.194,-0.247l0.194,-0.251l0.192,-0.253l0.191,-0.254l0.187,-0.252l0.186,-0.253l0.187,-0.257l0.185,-0.259l0.183,-0.258l0.179,-0.257l0.181,-0.262l0.178,-0.262l0.173,-0.258l0.175,-0.265l0.176,-0.268l0.17,-0.264l0.171,-0.269l0.169,-0.268l0.163,-0.263l0.166,-0.271l0.166,-0.275l0.159,-0.266l0.16,-0.274l0.162,-0.278l0.155,-0.273l0.154,-0.273l0.153,-0.275l0.154,-0.28l0.15,-0.28l0.148,-0.277l0.148,-0.282l0.144,-0.28l0.142,-0.278l0.142,-0.285l0.141,-0.285l0.138,-0.285l0.136,-0.284l0.135,-0.287l0.134,-0.289l0.132,-0.288l0.129,-0.289l0.128,-0.29l0.127,-0.291l0.122,-0.287l0.124,-0.294l0.123,-0.298l0.118,-0.292l0.116,-0.292l0.116,-0.297l0.115,-0.298l0.111,-0.295l0.11,-0.297l0.109,-0.301l0.107,-0.301l0.105,-0.301l0.103,-0.3l0.101,-0.302l0.1,-0.304l0.097,-0.3l0.096,-0.307l0.095,-0.307l0.092,-0.305l0.09,-0.308l0.089,-0.309l0.086,-0.305l0.084,-0.309l0.083,-0.309l0.082,-0.314l0.08,-0.313l0.077,-0.311l0.075,-0.311l0.073,-0.313l0.073,-0.32l0.069,-0.312l0.067,-0.313l0.068,-0.325l0.064,-0.316l0.061,-0.315l0.06,-0.32l0.059,-0.323l0.056,-0.319l0.054,-0.32l0.053,-0.328l0.05,-0.32l0.049,-0.327l0.047,-0.328l0.044,-0.319l0.043,-0.327l0.041,-0.33l0.039,-0.33l0.036,-0.327l0.034,-0.329l0.033,-0.336l0.031,-0.332l0.028,-0.33l0.027,-0.332l0.024,-0.338l0.023,-0.335l0.02,-0.333l0.018,-0.339l0.016,-0.335l0.014,-0.343l0.012,-0.34l0.01,-0.337l0.007,-0.343l0.006,-0.345l0.003,-0.343l0.001,-0.421l0,-477.589l-0.001,-0.421l-0.003,-0.343l-0.006,-0.345l-0.007,-0.344l-0.01,-0.336l-0.012,-0.34l-0.014,-0.343l-0.016,-0.336l-0.018,-0.339l-0.02,-0.332l-0.023,-0.335l-0.024,-0.338l-0.027,-0.332l-0.028,-0.33l-0.031,-0.332l-0.033,-0.336l-0.034,-0.329l-0.037,-0.328l-0.038,-0.33l-0.041,-0.329l-0.043,-0.326l-0.044,-0.321l-0.047,-0.328l-0.049,-0.326l-0.049,-0.32l-0.054,-0.327l-0.054,-0.321l-0.056,-0.32l-0.059,-0.322l-0.06,-0.32l-0.061,-0.314l-0.064,-0.317l-0.068,-0.325l-0.067,-0.314l-0.069,-0.311l-0.073,-0.32l-0.073,-0.314l-0.075,-0.311l-0.077,-0.309l-0.08,-0.313l-0.082,-0.316l-0.083,-0.309l-0.084,-0.308l-0.086,-0.306l-0.089,-0.309l-0.09,-0.306l-0.092,-0.305l-0.095,-0.309l-0.097,-0.307l-0.096,-0.3l-0.1,-0.303l-0.101,-0.301l-0.102,-0.3l-0.106,-0.303l-0.107,-0.301l-0.109,-0.299l-0.11,-0.298l-0.111,-0.295l-0.115,-0.299l-0.116,-0.297l-0.116,-0.29l-0.119,-0.294l-0.122,-0.296l-0.123,-0.294l-0.124,-0.29l-0.126,-0.29l-0.127,-0.289l-0.13,-0.288l-0.132,-0.29l-0.134,-0.288l-0.135,-0.287l-0.136,-0.285l-0.137,-0.283l-0.142,-0.287l-0.142,-0.284l-0.142,-0.278l-0.144,-0.28l-0.149,-0.283l-0.147,-0.277l-0.151,-0.28l-0.152,-0.277l-0.153,-0.276l-0.155,-0.275l-0.156,-0.273l-0.161,-0.279l-0.16,-0.271l-0.159,-0.268l-0.166,-0.274l-0.166,-0.272l-0.163,-0.262l-0.169,-0.269l-0.171,-0.268l-0.171,-0.265l-0.174,-0.266l-0.175,-0.265l-0.175,-0.26l-0.177,-0.261l-0.182,-0.263l-0.179,-0.257l-0.181,-0.256l-0.184,-0.257l-0.189,-0.261l-0.187,-0.254l-0.186,-0.251l-0.192,-0.255l-0.192,-0.252l-0.192,-0.249l-0.195,-0.249l-0.198,-0.25l-0.195,-0.244l-0.2,-0.247l-0.204,-0.248l-0.198,-0.239l-0.202,-0.24l-0.208,-0.245l-0.208,-0.241l-0.205,-0.235l-0.209,-0.237l-0.213,-0.238l-0.213,-0.236l-0.213,-0.233l-0.212,-0.23l-0.216,-0.23l-0.221,-0.233l-0.219,-0.228l-0.218,-0.226l-0.223,-0.227l-0.223,-0.224l-0.224,-0.222l-0.227,-0.223l-0.226,-0.22l-0.228,-0.219l-0.231,-0.218l-0.229,-0.215l-0.233,-0.216l-0.235,-0.214l-0.234,-0.212l-0.236,-0.211l-0.236,-0.207l-0.239,-0.209l-0.241,-0.207l-0.24,-0.205l-0.242,-0.203l-0.243,-0.202l-0.246,-0.202l-0.246,-0.2l-0.244,-0.195l-0.249,-0.197l-0.252,-0.196l-0.248,-0.191l-0.251,-0.192l-0.254,-0.191l-0.254,-0.189l-0.255,-0.187l-0.256,-0.186l-0.257,-0.184l-0.257,-0.181l-0.259,-0.181l-0.262,-0.181l-0.263,-0.178l-0.261,-0.176l-0.263,-0.174l-0.264,-0.173l-0.266,-0.172l-0.267,-0.17l-0.267,-0.167l-0.27,-0.168l-0.269,-0.165l-0.269,-0.162l-0.274,-0.163l-0.272,-0.16l-0.272,-0.158l-0.277,-0.158l-0.275,-0.155l-0.275,-0.153l-0.276,-0.151l-0.28,-0.151l-0.281,-0.149l-0.278,-0.146l-0.28,-0.144l-0.283,-0.144l-0.284,-0.143l-0.285,-0.14l-0.283,-0.138l-0.284,-0.136l-0.287,-0.135l-0.287,-0.133l-0.29,-0.132l-0.289,-0.13l-0.288,-0.127l-0.292,-0.127l-0.292,-0.124l-0.291,-0.122l-0.293,-0.121l-0.296,-0.12l-0.294,-0.117l-0.295,-0.116l-0.296,-0.113l-0.299,-0.113l-0.299,-0.111l-0.296,-0.107l-0.301,-0.107l-0.3,-0.105l-0.301,-0.103l-0.303,-0.102l-0.302,-0.099l-0.307,-0.098l-0.304,-0.096l-0.303,-0.094l-0.306,-0.092l-0.309,-0.091l-0.307,-0.088l-0.308,-0.086l-0.309,-0.085l-0.31,-0.083l-0.314,-0.082l-0.31,-0.079l-0.309,-0.076l-0.313,-0.076l-0.316,-0.074l-0.316,-0.072l-0.316,-0.07l-0.316,-0.068l-0.318,-0.066l-0.316,-0.063l-0.317,-0.062l-0.321,-0.061l-0.322,-0.058l-0.321,-0.057l-0.322,-0.054l-0.323,-0.053l-0.321,-0.05l-0.324,-0.048l-0.328,-0.047l-0.325,-0.045l-0.327,-0.043l-0.329,-0.04l-0.325,-0.039l-0.33,-0.036l-0.332,-0.035l-0.33,-0.033l-0.333,-0.03l-0.333,-0.029l-0.334,-0.026l-0.333,-0.025l-0.335,-0.022l-0.337,-0.02l-0.337,-0.019l-0.338,-0.016l-0.338,-0.014l-0.342,-0.011l-0.342,-0.01l-0.338,-0.008l-0.343,-0.005l-0.345,-0.003l-0.423,-0.002l-865.932,0Z" style="fill:#fff;"/><rect x="796.476" y="1297.21" width="61.074" height="132.952" style="fill:#fff;"/><circle cx="1256.18" cy="1185.19" r="21.628" style="fill:#fff;"/><circle cx="1202.64" cy="1185.19" r="21.628" style="fill:#fff;"/><circle cx="1149.11" cy="1185.19" r="21.628" style="fill:#fff;"/><rect x="375.426" y="664.533" width="902.382" height="43.256" style="fill:#fff;"/><path d="M1096.84,1206.82l-721.418,0l0,-481.259l721.418,0l0,481.259Zm-696.418,-456.259l0,431.259l671.418,0l0,-431.259l-671.418,0Z" style="fill:#fff;"/><g><path d="M1732.76,857.252l0.77,0.015l0.767,0.024l0.764,0.034l0.762,0.044l0.76,0.053l0.757,0.062l0.754,0.072l0.751,0.081l0.749,0.091l0.746,0.099l0.743,0.109l0.74,0.118l0.737,0.127l0.733,0.136l0.731,0.145l0.727,0.154l0.725,0.162l0.72,0.172l0.718,0.18l0.714,0.188l0.71,0.198l0.707,0.205l0.703,0.215l0.7,0.222l0.696,0.231l0.692,0.239l0.688,0.248l0.684,0.255l0.681,0.264l0.676,0.271l0.672,0.28l0.668,0.288l0.664,0.295l0.659,0.303l0.655,0.311l0.651,0.319l0.647,0.326l0.641,0.334l0.638,0.341l0.632,0.349l0.628,0.357l0.623,0.363l0.619,0.371l0.613,0.378l0.609,0.385l0.604,0.392l0.598,0.4l0.594,0.406l0.588,0.413l0.583,0.42l0.578,0.427l0.573,0.434l0.567,0.44l0.562,0.447l0.556,0.454l0.55,0.46l0.545,0.466l0.54,0.473l0.533,0.479l0.528,0.486l0.522,0.492l0.516,0.497l0.51,0.504l0.504,0.51l0.498,0.516l0.491,0.522l0.486,0.528l0.479,0.534l0.473,0.539l0.466,0.545l0.46,0.551l0.454,0.556l0.447,0.561l0.44,0.568l0.434,0.572l0.427,0.578l0.42,0.583l0.413,0.588l0.406,0.594l0.4,0.599l0.392,0.603l0.385,0.609l0.378,0.613l0.371,0.619l0.364,0.623l0.356,0.628l0.349,0.633l0.341,0.637l0.334,0.642l0.326,0.646l0.319,0.651l0.311,0.655l0.303,0.659l0.296,0.664l0.287,0.668l0.28,0.672l0.272,0.677l0.263,0.68l0.256,0.684l0.247,0.688l0.239,0.692l0.231,0.696l0.223,0.7l0.214,0.703l0.206,0.707l0.197,0.71l0.188,0.714l0.18,0.718l0.172,0.721l0.162,0.724l0.154,0.727l0.145,0.731l0.136,0.734l0.127,0.737l0.118,0.739l0.109,0.743l0.1,0.746l0.09,0.749l0.081,0.751l0.072,0.755l0.063,0.756l0.053,0.76l0.043,0.762l0.034,0.765l0.024,0.767l0.015,0.769l0.005,0.772l0,511.741l-0.005,0.772l-0.015,0.77l-0.024,0.767l-0.034,0.764l-0.043,0.762l-0.053,0.76l-0.063,0.757l-0.072,0.754l-0.081,0.752l-0.09,0.748l-0.1,0.746l-0.109,0.743l-0.118,0.74l-0.127,0.737l-0.136,0.734l-0.145,0.73l-0.154,0.728l-0.162,0.724l-0.172,0.721l-0.18,0.717l-0.188,0.714l-0.197,0.71l-0.206,0.707l-0.214,0.704l-0.223,0.699l-0.231,0.696l-0.239,0.692l-0.247,0.688l-0.256,0.685l-0.263,0.68l-0.272,0.676l-0.28,0.672l-0.287,0.668l-0.296,0.664l-0.303,0.66l-0.311,0.655l-0.319,0.65l-0.326,0.647l-0.334,0.642l-0.341,0.637l-0.349,0.633l-0.356,0.627l-0.364,0.624l-0.371,0.618l-0.378,0.614l-0.385,0.608l-0.392,0.604l-0.4,0.599l-0.406,0.593l-0.413,0.588l-0.42,0.584l-0.427,0.577l-0.434,0.573l-0.44,0.567l-0.447,0.562l-0.454,0.556l-0.46,0.551l-0.466,0.545l-0.473,0.539l-0.479,0.533l-0.486,0.528l-0.491,0.522l-0.498,0.516l-0.504,0.51l-0.51,0.504l-0.516,0.498l-0.522,0.492l-0.528,0.485l-0.533,0.479l-0.54,0.473l-0.545,0.467l-0.55,0.46l-0.556,0.453l-0.562,0.447l-0.567,0.44l-0.573,0.434l-0.578,0.427l-0.583,0.42l-0.588,0.413l-0.594,0.407l-0.598,0.399l-0.604,0.392l-0.609,0.386l-0.613,0.378l-0.619,0.37l-0.623,0.364l-0.628,0.356l-0.632,0.349l-0.638,0.341l-0.641,0.334l-0.647,0.327l-0.651,0.318l-0.655,0.311l-0.659,0.303l-0.664,0.296l-0.668,0.287l-0.672,0.28l-0.676,0.272l-0.681,0.263l-0.684,0.256l-0.688,0.247l-0.692,0.239l-0.696,0.231l-0.7,0.223l-0.703,0.214l-0.707,0.206l-0.71,0.197l-0.714,0.189l-0.718,0.18l-0.72,0.171l-0.725,0.163l-0.727,0.153l-0.731,0.145l-0.733,0.136l-0.737,0.127l-0.74,0.118l-0.743,0.109l-0.746,0.1l-0.749,0.09l-0.751,0.081l-0.754,0.072l-0.757,0.063l-0.76,0.053l-0.762,0.043l-0.764,0.034l-0.767,0.025l-0.77,0.014l-0.772,0.005l-278.841,0l-0.771,-0.005l-0.77,-0.014l-0.767,-0.025l-0.765,-0.034l-0.762,-0.043l-0.759,-0.053l-0.757,-0.063l-0.754,-0.072l-0.752,-0.081l-0.748,-0.09l-0.746,-0.1l-0.743,-0.109l-0.74,-0.118l-0.737,-0.127l-0.734,-0.136l-0.73,-0.145l-0.728,-0.153l-0.724,-0.163l-0.721,-0.171l-0.717,-0.18l-0.714,-0.189l-0.711,-0.197l-0.707,-0.206l-0.703,-0.214l-0.699,-0.223l-0.696,-0.231l-0.692,-0.239l-0.688,-0.247l-0.685,-0.256l-0.68,-0.263l-0.676,-0.272l-0.672,-0.28l-0.668,-0.287l-0.664,-0.296l-0.66,-0.303l-0.655,-0.311l-0.651,-0.318l-0.646,-0.327l-0.642,-0.334l-0.637,-0.341l-0.633,-0.349l-0.628,-0.356l-0.623,-0.364l-0.618,-0.37l-0.614,-0.378l-0.608,-0.386l-0.604,-0.392l-0.599,-0.399l-0.593,-0.407l-0.589,-0.413l-0.583,-0.42l-0.578,-0.427l-0.572,-0.434l-0.567,-0.44l-0.562,-0.447l-0.556,-0.453l-0.551,-0.46l-0.545,-0.467l-0.539,-0.473l-0.534,-0.479l-0.527,-0.485l-0.522,-0.492l-0.516,-0.498l-0.51,-0.504l-0.504,-0.51l-0.498,-0.516l-0.492,-0.522l-0.485,-0.528l-0.479,-0.533l-0.473,-0.539l-0.467,-0.545l-0.46,-0.551l-0.453,-0.556l-0.447,-0.562l-0.441,-0.567l-0.433,-0.573l-0.427,-0.577l-0.42,-0.584l-0.414,-0.588l-0.406,-0.593l-0.399,-0.599l-0.393,-0.604l-0.385,-0.608l-0.378,-0.614l-0.371,-0.618l-0.363,-0.624l-0.356,-0.627l-0.349,-0.633l-0.342,-0.637l-0.333,-0.642l-0.327,-0.647l-0.318,-0.65l-0.311,-0.655l-0.304,-0.66l-0.295,-0.664l-0.288,-0.668l-0.279,-0.672l-0.272,-0.676l-0.264,-0.68l-0.255,-0.685l-0.248,-0.688l-0.239,-0.692l-0.231,-0.696l-0.222,-0.699l-0.214,-0.704l-0.206,-0.707l-0.197,-0.71l-0.189,-0.714l-0.18,-0.717l-0.171,-0.721l-0.163,-0.724l-0.154,-0.728l-0.144,-0.73l-0.136,-0.734l-0.127,-0.737l-0.118,-0.74l-0.109,-0.743l-0.1,-0.746l-0.09,-0.748l-0.082,-0.752l-0.071,-0.754l-0.063,-0.757l-0.053,-0.76l-0.044,-0.762l-0.033,-0.764l-0.025,-0.767l-0.014,-0.77l-0.005,-0.772l0,-511.741l0.005,-0.772l0.014,-0.769l0.025,-0.767l0.033,-0.765l0.044,-0.762l0.053,-0.76l0.063,-0.756l0.071,-0.755l0.082,-0.751l0.09,-0.749l0.1,-0.746l0.109,-0.743l0.118,-0.739l0.127,-0.737l0.136,-0.734l0.144,-0.731l0.154,-0.727l0.163,-0.724l0.171,-0.721l0.18,-0.718l0.189,-0.714l0.197,-0.71l0.206,-0.707l0.214,-0.703l0.222,-0.7l0.231,-0.696l0.239,-0.692l0.248,-0.688l0.255,-0.684l0.264,-0.68l0.272,-0.677l0.279,-0.672l0.288,-0.668l0.295,-0.664l0.304,-0.659l0.311,-0.655l0.318,-0.651l0.327,-0.646l0.333,-0.642l0.342,-0.637l0.349,-0.633l0.356,-0.628l0.363,-0.623l0.371,-0.619l0.378,-0.613l0.385,-0.609l0.393,-0.603l0.399,-0.599l0.406,-0.594l0.414,-0.588l0.42,-0.583l0.427,-0.578l0.433,-0.572l0.441,-0.568l0.447,-0.561l0.453,-0.556l0.46,-0.551l0.467,-0.545l0.473,-0.539l0.479,-0.534l0.485,-0.528l0.492,-0.522l0.498,-0.516l0.504,-0.51l0.51,-0.504l0.516,-0.497l0.522,-0.492l0.527,-0.486l0.534,-0.479l0.539,-0.473l0.545,-0.466l0.551,-0.46l0.556,-0.454l0.562,-0.447l0.567,-0.44l0.572,-0.434l0.578,-0.427l0.583,-0.42l0.589,-0.413l0.593,-0.406l0.599,-0.4l0.604,-0.392l0.608,-0.385l0.614,-0.378l0.618,-0.371l0.623,-0.363l0.628,-0.357l0.633,-0.349l0.637,-0.341l0.642,-0.334l0.646,-0.326l0.651,-0.319l0.655,-0.311l0.66,-0.303l0.664,-0.295l0.668,-0.288l0.672,-0.28l0.676,-0.271l0.68,-0.264l0.685,-0.255l0.688,-0.248l0.692,-0.239l0.696,-0.231l0.699,-0.222l0.703,-0.215l0.707,-0.205l0.711,-0.198l0.714,-0.188l0.717,-0.18l0.721,-0.172l0.724,-0.162l0.728,-0.154l0.73,-0.145l0.734,-0.136l0.737,-0.127l0.74,-0.118l0.743,-0.109l0.746,-0.099l0.748,-0.091l0.752,-0.081l0.754,-0.072l0.757,-0.062l0.759,-0.053l0.762,-0.044l0.765,-0.034l0.767,-0.024l0.77,-0.015l0.771,-0.005l278.841,0l0.772,0.005Zm-279.534,24.995l-0.533,0.004l-0.452,0.008l-0.452,0.015l-0.448,0.02l-0.445,0.025l-0.444,0.031l-0.442,0.036l-0.439,0.042l-0.437,0.047l-0.436,0.053l-0.434,0.058l-0.43,0.063l-0.43,0.069l-0.427,0.073l-0.426,0.079l-0.422,0.084l-0.421,0.089l-0.42,0.094l-0.416,0.099l-0.415,0.104l-0.413,0.109l-0.41,0.114l-0.409,0.119l-0.407,0.124l-0.404,0.129l-0.403,0.133l-0.4,0.139l-0.397,0.142l-0.397,0.148l-0.394,0.153l-0.39,0.157l-0.389,0.162l-0.388,0.167l-0.384,0.171l-0.383,0.176l-0.379,0.18l-0.377,0.185l-0.377,0.189l-0.371,0.193l-0.37,0.199l-0.369,0.203l-0.364,0.207l-0.363,0.212l-0.359,0.215l-0.357,0.22l-0.355,0.225l-0.351,0.228l-0.348,0.232l-0.347,0.237l-0.343,0.242l-0.34,0.244l-0.337,0.249l-0.334,0.253l-0.331,0.258l-0.328,0.26l-0.326,0.266l-0.321,0.268l-0.318,0.272l-0.316,0.277l-0.313,0.281l-0.308,0.284l-0.304,0.286l-0.301,0.291l-0.299,0.295l-0.295,0.299l-0.291,0.301l-0.288,0.306l-0.283,0.308l-0.28,0.311l-0.277,0.316l-0.272,0.318l-0.269,0.322l-0.265,0.325l-0.261,0.328l-0.257,0.331l-0.253,0.334l-0.249,0.337l-0.245,0.34l-0.242,0.345l-0.237,0.345l-0.231,0.348l-0.229,0.352l-0.225,0.355l-0.219,0.356l-0.217,0.361l-0.211,0.362l-0.206,0.364l-0.203,0.368l-0.199,0.371l-0.194,0.372l-0.19,0.376l-0.184,0.376l-0.18,0.38l-0.176,0.383l-0.17,0.383l-0.168,0.388l-0.162,0.39l-0.156,0.389l-0.153,0.395l-0.149,0.398l-0.142,0.395l-0.138,0.4l-0.134,0.404l-0.128,0.404l-0.125,0.407l-0.118,0.408l-0.114,0.41l-0.109,0.414l-0.105,0.415l-0.098,0.416l-0.095,0.42l-0.089,0.421l-0.083,0.422l-0.079,0.426l-0.074,0.427l-0.068,0.429l-0.063,0.43l-0.058,0.433l-0.053,0.438l-0.047,0.437l-0.042,0.439l-0.037,0.442l-0.031,0.443l-0.025,0.446l-0.02,0.449l-0.014,0.452l-0.009,0.449l-0.003,0.534l0,511.586l0.003,0.533l0.009,0.45l0.014,0.451l0.02,0.45l0.025,0.445l0.031,0.444l0.037,0.441l0.042,0.44l0.047,0.437l0.053,0.437l0.058,0.433l0.063,0.43l0.068,0.43l0.074,0.427l0.079,0.426l0.083,0.421l0.089,0.422l0.095,0.419l0.098,0.416l0.105,0.416l0.109,0.413l0.114,0.41l0.118,0.408l0.124,0.408l0.129,0.403l0.134,0.404l0.138,0.4l0.142,0.396l0.149,0.397l0.153,0.396l0.156,0.389l0.162,0.389l0.168,0.389l0.17,0.383l0.176,0.382l0.18,0.381l0.184,0.375l0.19,0.376l0.194,0.373l0.199,0.371l0.202,0.367l0.207,0.365l0.211,0.362l0.216,0.36l0.22,0.356l0.225,0.356l0.229,0.352l0.231,0.347l0.237,0.346l0.242,0.344l0.245,0.34l0.249,0.337l0.253,0.334l0.257,0.331l0.261,0.328l0.265,0.325l0.268,0.322l0.274,0.319l0.276,0.315l0.279,0.311l0.285,0.309l0.287,0.305l0.291,0.302l0.295,0.298l0.298,0.295l0.303,0.292l0.303,0.286l0.308,0.283l0.314,0.282l0.315,0.276l0.318,0.272l0.322,0.269l0.325,0.265l0.328,0.261l0.329,0.256l0.336,0.254l0.338,0.25l0.339,0.244l0.343,0.241l0.347,0.237l0.348,0.233l0.351,0.228l0.354,0.224l0.358,0.221l0.36,0.215l0.362,0.212l0.365,0.207l0.369,0.203l0.369,0.198l0.371,0.193l0.376,0.189l0.378,0.186l0.379,0.18l0.383,0.176l0.385,0.171l0.387,0.167l0.388,0.161l0.392,0.158l0.393,0.152l0.396,0.148l0.4,0.143l0.398,0.138l0.403,0.134l0.406,0.129l0.404,0.123l0.41,0.119l0.411,0.114l0.412,0.109l0.414,0.104l0.417,0.099l0.42,0.094l0.42,0.089l0.423,0.084l0.426,0.079l0.427,0.074l0.43,0.068l0.431,0.063l0.434,0.058l0.433,0.053l0.437,0.047l0.442,0.042l0.441,0.036l0.443,0.031l0.448,0.026l0.447,0.02l0.45,0.014l0.454,0.009l0.533,0.003l278.681,0l0.534,-0.003l0.454,-0.009l0.449,-0.014l0.448,-0.02l0.447,-0.026l0.443,-0.031l0.442,-0.036l0.441,-0.042l0.437,-0.047l0.434,-0.053l0.433,-0.058l0.432,-0.063l0.43,-0.068l0.427,-0.074l0.425,-0.079l0.424,-0.084l0.42,-0.089l0.419,-0.094l0.418,-0.099l0.414,-0.104l0.412,-0.109l0.412,-0.114l0.409,-0.119l0.403,-0.123l0.406,-0.129l0.404,-0.134l0.398,-0.138l0.4,-0.143l0.395,-0.148l0.394,-0.152l0.393,-0.158l0.387,-0.161l0.387,-0.167l0.384,-0.171l0.383,-0.176l0.38,-0.181l0.378,-0.185l0.375,-0.189l0.372,-0.193l0.369,-0.198l0.367,-0.203l0.367,-0.207l0.362,-0.212l0.36,-0.215l0.358,-0.221l0.354,-0.224l0.35,-0.228l0.349,-0.233l0.347,-0.237l0.343,-0.241l0.338,-0.244l0.339,-0.25l0.335,-0.254l0.33,-0.256l0.328,-0.261l0.325,-0.265l0.321,-0.269l0.32,-0.273l0.314,-0.275l0.313,-0.281l0.308,-0.284l0.304,-0.286l0.304,-0.294l0.297,-0.293l0.293,-0.297l0.292,-0.303l0.288,-0.305l0.284,-0.309l0.281,-0.312l0.275,-0.314l0.273,-0.319l0.269,-0.322l0.264,-0.324l0.262,-0.329l0.257,-0.331l0.253,-0.334l0.249,-0.337l0.245,-0.34l0.242,-0.344l0.236,-0.346l0.233,-0.349l0.228,-0.35l0.224,-0.354l0.22,-0.358l0.216,-0.36l0.211,-0.362l0.208,-0.366l0.202,-0.366l0.197,-0.369l0.196,-0.375l0.189,-0.376l0.184,-0.375l0.181,-0.381l0.176,-0.382l0.171,-0.385l0.166,-0.387l0.161,-0.387l0.158,-0.393l0.153,-0.394l0.148,-0.395l0.143,-0.4l0.138,-0.398l0.133,-0.402l0.13,-0.407l0.123,-0.406l0.119,-0.408l0.114,-0.41l0.108,-0.411l0.105,-0.418l0.1,-0.418l0.093,-0.418l0.089,-0.419l0.084,-0.423l0.079,-0.426l0.073,-0.427l0.069,-0.43l0.063,-0.432l0.058,-0.433l0.053,-0.433l0.047,-0.437l0.042,-0.442l0.036,-0.441l0.031,-0.444l0.026,-0.447l0.02,-0.448l0.014,-0.449l0.009,-0.452l0.003,-0.533l0,-511.586l-0.003,-0.534l-0.009,-0.451l-0.014,-0.45l-0.02,-0.447l-0.026,-0.448l-0.031,-0.443l-0.036,-0.442l-0.042,-0.441l-0.047,-0.437l-0.053,-0.434l-0.058,-0.433l-0.063,-0.432l-0.068,-0.429l-0.074,-0.427l-0.079,-0.426l-0.084,-0.424l-0.089,-0.419l-0.093,-0.418l-0.1,-0.418l-0.105,-0.417l-0.108,-0.412l-0.114,-0.41l-0.119,-0.408l-0.123,-0.405l-0.13,-0.408l-0.133,-0.402l-0.138,-0.398l-0.143,-0.399l-0.148,-0.396l-0.153,-0.393l-0.157,-0.393l-0.162,-0.388l-0.166,-0.386l-0.171,-0.385l-0.176,-0.383l-0.181,-0.38l-0.184,-0.376l-0.19,-0.376l-0.194,-0.374l-0.198,-0.369l-0.202,-0.367l-0.208,-0.365l-0.211,-0.362l-0.216,-0.361l-0.22,-0.358l-0.224,-0.353l-0.228,-0.351l-0.233,-0.349l-0.236,-0.345l-0.242,-0.345l-0.245,-0.34l-0.249,-0.337l-0.253,-0.334l-0.257,-0.331l-0.262,-0.329l-0.264,-0.324l-0.269,-0.322l-0.273,-0.318l-0.275,-0.315l-0.281,-0.312l-0.284,-0.308l-0.288,-0.306l-0.291,-0.302l-0.294,-0.298l-0.298,-0.294l-0.302,-0.292l-0.304,-0.286l-0.31,-0.285l-0.312,-0.28l-0.315,-0.276l-0.319,-0.273l-0.321,-0.268l-0.325,-0.266l-0.328,-0.26l-0.331,-0.258l-0.334,-0.253l-0.337,-0.249l-0.34,-0.244l-0.344,-0.242l-0.346,-0.237l-0.348,-0.232l-0.351,-0.228l-0.356,-0.225l-0.356,-0.22l-0.36,-0.215l-0.362,-0.212l-0.366,-0.207l-0.367,-0.203l-0.37,-0.198l-0.373,-0.194l-0.375,-0.189l-0.377,-0.185l-0.38,-0.181l-0.383,-0.175l-0.383,-0.171l-0.388,-0.167l-0.389,-0.162l-0.391,-0.157l-0.394,-0.153l-0.396,-0.148l-0.397,-0.142l-0.401,-0.139l-0.403,-0.133l-0.404,-0.129l-0.406,-0.124l-0.408,-0.119l-0.411,-0.114l-0.413,-0.109l-0.415,-0.104l-0.417,-0.099l-0.419,-0.094l-0.421,-0.089l-0.423,-0.084l-0.425,-0.079l-0.427,-0.073l-0.43,-0.069l-0.431,-0.063l-0.433,-0.058l-0.437,-0.053l-0.437,-0.047l-0.438,-0.042l-0.443,-0.036l-0.444,-0.031l-0.444,-0.025l-0.449,-0.02l-0.451,-0.015l-0.452,-0.008l-0.534,-0.004l-278.683,0Z" style="fill:#fff;"/><path d="M1743.21,1385l-301.286,0l0,-467.998l301.286,0l0,467.998Zm-288.786,-455.498l0,442.998l276.286,0l0,-442.998l-276.286,0Z" style="fill:#fff;"/><path d="M1743.21,1375.9l0,61.455l-301.286,0l0,-61.455l301.286,0Zm-150.643,9.099c11.937,0 21.628,9.691 21.628,21.628c0,11.937 -9.691,21.629 -21.628,21.629c-11.937,0 -21.628,-9.692 -21.628,-21.629c0,-11.937 9.691,-21.628 21.628,-21.628Z" style="fill:#fff;"/></g></g></g><ellipse cx="827.013" cy="1436.5" rx="207.116" ry="51.988" style="fill:#fff;"/></g></svg>