<?xml version="1.0" encoding="UTF-8" standalone="no"?><!DOCTYPE svg PUBLIC "-//W3C//DTD SVG 1.1//EN" "http://www.w3.org/Graphics/SVG/1.1/DTD/svg11.dtd"><svg width="100%" height="100%" viewBox="0 0 2084 2084" version="1.1" xmlns="http://www.w3.org/2000/svg" xmlns:xlink="http://www.w3.org/1999/xlink" xml:space="preserve" xmlns:serif="http://www.serif.com/" style="fill-rule:evenodd;clip-rule:evenodd;stroke-linejoin:round;stroke-miterlimit:1.41421;"><g id="Layer1"><path d="M1075.7,758.908c0,-37.531 -3.625,-63.759 -10.875,-78.686c-7.25,-14.927 -19.192,-22.391 -35.825,-22.391c-16.633,0 -31.773,8.53 -45.42,25.589l0,117.71c0,11.088 -0.427,19.405 -1.28,24.949c-0.853,5.544 -4.051,11.728 -9.596,18.552c-5.544,6.824 -14.287,12.368 -26.228,16.633l-133.063,51.178l-17.913,-17.912c23.03,-25.589 34.545,-52.884 34.545,-81.885l0,-145.857c0,-5.118 44.995,-26.016 134.983,-62.694c89.988,-36.677 142.872,-55.016 158.651,-55.016c15.78,0 37.318,18.979 64.613,56.936c27.295,37.957 40.942,67.171 40.942,87.642l0,175.285c0,45.207 -24.949,113.018 -74.848,203.432c-49.898,90.415 -99.584,169.314 -149.056,236.699l-74.208,102.356c94.679,-1.706 149.696,-2.559 165.049,-2.559c46.913,0 75.488,-14.074 85.723,-42.222c9.383,0.853 16.207,1.28 20.472,1.28l7.676,0l71.65,103.635c-2.559,4.265 -6.184,10.023 -10.876,17.273c-4.691,7.25 -15.353,16.633 -31.986,28.148c-16.633,11.515 -34.758,17.272 -54.377,17.272l-359.525,0c-17.913,-46.06 -26.869,-85.723 -26.869,-118.989c0,-11.088 23.03,-51.391 69.091,-120.908c46.06,-69.517 92.333,-142.445 138.82,-218.786c46.487,-76.34 69.73,-128.158 69.73,-155.453l0,-161.211Z" style="fill-rule:nonzero;"/></g></svg>