<?xml version="1.0" encoding="UTF-8" standalone="no"?><!DOCTYPE svg PUBLIC "-//W3C//DTD SVG 1.1//EN" "http://www.w3.org/Graphics/SVG/1.1/DTD/svg11.dtd"><svg width="100%" height="100%" viewBox="0 0 2084 2084" version="1.1" xmlns="http://www.w3.org/2000/svg" xmlns:xlink="http://www.w3.org/1999/xlink" xml:space="preserve" xmlns:serif="http://www.serif.com/" style="fill-rule:evenodd;clip-rule:evenodd;stroke-linecap:round;stroke-linejoin:round;stroke-miterlimit:1.5;"><g id="Layer2"><g><g><path d="M1281.15,564.635l0.722,0.007l0.722,0.011l0.72,0.016l0.719,0.021l0.717,0.025l0.717,0.03l0.716,0.034l0.714,0.038l0.713,0.043l0.712,0.048l0.711,0.051l0.709,0.057l0.709,0.061l0.707,0.065l0.705,0.069l0.705,0.074l0.703,0.078l0.702,0.083l0.7,0.087l0.699,0.091l0.698,0.096l0.697,0.099l0.695,0.104l0.693,0.109l0.693,0.112l0.69,0.117l0.69,0.121l0.688,0.126l0.686,0.129l0.685,0.134l0.684,0.137l0.682,0.142l0.68,0.146l0.679,0.151l0.678,0.154l0.676,0.158l0.674,0.163l0.673,0.166l0.671,0.171l0.669,0.175l0.668,0.178l0.666,0.183l0.665,0.187l0.663,0.19l0.661,0.195l0.659,0.199l0.658,0.202l0.656,0.207l0.654,0.21l0.653,0.214l0.651,0.218l0.649,0.222l0.647,0.226l0.646,0.23l0.643,0.234l0.642,0.237l0.64,0.241l0.638,0.245l0.636,0.249l0.634,0.253l0.633,0.256l0.63,0.26l0.629,0.264l0.626,0.267l0.625,0.272l0.623,0.274l0.62,0.279l0.619,0.282l0.617,0.286l0.614,0.289l0.613,0.293l0.61,0.297l0.609,0.3l0.606,0.304l0.604,0.308l0.603,0.31l0.6,0.315l0.597,0.318l0.596,0.321l0.594,0.325l0.591,0.329l0.589,0.332l0.587,0.335l0.585,0.339l0.583,0.342l0.58,0.346l0.578,0.349l0.576,0.352l0.573,0.356l0.571,0.359l0.569,0.362l0.567,0.366l0.564,0.369l0.562,0.372l0.559,0.376l0.557,0.379l0.555,0.382l0.552,0.385l0.55,0.389l0.547,0.392l0.545,0.395l0.543,0.398l0.54,0.402l0.537,0.404l0.535,0.408l0.532,0.411l0.53,0.414l0.528,0.417l0.524,0.42l0.523,0.423l0.519,0.426l0.517,0.43l0.515,0.432l0.511,0.435l0.509,0.439l0.507,0.441l0.504,0.445l0.501,0.447l0.498,0.45l0.496,0.453l0.492,0.456l0.491,0.46l0.487,0.461l0.485,0.465l0.481,0.468l0.479,0.471l0.477,0.473l0.473,0.476l0.471,0.479l0.467,0.482l0.465,0.485l0.462,0.487l0.459,0.49l0.456,0.493l0.454,0.496l0.45,0.498l0.447,0.501l0.445,0.504l0.441,0.506l0.438,0.509l0.436,0.512l0.432,0.515l0.429,0.517l0.427,0.519l0.423,0.522l0.42,0.525l0.417,0.527l0.414,0.53l0.411,0.533l0.408,0.535l0.404,0.537l0.402,0.54l0.398,0.542l0.395,0.545l0.392,0.548l0.388,0.55l0.386,0.552l0.382,0.554l0.379,0.557l0.375,0.56l0.373,0.562l0.369,0.564l0.366,0.566l0.362,0.569l0.359,0.571l0.356,0.574l0.352,0.576l0.349,0.578l0.346,0.58l0.342,0.582l0.339,0.585l0.335,0.587l0.332,0.589l0.328,0.592l0.325,0.593l0.322,0.596l0.318,0.598l0.314,0.6l0.311,0.602l0.308,0.605l0.303,0.606l0.301,0.608l0.296,0.611l0.293,0.612l0.29,0.615l0.286,0.617l0.282,0.618l0.278,0.621l0.275,0.623l0.271,0.624l0.268,0.627l0.264,0.628l0.26,0.631l0.256,0.632l0.252,0.635l0.249,0.636l0.245,0.638l0.242,0.64l0.237,0.642l0.234,0.643l0.229,0.646l0.226,0.647l0.222,0.649l0.218,0.651l0.215,0.652l0.21,0.655l0.207,0.656l0.202,0.657l0.199,0.66l0.194,0.661l0.191,0.663l0.187,0.665l0.182,0.666l0.179,0.668l0.175,0.669l0.17,0.671l0.167,0.673l0.162,0.674l0.159,0.676l0.154,0.677l0.15,0.679l0.146,0.681l0.142,0.682l0.138,0.683l0.134,0.685l0.129,0.687l0.125,0.688l0.121,0.689l0.117,0.691l0.113,0.692l0.108,0.694l0.104,0.695l0.1,0.697l0.096,0.697l0.091,0.7l0.087,0.7l0.082,0.702l0.079,0.703l0.074,0.704l0.069,0.706l0.065,0.707l0.061,0.708l0.056,0.71l0.052,0.711l0.048,0.712l0.043,0.713l0.038,0.714l0.034,0.716l0.03,0.716l0.025,0.718l0.02,0.719l0.016,0.72l0.012,0.721l0.007,0.722l0.002,0.724l0,522.293l-0.002,0.723l-0.007,0.722l-0.012,0.722l-0.016,0.72l-0.02,0.719l-0.025,0.717l-0.03,0.717l-0.034,0.716l-0.038,0.714l-0.043,0.713l-0.048,0.712l-0.052,0.711l-0.056,0.709l-0.061,0.708l-0.065,0.707l-0.069,0.706l-0.074,0.705l-0.079,0.703l-0.082,0.702l-0.087,0.7l-0.091,0.699l-0.096,0.698l-0.1,0.696l-0.104,0.696l-0.108,0.693l-0.113,0.692l-0.117,0.691l-0.121,0.69l-0.125,0.688l-0.129,0.686l-0.134,0.685l-0.138,0.684l-0.142,0.682l-0.146,0.68l-0.15,0.679l-0.154,0.678l-0.159,0.675l-0.162,0.675l-0.167,0.672l-0.17,0.672l-0.175,0.669l-0.179,0.668l-0.182,0.666l-0.187,0.665l-0.191,0.663l-0.194,0.661l-0.199,0.659l-0.202,0.658l-0.207,0.656l-0.21,0.654l-0.215,0.653l-0.218,0.651l-0.222,0.649l-0.226,0.647l-0.229,0.645l-0.234,0.644l-0.237,0.642l-0.242,0.64l-0.245,0.638l-0.249,0.636l-0.252,0.634l-0.256,0.633l-0.26,0.63l-0.264,0.629l-0.268,0.626l-0.271,0.625l-0.275,0.622l-0.278,0.621l-0.282,0.619l-0.286,0.616l-0.29,0.615l-0.293,0.613l-0.296,0.61l-0.301,0.609l-0.303,0.606l-0.308,0.604l-0.311,0.602l-0.314,0.601l-0.318,0.597l-0.322,0.596l-0.325,0.594l-0.328,0.591l-0.332,0.589l-0.335,0.587l-0.339,0.585l-0.342,0.583l-0.346,0.58l-0.349,0.578l-0.352,0.576l-0.356,0.573l-0.359,0.571l-0.362,0.569l-0.366,0.567l-0.369,0.564l-0.373,0.562l-0.375,0.559l-0.379,0.557l-0.382,0.555l-0.386,0.552l-0.388,0.55l-0.392,0.547l-0.395,0.545l-0.398,0.543l-0.402,0.54l-0.404,0.537l-0.408,0.535l-0.411,0.532l-0.414,0.53l-0.417,0.528l-0.42,0.524l-0.423,0.522l-0.427,0.52l-0.429,0.517l-0.432,0.514l-0.436,0.512l-0.438,0.509l-0.441,0.507l-0.445,0.503l-0.447,0.501l-0.45,0.499l-0.454,0.495l-0.456,0.493l-0.459,0.491l-0.462,0.487l-0.465,0.485l-0.467,0.481l-0.471,0.479l-0.473,0.477l-0.477,0.473l-0.479,0.471l-0.481,0.467l-0.485,0.465l-0.487,0.462l-0.491,0.459l-0.492,0.456l-0.496,0.453l-0.498,0.451l-0.501,0.447l-0.504,0.444l-0.507,0.442l-0.509,0.438l-0.511,0.436l-0.515,0.432l-0.517,0.429l-0.519,0.427l-0.523,0.423l-0.524,0.42l-0.528,0.417l-0.53,0.414l-0.532,0.411l-0.535,0.407l-0.537,0.405l-0.54,0.401l-0.543,0.399l-0.545,0.395l-0.547,0.392l-0.55,0.388l-0.552,0.386l-0.555,0.382l-0.557,0.379l-0.559,0.375l-0.562,0.373l-0.564,0.369l-0.567,0.365l-0.569,0.363l-0.571,0.359l-0.573,0.356l-0.576,0.352l-0.578,0.349l-0.58,0.346l-0.583,0.342l-0.585,0.339l-0.587,0.335l-0.589,0.332l-0.591,0.328l-0.594,0.325l-0.596,0.322l-0.597,0.318l-0.6,0.314l-0.603,0.311l-0.604,0.307l-0.606,0.304l-0.609,0.3l-0.61,0.297l-0.613,0.293l-0.614,0.29l-0.617,0.285l-0.619,0.283l-0.62,0.278l-0.623,0.275l-0.625,0.271l-0.626,0.268l-0.629,0.263l-0.63,0.261l-0.633,0.256l-0.634,0.252l-0.636,0.249l-0.638,0.245l-0.64,0.241l-0.642,0.238l-0.643,0.233l-0.646,0.23l-0.647,0.226l-0.649,0.222l-0.651,0.218l-0.653,0.215l-0.654,0.21l-0.656,0.206l-0.658,0.203l-0.659,0.199l-0.661,0.194l-0.663,0.191l-0.665,0.187l-0.666,0.182l-0.668,0.179l-0.669,0.175l-0.671,0.17l-0.673,0.167l-0.674,0.162l-0.676,0.159l-0.678,0.154l-0.679,0.15l-0.68,0.146l-0.682,0.142l-0.684,0.138l-0.685,0.134l-0.686,0.129l-0.688,0.125l-0.69,0.121l-0.69,0.117l-0.693,0.113l-0.693,0.108l-0.695,0.104l-0.697,0.1l-0.698,0.096l-0.699,0.091l-0.7,0.087l-0.702,0.082l-0.703,0.079l-0.705,0.073l-0.705,0.07l-0.707,0.065l-0.709,0.061l-0.709,0.056l-0.711,0.052l-0.712,0.047l-0.713,0.043l-0.714,0.039l-0.716,0.034l-0.717,0.03l-0.717,0.025l-0.719,0.02l-0.72,0.016l-0.722,0.012l-0.722,0.006l-0.723,0.003l-946.853,0l-0.724,-0.003l-0.722,-0.006l-0.721,-0.012l-0.72,-0.016l-0.719,-0.02l-0.718,-0.025l-0.716,-0.03l-0.716,-0.034l-0.714,-0.039l-0.713,-0.043l-0.712,-0.047l-0.711,-0.052l-0.71,-0.056l-0.708,-0.061l-0.707,-0.065l-0.706,-0.07l-0.704,-0.073l-0.703,-0.079l-0.702,-0.082l-0.7,-0.087l-0.7,-0.091l-0.697,-0.096l-0.697,-0.1l-0.695,-0.104l-0.694,-0.108l-0.692,-0.113l-0.691,-0.117l-0.689,-0.121l-0.688,-0.125l-0.687,-0.129l-0.685,-0.134l-0.683,-0.138l-0.682,-0.142l-0.681,-0.146l-0.679,-0.15l-0.677,-0.154l-0.676,-0.159l-0.674,-0.162l-0.673,-0.167l-0.671,-0.17l-0.669,-0.175l-0.668,-0.179l-0.666,-0.182l-0.665,-0.187l-0.663,-0.191l-0.661,-0.194l-0.66,-0.199l-0.657,-0.203l-0.656,-0.206l-0.655,-0.21l-0.652,-0.215l-0.651,-0.218l-0.649,-0.222l-0.647,-0.226l-0.646,-0.23l-0.643,-0.233l-0.642,-0.238l-0.64,-0.241l-0.638,-0.245l-0.636,-0.249l-0.635,-0.252l-0.632,-0.256l-0.631,-0.261l-0.628,-0.263l-0.627,-0.268l-0.624,-0.271l-0.623,-0.275l-0.621,-0.278l-0.618,-0.283l-0.617,-0.285l-0.615,-0.29l-0.612,-0.293l-0.611,-0.297l-0.608,-0.3l-0.606,-0.304l-0.605,-0.307l-0.602,-0.311l-0.6,-0.314l-0.598,-0.318l-0.596,-0.322l-0.593,-0.325l-0.592,-0.328l-0.589,-0.332l-0.587,-0.335l-0.585,-0.339l-0.582,-0.342l-0.58,-0.346l-0.578,-0.349l-0.576,-0.352l-0.574,-0.356l-0.571,-0.359l-0.569,-0.363l-0.566,-0.365l-0.564,-0.369l-0.562,-0.373l-0.56,-0.375l-0.557,-0.379l-0.554,-0.382l-0.552,-0.386l-0.55,-0.388l-0.548,-0.392l-0.545,-0.395l-0.542,-0.399l-0.54,-0.401l-0.537,-0.405l-0.535,-0.407l-0.533,-0.411l-0.53,-0.414l-0.527,-0.417l-0.525,-0.42l-0.522,-0.423l-0.52,-0.427l-0.516,-0.429l-0.515,-0.432l-0.512,-0.436l-0.509,-0.438l-0.506,-0.442l-0.504,-0.444l-0.501,-0.447l-0.498,-0.451l-0.496,-0.453l-0.493,-0.456l-0.49,-0.459l-0.487,-0.462l-0.485,-0.465l-0.482,-0.467l-0.479,-0.471l-0.476,-0.473l-0.473,-0.477l-0.471,-0.479l-0.468,-0.481l-0.465,-0.485l-0.461,-0.487l-0.46,-0.491l-0.456,-0.493l-0.453,-0.495l-0.45,-0.499l-0.448,-0.501l-0.444,-0.503l-0.441,-0.507l-0.439,-0.509l-0.435,-0.512l-0.432,-0.514l-0.43,-0.517l-0.426,-0.52l-0.423,-0.522l-0.42,-0.524l-0.417,-0.528l-0.414,-0.53l-0.411,-0.532l-0.408,-0.535l-0.404,-0.537l-0.402,-0.54l-0.398,-0.543l-0.395,-0.545l-0.392,-0.547l-0.389,-0.55l-0.385,-0.552l-0.382,-0.555l-0.379,-0.557l-0.376,-0.559l-0.372,-0.562l-0.369,-0.564l-0.366,-0.567l-0.362,-0.569l-0.359,-0.571l-0.356,-0.573l-0.353,-0.576l-0.349,-0.578l-0.345,-0.58l-0.342,-0.583l-0.339,-0.585l-0.335,-0.587l-0.332,-0.589l-0.329,-0.591l-0.325,-0.594l-0.321,-0.596l-0.318,-0.597l-0.315,-0.601l-0.31,-0.602l-0.308,-0.604l-0.304,-0.606l-0.3,-0.609l-0.297,-0.61l-0.293,-0.613l-0.289,-0.615l-0.286,-0.616l-0.282,-0.619l-0.279,-0.621l-0.274,-0.622l-0.272,-0.625l-0.267,-0.626l-0.264,-0.629l-0.26,-0.63l-0.256,-0.633l-0.253,-0.634l-0.249,-0.636l-0.245,-0.638l-0.241,-0.64l-0.237,-0.642l-0.234,-0.644l-0.23,-0.645l-0.226,-0.647l-0.222,-0.649l-0.218,-0.651l-0.214,-0.653l-0.21,-0.654l-0.207,-0.656l-0.202,-0.658l-0.199,-0.659l-0.195,-0.661l-0.19,-0.663l-0.187,-0.665l-0.183,-0.666l-0.178,-0.668l-0.175,-0.669l-0.171,-0.672l-0.166,-0.672l-0.163,-0.675l-0.158,-0.675l-0.154,-0.678l-0.151,-0.679l-0.146,-0.68l-0.142,-0.682l-0.137,-0.684l-0.134,-0.685l-0.13,-0.686l-0.125,-0.688l-0.121,-0.69l-0.117,-0.691l-0.112,-0.692l-0.109,-0.693l-0.104,-0.696l-0.1,-0.696l-0.095,-0.698l-0.091,-0.699l-0.087,-0.7l-0.083,-0.702l-0.078,-0.703l-0.074,-0.705l-0.069,-0.706l-0.066,-0.707l-0.06,-0.708l-0.057,-0.709l-0.051,-0.711l-0.048,-0.712l-0.043,-0.713l-0.038,-0.714l-0.034,-0.716l-0.03,-0.717l-0.025,-0.717l-0.021,-0.719l-0.016,-0.72l-0.011,-0.722l-0.007,-0.722l-0.002,-0.723l0,-522.293l0.002,-0.724l0.007,-0.722l0.011,-0.721l0.016,-0.72l0.021,-0.719l0.025,-0.718l0.03,-0.716l0.034,-0.716l0.038,-0.714l0.043,-0.713l0.048,-0.712l0.051,-0.711l0.057,-0.71l0.06,-0.708l0.066,-0.707l0.069,-0.706l0.074,-0.704l0.078,-0.703l0.083,-0.702l0.087,-0.7l0.091,-0.7l0.095,-0.697l0.1,-0.697l0.104,-0.695l0.109,-0.694l0.112,-0.692l0.117,-0.691l0.121,-0.689l0.125,-0.688l0.13,-0.687l0.134,-0.685l0.137,-0.683l0.142,-0.682l0.146,-0.681l0.151,-0.679l0.154,-0.677l0.158,-0.676l0.163,-0.674l0.166,-0.673l0.171,-0.671l0.175,-0.669l0.178,-0.668l0.183,-0.666l0.187,-0.665l0.19,-0.663l0.195,-0.661l0.199,-0.66l0.202,-0.657l0.207,-0.656l0.21,-0.655l0.214,-0.652l0.218,-0.651l0.222,-0.649l0.226,-0.647l0.23,-0.646l0.234,-0.643l0.237,-0.642l0.241,-0.64l0.245,-0.638l0.249,-0.636l0.253,-0.635l0.256,-0.632l0.26,-0.631l0.264,-0.628l0.267,-0.627l0.272,-0.624l0.274,-0.623l0.279,-0.621l0.282,-0.618l0.286,-0.617l0.289,-0.615l0.293,-0.612l0.297,-0.611l0.3,-0.608l0.304,-0.606l0.308,-0.605l0.31,-0.602l0.315,-0.6l0.318,-0.598l0.321,-0.596l0.325,-0.593l0.329,-0.592l0.332,-0.589l0.335,-0.587l0.339,-0.585l0.342,-0.582l0.345,-0.58l0.349,-0.578l0.353,-0.576l0.356,-0.574l0.359,-0.571l0.362,-0.569l0.366,-0.566l0.369,-0.564l0.372,-0.562l0.376,-0.56l0.379,-0.557l0.382,-0.554l0.385,-0.552l0.389,-0.55l0.392,-0.548l0.395,-0.545l0.398,-0.542l0.402,-0.54l0.404,-0.537l0.408,-0.535l0.411,-0.533l0.414,-0.53l0.417,-0.527l0.42,-0.525l0.423,-0.522l0.426,-0.519l0.43,-0.517l0.432,-0.515l0.435,-0.512l0.439,-0.509l0.441,-0.506l0.444,-0.504l0.448,-0.501l0.45,-0.498l0.453,-0.496l0.456,-0.493l0.46,-0.49l0.461,-0.487l0.465,-0.485l0.468,-0.482l0.471,-0.479l0.473,-0.476l0.476,-0.473l0.479,-0.471l0.482,-0.468l0.485,-0.465l0.487,-0.461l0.49,-0.46l0.493,-0.456l0.496,-0.453l0.498,-0.45l0.501,-0.447l0.504,-0.445l0.506,-0.441l0.509,-0.439l0.512,-0.435l0.515,-0.432l0.516,-0.43l0.52,-0.426l0.522,-0.423l0.525,-0.42l0.527,-0.417l0.53,-0.414l0.533,-0.411l0.535,-0.408l0.537,-0.404l0.54,-0.402l0.542,-0.398l0.545,-0.395l0.548,-0.392l0.55,-0.389l0.552,-0.385l0.554,-0.382l0.557,-0.379l0.56,-0.376l0.562,-0.372l0.564,-0.369l0.566,-0.366l0.569,-0.362l0.571,-0.359l0.574,-0.356l0.576,-0.352l0.578,-0.349l0.58,-0.346l0.582,-0.342l0.585,-0.339l0.587,-0.335l0.589,-0.332l0.592,-0.329l0.593,-0.325l0.596,-0.321l0.598,-0.318l0.6,-0.315l0.602,-0.31l0.605,-0.308l0.606,-0.304l0.608,-0.3l0.611,-0.297l0.612,-0.293l0.615,-0.289l0.617,-0.286l0.618,-0.282l0.621,-0.279l0.623,-0.274l0.624,-0.272l0.627,-0.267l0.628,-0.264l0.631,-0.26l0.632,-0.256l0.635,-0.253l0.636,-0.249l0.638,-0.245l0.64,-0.241l0.642,-0.237l0.643,-0.234l0.646,-0.23l0.647,-0.226l0.649,-0.222l0.651,-0.218l0.652,-0.214l0.655,-0.21l0.656,-0.207l0.657,-0.202l0.66,-0.199l0.661,-0.195l0.663,-0.19l0.665,-0.187l0.666,-0.183l0.668,-0.178l0.669,-0.175l0.671,-0.171l0.673,-0.166l0.674,-0.163l0.676,-0.158l0.677,-0.154l0.679,-0.151l0.681,-0.146l0.682,-0.142l0.683,-0.137l0.685,-0.134l0.687,-0.129l0.688,-0.126l0.689,-0.121l0.691,-0.117l0.692,-0.112l0.694,-0.109l0.695,-0.104l0.697,-0.099l0.697,-0.096l0.7,-0.091l0.7,-0.087l0.702,-0.083l0.703,-0.078l0.704,-0.074l0.706,-0.069l0.707,-0.065l0.708,-0.061l0.71,-0.057l0.711,-0.051l0.712,-0.048l0.713,-0.043l0.714,-0.038l0.716,-0.034l0.716,-0.03l0.718,-0.025l0.719,-0.021l0.72,-0.016l0.721,-0.011l0.722,-0.007l0.724,-0.002l946.853,0l0.723,0.002Zm-947.497,49.998l-0.486,0.001l-0.404,0.004l-0.405,0.007l-0.403,0.009l-0.401,0.011l-0.401,0.014l-0.402,0.017l-0.399,0.019l-0.396,0.021l-0.397,0.024l-0.398,0.026l-0.394,0.029l-0.395,0.031l-0.394,0.034l-0.39,0.036l-0.391,0.039l-0.393,0.041l-0.389,0.043l-0.387,0.046l-0.387,0.048l-0.388,0.05l-0.386,0.053l-0.382,0.055l-0.384,0.058l-0.384,0.06l-0.381,0.061l-0.383,0.065l-0.379,0.067l-0.376,0.068l-0.382,0.072l-0.376,0.074l-0.375,0.075l-0.376,0.079l-0.375,0.08l-0.374,0.083l-0.371,0.084l-0.373,0.088l-0.371,0.089l-0.367,0.091l-0.369,0.094l-0.37,0.096l-0.368,0.099l-0.364,0.1l-0.364,0.102l-0.367,0.105l-0.363,0.107l-0.363,0.109l-0.361,0.112l-0.359,0.113l-0.36,0.115l-0.359,0.118l-0.358,0.12l-0.356,0.122l-0.357,0.125l-0.354,0.126l-0.353,0.128l-0.353,0.13l-0.352,0.133l-0.352,0.135l-0.351,0.138l-0.349,0.139l-0.345,0.14l-0.348,0.143l-0.348,0.146l-0.342,0.146l-0.344,0.149l-0.344,0.152l-0.343,0.154l-0.342,0.156l-0.338,0.157l-0.339,0.159l-0.339,0.162l-0.335,0.163l-0.336,0.166l-0.335,0.168l-0.333,0.169l-0.333,0.172l-0.331,0.174l-0.329,0.175l-0.329,0.177l-0.331,0.181l-0.325,0.181l-0.325,0.183l-0.325,0.186l-0.324,0.187l-0.322,0.19l-0.321,0.191l-0.321,0.194l-0.319,0.195l-0.317,0.196l-0.315,0.198l-0.315,0.201l-0.316,0.204l-0.312,0.204l-0.311,0.206l-0.31,0.208l-0.309,0.21l-0.308,0.213l-0.307,0.214l-0.304,0.215l-0.304,0.217l-0.302,0.22l-0.302,0.221l-0.301,0.224l-0.297,0.224l-0.297,0.226l-0.296,0.228l-0.295,0.231l-0.293,0.231l-0.292,0.234l-0.29,0.236l-0.288,0.236l-0.288,0.239l-0.287,0.241l-0.283,0.241l-0.283,0.244l-0.283,0.247l-0.28,0.246l-0.279,0.249l-0.277,0.25l-0.276,0.253l-0.274,0.253l-0.272,0.255l-0.272,0.258l-0.27,0.259l-0.268,0.261l-0.267,0.261l-0.265,0.264l-0.263,0.265l-0.261,0.265l-0.261,0.27l-0.26,0.27l-0.255,0.27l-0.256,0.272l-0.255,0.276l-0.252,0.276l-0.25,0.277l-0.248,0.277l-0.247,0.281l-0.247,0.283l-0.243,0.282l-0.243,0.285l-0.24,0.286l-0.239,0.287l-0.238,0.29l-0.234,0.29l-0.234,0.291l-0.231,0.293l-0.23,0.294l-0.229,0.297l-0.227,0.297l-0.224,0.298l-0.222,0.299l-0.221,0.302l-0.22,0.303l-0.218,0.304l-0.216,0.305l-0.214,0.307l-0.211,0.306l-0.21,0.309l-0.209,0.312l-0.206,0.31l-0.205,0.313l-0.203,0.315l-0.2,0.314l-0.199,0.316l-0.197,0.317l-0.195,0.32l-0.193,0.319l-0.191,0.321l-0.19,0.323l-0.187,0.323l-0.186,0.325l-0.183,0.326l-0.181,0.327l-0.18,0.328l-0.177,0.328l-0.176,0.331l-0.174,0.331l-0.171,0.333l-0.17,0.334l-0.168,0.334l-0.165,0.335l-0.164,0.337l-0.162,0.338l-0.159,0.339l-0.158,0.339l-0.155,0.342l-0.154,0.341l-0.151,0.342l-0.149,0.345l-0.148,0.346l-0.145,0.346l-0.143,0.346l-0.141,0.348l-0.139,0.35l-0.137,0.349l-0.134,0.351l-0.133,0.352l-0.131,0.353l-0.128,0.354l-0.127,0.355l-0.124,0.356l-0.122,0.357l-0.12,0.357l-0.117,0.359l-0.116,0.36l-0.114,0.36l-0.111,0.361l-0.109,0.362l-0.107,0.363l-0.105,0.365l-0.102,0.365l-0.101,0.366l-0.098,0.368l-0.096,0.368l-0.094,0.369l-0.091,0.369l-0.089,0.37l-0.088,0.372l-0.085,0.374l-0.082,0.373l-0.08,0.373l-0.079,0.376l-0.075,0.376l-0.074,0.377l-0.071,0.379l-0.069,0.379l-0.067,0.38l-0.064,0.38l-0.063,0.382l-0.059,0.383l-0.058,0.384l-0.055,0.384l-0.053,0.385l-0.05,0.387l-0.048,0.388l-0.046,0.388l-0.043,0.389l-0.041,0.391l-0.039,0.391l-0.036,0.392l-0.034,0.393l-0.031,0.394l-0.029,0.395l-0.026,0.396l-0.024,0.398l-0.021,0.398l-0.019,0.399l-0.017,0.4l-0.014,0.401l-0.011,0.402l-0.009,0.403l-0.007,0.405l-0.004,0.405l-0.001,0.485l0,522.135l0.001,0.485l0.004,0.405l0.007,0.404l0.009,0.403l0.011,0.403l0.014,0.401l0.017,0.399l0.019,0.4l0.021,0.398l0.024,0.397l0.026,0.396l0.029,0.395l0.031,0.394l0.034,0.393l0.036,0.392l0.039,0.392l0.041,0.391l0.043,0.388l0.046,0.388l0.048,0.389l0.05,0.386l0.053,0.385l0.055,0.385l0.058,0.384l0.059,0.382l0.063,0.382l0.064,0.381l0.067,0.38l0.069,0.379l0.071,0.378l0.073,0.377l0.076,0.376l0.079,0.377l0.08,0.373l0.082,0.373l0.085,0.374l0.088,0.371l0.089,0.37l0.091,0.37l0.094,0.369l0.096,0.368l0.098,0.367l0.101,0.366l0.102,0.366l0.105,0.364l0.107,0.363l0.109,0.363l0.112,0.361l0.113,0.36l0.115,0.359l0.119,0.361l0.12,0.357l0.121,0.356l0.124,0.356l0.127,0.354l0.128,0.353l0.131,0.355l0.132,0.351l0.135,0.351l0.137,0.351l0.139,0.347l0.141,0.349l0.143,0.347l0.146,0.347l0.147,0.344l0.149,0.344l0.151,0.343l0.153,0.341l0.156,0.342l0.159,0.342l0.158,0.336l0.161,0.337l0.164,0.337l0.166,0.337l0.168,0.335l0.17,0.333l0.172,0.333l0.173,0.331l0.175,0.329l0.178,0.33l0.18,0.328l0.181,0.327l0.183,0.325l0.186,0.324l0.187,0.324l0.19,0.323l0.192,0.322l0.192,0.319l0.195,0.319l0.196,0.316l0.199,0.317l0.202,0.316l0.202,0.314l0.205,0.312l0.207,0.312l0.209,0.311l0.208,0.306l0.211,0.308l0.216,0.308l0.216,0.306l0.217,0.303l0.219,0.302l0.221,0.301l0.223,0.3l0.225,0.299l0.226,0.297l0.228,0.295l0.232,0.297l0.23,0.291l0.233,0.291l0.236,0.292l0.237,0.288l0.239,0.288l0.241,0.287l0.242,0.283l0.243,0.283l0.246,0.282l0.247,0.28l0.25,0.28l0.25,0.277l0.251,0.275l0.254,0.274l0.257,0.274l0.255,0.27l0.261,0.271l0.26,0.268l0.26,0.265l0.264,0.266l0.267,0.265l0.266,0.261l0.266,0.258l0.27,0.259l0.272,0.258l0.275,0.258l0.274,0.253l0.273,0.25l0.278,0.251l0.28,0.25l0.28,0.247l0.279,0.243l0.283,0.244l0.289,0.246l0.285,0.24l0.284,0.236l0.292,0.239l0.291,0.236l0.29,0.232l0.293,0.231l0.294,0.23l0.296,0.229l0.298,0.227l0.3,0.226l0.3,0.222l0.298,0.22l0.303,0.219l0.305,0.218l0.304,0.215l0.309,0.216l0.305,0.21l0.31,0.211l0.312,0.209l0.307,0.204l0.316,0.207l0.314,0.203l0.314,0.199l0.318,0.2l0.316,0.197l0.316,0.193l0.321,0.194l0.323,0.192l0.324,0.19l0.323,0.188l0.322,0.183l0.327,0.184l0.325,0.181l0.327,0.179l0.333,0.18l0.331,0.176l0.329,0.172l0.331,0.171l0.337,0.171l0.335,0.168l0.332,0.165l0.339,0.164l0.337,0.161l0.339,0.16l0.34,0.157l0.338,0.155l0.345,0.154l0.342,0.151l0.344,0.15l0.346,0.147l0.344,0.145l0.35,0.144l0.347,0.141l0.349,0.139l0.351,0.137l0.35,0.134l0.35,0.133l0.353,0.13l0.355,0.129l0.356,0.127l0.355,0.123l0.356,0.122l0.358,0.12l0.359,0.118l0.358,0.115l0.359,0.113l0.365,0.113l0.363,0.109l0.361,0.106l0.362,0.105l0.369,0.103l0.366,0.1l0.368,0.099l0.37,0.096l0.363,0.093l0.369,0.091l0.376,0.091l0.372,0.087l0.371,0.084l0.372,0.083l0.375,0.08l0.371,0.077l0.378,0.077l0.38,0.074l0.377,0.071l0.379,0.069l0.382,0.067l0.383,0.065l0.38,0.061l0.378,0.059l0.384,0.058l0.391,0.056l0.383,0.052l0.386,0.051l0.387,0.048l0.385,0.045l0.391,0.044l0.393,0.041l0.391,0.038l0.392,0.036l0.395,0.034l0.392,0.031l0.394,0.029l0.395,0.027l0.398,0.024l0.4,0.021l0.397,0.019l0.399,0.016l0.402,0.014l0.403,0.012l0.405,0.009l0.403,0.006l0.404,0.004l0.486,0.002l946.695,0l0.485,-0.002l0.405,-0.004l0.403,-0.006l0.405,-0.009l0.403,-0.012l0.401,-0.014l0.399,-0.016l0.398,-0.019l0.399,-0.021l0.398,-0.024l0.396,-0.027l0.394,-0.029l0.392,-0.031l0.394,-0.034l0.393,-0.036l0.391,-0.038l0.393,-0.041l0.391,-0.044l0.385,-0.045l0.387,-0.048l0.385,-0.051l0.384,-0.052l0.39,-0.056l0.385,-0.058l0.377,-0.059l0.381,-0.061l0.383,-0.065l0.381,-0.067l0.379,-0.069l0.378,-0.071l0.38,-0.075l0.377,-0.076l0.372,-0.077l0.375,-0.08l0.372,-0.083l0.37,-0.084l0.373,-0.087l0.375,-0.091l0.37,-0.091l0.363,-0.093l0.369,-0.096l0.369,-0.099l0.366,-0.1l0.368,-0.103l0.363,-0.105l0.36,-0.106l0.363,-0.109l0.366,-0.113l0.36,-0.113l0.357,-0.115l0.359,-0.118l0.358,-0.12l0.356,-0.122l0.354,-0.123l0.356,-0.127l0.355,-0.129l0.354,-0.131l0.351,-0.132l0.348,-0.134l0.351,-0.137l0.349,-0.139l0.349,-0.142l0.35,-0.144l0.342,-0.143l0.347,-0.148l0.344,-0.15l0.341,-0.15l0.346,-0.156l0.338,-0.154l0.34,-0.157l0.339,-0.16l0.337,-0.161l0.339,-0.165l0.332,-0.164l0.335,-0.168l0.335,-0.17l0.332,-0.171l0.33,-0.173l0.33,-0.176l0.335,-0.181l0.328,-0.179l0.322,-0.179l0.328,-0.185l0.321,-0.183l0.323,-0.187l0.325,-0.191l0.322,-0.192l0.322,-0.194l0.315,-0.193l0.318,-0.197l0.317,-0.199l0.314,-0.201l0.314,-0.202l0.316,-0.207l0.308,-0.204l0.31,-0.209l0.311,-0.211l0.305,-0.21l0.309,-0.216l0.303,-0.214l0.306,-0.219l0.303,-0.219l0.297,-0.219l0.302,-0.225l0.299,-0.225l0.298,-0.226l0.295,-0.228l0.295,-0.23l0.292,-0.232l0.292,-0.233l0.29,-0.235l0.289,-0.238l0.287,-0.238l0.286,-0.24l0.287,-0.245l0.283,-0.243l0.279,-0.243l0.28,-0.247l0.279,-0.249l0.28,-0.253l0.275,-0.252l0.272,-0.251l0.273,-0.256l0.276,-0.261l0.269,-0.259l0.263,-0.255l0.267,-0.262l0.267,-0.266l0.266,-0.267l0.259,-0.264l0.261,-0.268l0.26,-0.272l0.255,-0.269l0.255,-0.273l0.254,-0.274l0.252,-0.275l0.251,-0.278l0.251,-0.281l0.247,-0.28l0.245,-0.281l0.244,-0.284l0.24,-0.282l0.24,-0.285l0.241,-0.29l0.237,-0.289l0.235,-0.29l0.233,-0.292l0.232,-0.293l0.232,-0.297l0.226,-0.293l0.224,-0.294l0.227,-0.301l0.225,-0.303l0.221,-0.301l0.217,-0.299l0.218,-0.304l0.217,-0.308l0.213,-0.305l0.212,-0.308l0.209,-0.307l0.208,-0.309l0.208,-0.315l0.205,-0.312l0.2,-0.311l0.203,-0.318l0.2,-0.319l0.196,-0.315l0.195,-0.318l0.193,-0.321l0.191,-0.32l0.189,-0.322l0.187,-0.323l0.186,-0.324l0.183,-0.327l0.183,-0.329l0.18,-0.328l0.175,-0.325l0.176,-0.331l0.176,-0.335l0.171,-0.332l0.168,-0.329l0.167,-0.335l0.167,-0.338l0.165,-0.339l0.16,-0.336l0.159,-0.336l0.158,-0.342l0.157,-0.344l0.152,-0.339l0.151,-0.342l0.15,-0.344l0.147,-0.346l0.147,-0.348l0.141,-0.342l0.142,-0.352l0.139,-0.348l0.136,-0.348l0.136,-0.354l0.131,-0.349l0.131,-0.355l0.129,-0.354l0.127,-0.356l0.124,-0.354l0.121,-0.355l0.12,-0.358l0.119,-0.362l0.116,-0.361l0.113,-0.358l0.111,-0.361l0.108,-0.36l0.107,-0.364l0.106,-0.366l0.102,-0.366l0.101,-0.366l0.097,-0.363l0.096,-0.37l0.095,-0.372l0.091,-0.369l0.089,-0.367l0.087,-0.372l0.085,-0.375l0.083,-0.373l0.08,-0.373l0.078,-0.377l0.077,-0.378l0.073,-0.375l0.071,-0.378l0.069,-0.379l0.067,-0.381l0.064,-0.379l0.062,-0.38l0.06,-0.386l0.058,-0.384l0.055,-0.383l0.053,-0.388l0.05,-0.385l0.047,-0.383l0.047,-0.394l0.043,-0.391l0.041,-0.384l0.038,-0.395l0.037,-0.393l0.033,-0.39l0.031,-0.396l0.029,-0.394l0.027,-0.396l0.024,-0.398l0.021,-0.399l0.019,-0.402l0.017,-0.395l0.014,-0.401l0.011,-0.407l0.009,-0.397l0.006,-0.407l0.004,-0.409l0.002,-0.481l0,-522.135l-0.002,-0.481l-0.004,-0.409l-0.006,-0.408l-0.009,-0.396l-0.011,-0.407l-0.014,-0.402l-0.017,-0.394l-0.019,-0.402l-0.021,-0.4l-0.024,-0.398l-0.027,-0.395l-0.029,-0.394l-0.031,-0.397l-0.033,-0.39l-0.037,-0.392l-0.038,-0.395l-0.041,-0.384l-0.043,-0.392l-0.047,-0.394l-0.047,-0.382l-0.05,-0.386l-0.054,-0.388l-0.054,-0.381l-0.058,-0.385l-0.06,-0.387l-0.062,-0.38l-0.064,-0.378l-0.067,-0.382l-0.069,-0.379l-0.071,-0.377l-0.073,-0.375l-0.077,-0.378l-0.078,-0.377l-0.08,-0.373l-0.083,-0.373l-0.085,-0.375l-0.087,-0.373l-0.089,-0.367l-0.091,-0.369l-0.095,-0.371l-0.096,-0.37l-0.097,-0.364l-0.101,-0.367l-0.102,-0.364l-0.106,-0.366l-0.107,-0.365l-0.108,-0.359l-0.111,-0.361l-0.113,-0.359l-0.117,-0.362l-0.118,-0.36l-0.12,-0.357l-0.121,-0.356l-0.124,-0.355l-0.127,-0.356l-0.129,-0.355l-0.13,-0.352l-0.133,-0.352l-0.135,-0.353l-0.136,-0.346l-0.139,-0.35l-0.143,-0.352l-0.14,-0.341l-0.146,-0.348l-0.148,-0.346l-0.15,-0.345l-0.151,-0.342l-0.152,-0.34l-0.157,-0.342l-0.157,-0.34l-0.16,-0.339l-0.161,-0.337l-0.164,-0.339l-0.166,-0.336l-0.168,-0.334l-0.168,-0.331l-0.171,-0.33l-0.176,-0.337l-0.176,-0.331l-0.175,-0.325l-0.18,-0.327l-0.182,-0.329l-0.184,-0.327l-0.187,-0.326l-0.186,-0.322l-0.189,-0.322l-0.19,-0.319l-0.194,-0.32l-0.195,-0.32l-0.197,-0.317l-0.2,-0.318l-0.201,-0.315l-0.201,-0.312l-0.205,-0.313l-0.207,-0.313l-0.208,-0.31l-0.211,-0.31l-0.211,-0.306l-0.212,-0.303l-0.217,-0.308l-0.219,-0.305l-0.218,-0.301l-0.221,-0.301l-0.224,-0.301l-0.226,-0.3l-0.225,-0.296l-0.227,-0.294l-0.23,-0.294l-0.233,-0.295l-0.234,-0.293l-0.233,-0.287l-0.238,-0.29l-0.241,-0.29l-0.239,-0.285l-0.241,-0.283l-0.244,-0.283l-0.246,-0.283l-0.247,-0.28l-0.249,-0.279l-0.251,-0.277l-0.253,-0.277l-0.255,-0.275l-0.254,-0.271l-0.255,-0.269l-0.259,-0.271l-0.262,-0.269l-0.26,-0.265l-0.265,-0.267l-0.266,-0.264l-0.266,-0.262l-0.266,-0.258l-0.27,-0.258l-0.276,-0.262l-0.27,-0.253l-0.272,-0.251l-0.278,-0.255l-0.278,-0.251l-0.277,-0.248l-0.28,-0.247l-0.283,-0.246l-0.284,-0.244l-0.281,-0.24l-0.288,-0.242l-0.291,-0.241l-0.285,-0.234l-0.29,-0.235l-0.293,-0.235l-0.292,-0.231l-0.296,-0.231l-0.296,-0.228l-0.296,-0.226l-0.296,-0.223l-0.303,-0.225l-0.301,-0.221l-0.303,-0.22l-0.304,-0.218l-0.303,-0.213l-0.307,-0.215l-0.308,-0.212l-0.31,-0.211l-0.309,-0.207l-0.311,-0.207l-0.312,-0.204l-0.316,-0.204l-0.316,-0.201l-0.314,-0.197l-0.317,-0.197l-0.319,-0.195l-0.322,-0.195l-0.32,-0.19l-0.323,-0.19l-0.323,-0.187l-0.325,-0.186l-0.326,-0.184l-0.322,-0.179l-0.332,-0.181l-0.331,-0.178l-0.328,-0.175l-0.332,-0.174l-0.334,-0.172l-0.331,-0.169l-0.335,-0.168l-0.336,-0.165l-0.335,-0.164l-0.339,-0.162l-0.339,-0.159l-0.338,-0.157l-0.342,-0.156l-0.344,-0.154l-0.343,-0.152l-0.344,-0.149l-0.343,-0.146l-0.346,-0.145l-0.348,-0.144l-0.347,-0.141l-0.349,-0.139l-0.351,-0.137l-0.35,-0.134l-0.353,-0.133l-0.355,-0.132l-0.352,-0.127l-0.353,-0.126l-0.357,-0.125l-0.356,-0.122l-0.358,-0.12l-0.359,-0.118l-0.359,-0.115l-0.36,-0.113l-0.362,-0.112l-0.363,-0.109l-0.362,-0.107l-0.367,-0.105l-0.364,-0.102l-0.364,-0.1l-0.368,-0.099l-0.37,-0.096l-0.37,-0.094l-0.367,-0.091l-0.371,-0.089l-0.373,-0.088l-0.37,-0.084l-0.374,-0.083l-0.375,-0.08l-0.376,-0.079l-0.375,-0.075l-0.376,-0.074l-0.382,-0.072l-0.377,-0.068l-0.378,-0.067l-0.384,-0.065l-0.38,-0.061l-0.385,-0.061l-0.384,-0.057l-0.381,-0.055l-0.386,-0.053l-0.388,-0.05l-0.387,-0.048l-0.387,-0.046l-0.389,-0.043l-0.393,-0.041l-0.391,-0.039l-0.39,-0.036l-0.395,-0.034l-0.394,-0.031l-0.394,-0.029l-0.398,-0.026l-0.398,-0.024l-0.395,-0.021l-0.4,-0.019l-0.401,-0.017l-0.401,-0.014l-0.401,-0.011l-0.403,-0.009l-0.405,-0.007l-0.405,-0.004l-0.485,-0.001l-946.695,0Z" style="fill:#fff;"/><rect x="633.599" y="1307.44" width="346.794" height="80.919" style="fill:#fff;stroke:#fff;stroke-width:4.17px;"/><path d="M1070.64,1385.03l-551.115,0l-297.871,153.951l1118.15,2.632l-269.162,-156.583Z" style="fill:#fff;stroke:#fff;stroke-width:4.17px;"/><circle cx="1276.18" cy="1210.03" r="23.645" style="fill:#fff;"/><circle cx="1217.65" cy="1210.03" r="23.645" style="fill:#fff;"/><circle cx="1159.13" cy="1210.03" r="23.645" style="fill:#fff;"/><rect x="313.299" y="640.824" width="986.529" height="47.29" style="fill:#fff;"/><path d="M1101.99,1233.68l-788.691,0l0,-526.137l788.691,0l0,526.137Zm-763.691,-501.137l0,476.137l738.691,0l0,-476.137l-738.691,0Z" style="fill:#fff;"/><g><path d="M1797.2,851.514l0.841,0.016l0.838,0.026l0.836,0.038l0.834,0.047l0.83,0.058l0.827,0.068l0.825,0.079l0.822,0.089l0.818,0.099l0.815,0.109l0.813,0.119l0.808,0.129l0.806,0.139l0.802,0.148l0.799,0.159l0.795,0.168l0.792,0.177l0.788,0.188l0.784,0.197l0.781,0.206l0.777,0.215l0.772,0.225l0.769,0.234l0.765,0.244l0.761,0.252l0.756,0.262l0.753,0.27l0.748,0.279l0.744,0.289l0.739,0.297l0.735,0.305l0.73,0.315l0.726,0.323l0.721,0.331l0.716,0.34l0.711,0.349l0.707,0.356l0.702,0.365l0.696,0.374l0.692,0.381l0.686,0.389l0.682,0.398l0.676,0.405l0.671,0.413l0.665,0.422l0.66,0.428l0.654,0.437l0.649,0.444l0.643,0.452l0.638,0.459l0.632,0.467l0.626,0.474l0.62,0.482l0.614,0.488l0.608,0.496l0.602,0.503l0.596,0.51l0.589,0.517l0.583,0.524l0.577,0.531l0.571,0.537l0.564,0.544l0.558,0.551l0.551,0.558l0.544,0.564l0.537,0.571l0.531,0.577l0.524,0.583l0.517,0.589l0.51,0.596l0.503,0.602l0.496,0.608l0.488,0.614l0.482,0.62l0.474,0.626l0.467,0.632l0.459,0.638l0.452,0.643l0.444,0.649l0.436,0.654l0.429,0.66l0.421,0.665l0.414,0.671l0.405,0.676l0.398,0.681l0.389,0.687l0.381,0.692l0.374,0.696l0.365,0.702l0.356,0.707l0.349,0.711l0.34,0.716l0.331,0.721l0.323,0.726l0.315,0.73l0.305,0.735l0.297,0.739l0.289,0.744l0.279,0.748l0.27,0.753l0.262,0.756l0.252,0.761l0.244,0.765l0.234,0.769l0.225,0.772l0.215,0.777l0.206,0.781l0.197,0.784l0.188,0.788l0.177,0.792l0.168,0.795l0.159,0.799l0.148,0.802l0.139,0.806l0.129,0.808l0.119,0.813l0.109,0.815l0.099,0.818l0.089,0.822l0.079,0.825l0.068,0.827l0.058,0.83l0.047,0.834l0.038,0.835l0.026,0.839l0.016,0.841l0.005,0.844l0,559.462l-0.005,0.843l-0.016,0.842l-0.026,0.838l-0.038,0.836l-0.047,0.833l-0.058,0.831l-0.068,0.827l-0.079,0.825l-0.089,0.821l-0.099,0.819l-0.109,0.815l-0.119,0.812l-0.129,0.809l-0.139,0.806l-0.148,0.802l-0.159,0.799l-0.168,0.795l-0.177,0.792l-0.188,0.788l-0.197,0.784l-0.206,0.78l-0.215,0.777l-0.225,0.773l-0.234,0.769l-0.244,0.765l-0.252,0.76l-0.262,0.757l-0.27,0.752l-0.279,0.748l-0.289,0.744l-0.297,0.739l-0.305,0.735l-0.315,0.731l-0.323,0.725l-0.331,0.721l-0.34,0.717l-0.349,0.711l-0.356,0.707l-0.365,0.701l-0.374,0.697l-0.381,0.692l-0.389,0.686l-0.398,0.681l-0.405,0.677l-0.414,0.67l-0.421,0.666l-0.429,0.66l-0.436,0.654l-0.444,0.649l-0.452,0.643l-0.459,0.638l-0.467,0.631l-0.474,0.626l-0.482,0.62l-0.488,0.614l-0.496,0.608l-0.503,0.602l-0.51,0.596l-0.517,0.59l-0.524,0.583l-0.531,0.577l-0.537,0.571l-0.544,0.564l-0.551,0.557l-0.558,0.551l-0.564,0.545l-0.571,0.537l-0.577,0.531l-0.583,0.524l-0.589,0.517l-0.596,0.51l-0.602,0.503l-0.608,0.495l-0.614,0.489l-0.62,0.481l-0.626,0.475l-0.632,0.466l-0.638,0.46l-0.643,0.451l-0.649,0.445l-0.654,0.436l-0.66,0.429l-0.665,0.421l-0.671,0.413l-0.676,0.406l-0.682,0.397l-0.686,0.39l-0.692,0.381l-0.696,0.373l-0.702,0.365l-0.707,0.357l-0.711,0.348l-0.716,0.34l-0.721,0.332l-0.726,0.323l-0.73,0.314l-0.735,0.306l-0.739,0.297l-0.744,0.288l-0.748,0.28l-0.753,0.27l-0.756,0.262l-0.761,0.252l-0.765,0.243l-0.769,0.234l-0.772,0.225l-0.777,0.216l-0.781,0.206l-0.784,0.197l-0.788,0.187l-0.792,0.178l-0.795,0.168l-0.799,0.158l-0.802,0.149l-0.806,0.139l-0.808,0.129l-0.813,0.119l-0.815,0.109l-0.818,0.099l-0.822,0.089l-0.825,0.078l-0.827,0.069l-0.83,0.057l-0.834,0.048l-0.836,0.037l-0.838,0.027l-0.841,0.016l-0.844,0.005l-304.843,0l-0.844,-0.005l-0.841,-0.016l-0.839,-0.027l-0.835,-0.037l-0.834,-0.048l-0.83,-0.057l-0.827,-0.069l-0.825,-0.078l-0.822,-0.089l-0.818,-0.099l-0.815,-0.109l-0.813,-0.119l-0.809,-0.129l-0.805,-0.139l-0.802,-0.149l-0.799,-0.158l-0.795,-0.168l-0.792,-0.178l-0.788,-0.187l-0.784,-0.197l-0.781,-0.206l-0.777,-0.216l-0.772,-0.225l-0.769,-0.234l-0.765,-0.243l-0.761,-0.252l-0.756,-0.262l-0.753,-0.27l-0.748,-0.28l-0.744,-0.288l-0.739,-0.297l-0.735,-0.306l-0.73,-0.314l-0.726,-0.323l-0.721,-0.332l-0.716,-0.34l-0.711,-0.348l-0.707,-0.357l-0.702,-0.365l-0.696,-0.373l-0.692,-0.381l-0.687,-0.39l-0.681,-0.397l-0.676,-0.406l-0.671,-0.413l-0.665,-0.421l-0.66,-0.429l-0.654,-0.436l-0.649,-0.445l-0.644,-0.451l-0.637,-0.46l-0.632,-0.466l-0.626,-0.475l-0.62,-0.481l-0.614,-0.489l-0.608,-0.495l-0.602,-0.503l-0.596,-0.51l-0.589,-0.517l-0.584,-0.524l-0.576,-0.531l-0.571,-0.537l-0.564,-0.545l-0.558,-0.551l-0.551,-0.557l-0.544,-0.564l-0.537,-0.571l-0.531,-0.577l-0.524,-0.583l-0.517,-0.59l-0.51,-0.596l-0.503,-0.602l-0.496,-0.608l-0.489,-0.614l-0.481,-0.62l-0.474,-0.626l-0.467,-0.631l-0.459,-0.638l-0.452,-0.643l-0.444,-0.649l-0.437,-0.654l-0.428,-0.66l-0.422,-0.666l-0.413,-0.67l-0.405,-0.677l-0.398,-0.681l-0.389,-0.686l-0.382,-0.692l-0.373,-0.697l-0.365,-0.701l-0.356,-0.707l-0.349,-0.711l-0.34,-0.717l-0.331,-0.721l-0.323,-0.725l-0.315,-0.731l-0.305,-0.735l-0.297,-0.739l-0.289,-0.744l-0.279,-0.748l-0.27,-0.752l-0.262,-0.757l-0.252,-0.76l-0.244,-0.765l-0.234,-0.769l-0.225,-0.773l-0.215,-0.777l-0.207,-0.78l-0.196,-0.784l-0.188,-0.788l-0.177,-0.792l-0.168,-0.795l-0.159,-0.799l-0.149,-0.802l-0.138,-0.806l-0.129,-0.809l-0.119,-0.812l-0.109,-0.815l-0.099,-0.819l-0.089,-0.821l-0.079,-0.825l-0.068,-0.827l-0.058,-0.831l-0.048,-0.833l-0.037,-0.836l-0.026,-0.838l-0.016,-0.842l-0.006,-0.843l0,-559.462l0.006,-0.844l0.016,-0.841l0.026,-0.839l0.037,-0.835l0.048,-0.834l0.058,-0.83l0.068,-0.827l0.079,-0.825l0.089,-0.822l0.099,-0.818l0.109,-0.815l0.119,-0.813l0.129,-0.808l0.138,-0.806l0.149,-0.802l0.159,-0.799l0.168,-0.795l0.177,-0.792l0.188,-0.788l0.196,-0.784l0.207,-0.781l0.215,-0.777l0.225,-0.772l0.234,-0.769l0.244,-0.765l0.252,-0.761l0.262,-0.756l0.27,-0.753l0.279,-0.748l0.289,-0.744l0.297,-0.739l0.305,-0.735l0.315,-0.73l0.323,-0.726l0.331,-0.721l0.34,-0.716l0.349,-0.711l0.356,-0.707l0.365,-0.702l0.373,-0.696l0.382,-0.692l0.389,-0.687l0.398,-0.681l0.405,-0.676l0.413,-0.671l0.422,-0.665l0.428,-0.66l0.437,-0.654l0.444,-0.649l0.452,-0.643l0.459,-0.638l0.467,-0.632l0.474,-0.626l0.481,-0.62l0.489,-0.614l0.496,-0.608l0.503,-0.602l0.51,-0.596l0.517,-0.589l0.524,-0.583l0.531,-0.577l0.537,-0.571l0.544,-0.564l0.551,-0.558l0.558,-0.551l0.564,-0.544l0.571,-0.537l0.576,-0.531l0.584,-0.524l0.589,-0.517l0.596,-0.51l0.602,-0.503l0.608,-0.496l0.614,-0.488l0.62,-0.482l0.626,-0.474l0.632,-0.467l0.637,-0.459l0.644,-0.452l0.649,-0.444l0.654,-0.437l0.66,-0.428l0.665,-0.422l0.671,-0.413l0.676,-0.405l0.681,-0.398l0.687,-0.389l0.692,-0.381l0.696,-0.374l0.702,-0.365l0.707,-0.356l0.711,-0.349l0.716,-0.34l0.721,-0.331l0.726,-0.323l0.73,-0.315l0.735,-0.305l0.739,-0.297l0.744,-0.289l0.748,-0.279l0.753,-0.27l0.756,-0.262l0.761,-0.252l0.765,-0.244l0.769,-0.234l0.772,-0.225l0.777,-0.215l0.781,-0.206l0.784,-0.197l0.788,-0.188l0.792,-0.177l0.795,-0.168l0.799,-0.159l0.802,-0.148l0.805,-0.139l0.809,-0.129l0.813,-0.119l0.815,-0.109l0.818,-0.099l0.822,-0.089l0.825,-0.079l0.827,-0.068l0.83,-0.058l0.834,-0.047l0.835,-0.038l0.839,-0.026l0.841,-0.016l0.844,-0.006l304.843,0l0.844,0.006Zm-305.607,24.994l-0.607,0.004l-0.524,0.01l-0.522,0.017l-0.52,0.023l-0.516,0.029l-0.515,0.036l-0.513,0.043l-0.508,0.048l-0.508,0.055l-0.506,0.061l-0.503,0.067l-0.5,0.074l-0.498,0.079l-0.496,0.086l-0.494,0.091l-0.491,0.097l-0.488,0.104l-0.488,0.109l-0.484,0.115l-0.481,0.121l-0.48,0.127l-0.476,0.132l-0.475,0.138l-0.473,0.144l-0.469,0.149l-0.467,0.155l-0.465,0.161l-0.461,0.166l-0.46,0.171l-0.458,0.178l-0.454,0.182l-0.452,0.188l-0.45,0.194l-0.445,0.198l-0.445,0.205l-0.441,0.209l-0.437,0.214l-0.436,0.22l-0.431,0.225l-0.43,0.23l-0.428,0.236l-0.424,0.24l-0.419,0.245l-0.418,0.25l-0.414,0.255l-0.411,0.261l-0.409,0.266l-0.404,0.269l-0.401,0.274l-0.398,0.28l-0.395,0.284l-0.39,0.288l-0.387,0.294l-0.385,0.299l-0.38,0.302l-0.377,0.308l-0.374,0.312l-0.369,0.315l-0.365,0.321l-0.362,0.325l-0.357,0.328l-0.355,0.335l-0.35,0.337l-0.345,0.341l-0.342,0.347l-0.337,0.349l-0.333,0.354l-0.329,0.358l-0.325,0.36l-0.32,0.366l-0.317,0.37l-0.312,0.373l-0.307,0.377l-0.302,0.38l-0.298,0.384l-0.293,0.386l-0.29,0.392l-0.285,0.396l-0.278,0.397l-0.275,0.401l-0.27,0.405l-0.266,0.409l-0.26,0.41l-0.255,0.414l-0.249,0.417l-0.246,0.421l-0.241,0.424l-0.235,0.426l-0.23,0.43l-0.225,0.433l-0.219,0.434l-0.215,0.439l-0.21,0.441l-0.204,0.444l-0.198,0.446l-0.193,0.448l-0.189,0.454l-0.182,0.453l-0.177,0.457l-0.172,0.46l-0.166,0.462l-0.161,0.466l-0.155,0.467l-0.149,0.468l-0.144,0.474l-0.138,0.474l-0.132,0.476l-0.127,0.48l-0.121,0.482l-0.115,0.483l-0.109,0.486l-0.104,0.491l-0.097,0.492l-0.091,0.492l-0.086,0.494l-0.079,0.498l-0.074,0.503l-0.067,0.503l-0.061,0.505l-0.055,0.508l-0.048,0.509l-0.043,0.512l-0.036,0.515l-0.029,0.516l-0.023,0.521l-0.017,0.521l-0.01,0.523l-0.004,0.608l0,559.302l0.004,0.607l0.01,0.524l0.017,0.521l0.023,0.521l0.029,0.516l0.036,0.514l0.043,0.512l0.048,0.51l0.055,0.507l0.061,0.506l0.067,0.502l0.074,0.503l0.079,0.499l0.086,0.494l0.091,0.492l0.097,0.492l0.104,0.491l0.109,0.485l0.115,0.483l0.121,0.483l0.127,0.48l0.132,0.476l0.138,0.474l0.144,0.473l0.149,0.469l0.155,0.467l0.161,0.466l0.166,0.462l0.172,0.459l0.177,0.457l0.182,0.454l0.189,0.454l0.193,0.447l0.198,0.447l0.204,0.444l0.21,0.441l0.215,0.439l0.219,0.433l0.225,0.434l0.23,0.43l0.235,0.425l0.241,0.424l0.246,0.422l0.249,0.416l0.255,0.414l0.26,0.411l0.266,0.408l0.27,0.406l0.275,0.401l0.278,0.396l0.285,0.396l0.29,0.392l0.293,0.387l0.298,0.383l0.302,0.381l0.307,0.376l0.313,0.374l0.316,0.37l0.319,0.364l0.325,0.361l0.33,0.359l0.333,0.354l0.338,0.35l0.341,0.345l0.345,0.341l0.351,0.338l0.354,0.335l0.357,0.327l0.363,0.326l0.364,0.32l0.369,0.316l0.374,0.312l0.377,0.307l0.38,0.303l0.384,0.298l0.388,0.294l0.392,0.289l0.393,0.283l0.397,0.28l0.402,0.275l0.405,0.269l0.408,0.266l0.41,0.259l0.415,0.256l0.419,0.251l0.418,0.244l0.425,0.241l0.428,0.236l0.429,0.23l0.43,0.224l0.436,0.22l0.438,0.215l0.441,0.209l0.445,0.204l0.446,0.199l0.449,0.193l0.452,0.188l0.455,0.183l0.455,0.176l0.461,0.172l0.463,0.167l0.465,0.161l0.466,0.154l0.469,0.15l0.472,0.143l0.476,0.139l0.477,0.132l0.479,0.127l0.48,0.12l0.485,0.115l0.488,0.11l0.487,0.103l0.492,0.097l0.494,0.092l0.496,0.085l0.498,0.08l0.501,0.073l0.503,0.068l0.503,0.06l0.508,0.055l0.511,0.049l0.512,0.042l0.514,0.036l0.519,0.03l0.519,0.023l0.521,0.016l0.525,0.01l0.606,0.004l304.683,0l0.605,-0.004l0.526,-0.01l0.521,-0.016l0.519,-0.023l0.518,-0.03l0.515,-0.036l0.512,-0.042l0.511,-0.049l0.508,-0.055l0.503,-0.06l0.503,-0.068l0.501,-0.073l0.498,-0.08l0.496,-0.085l0.494,-0.092l0.492,-0.097l0.487,-0.103l0.488,-0.11l0.485,-0.115l0.48,-0.12l0.478,-0.127l0.478,-0.132l0.476,-0.139l0.471,-0.143l0.469,-0.149l0.468,-0.156l0.463,-0.16l0.463,-0.166l0.462,-0.173l0.455,-0.176l0.455,-0.183l0.452,-0.188l0.449,-0.193l0.446,-0.199l0.444,-0.204l0.442,-0.209l0.438,-0.215l0.435,-0.22l0.432,-0.225l0.428,-0.229l0.427,-0.235l0.425,-0.241l0.42,-0.245l0.418,-0.251l0.415,-0.256l0.41,-0.259l0.407,-0.265l0.405,-0.27l0.402,-0.275l0.398,-0.28l0.393,-0.283l0.392,-0.29l0.389,-0.294l0.383,-0.297l0.38,-0.303l0.377,-0.307l0.374,-0.312l0.369,-0.316l0.364,-0.32l0.363,-0.326l0.357,-0.327l0.353,-0.334l0.352,-0.339l0.345,-0.341l0.34,-0.344l0.34,-0.352l0.332,-0.353l0.329,-0.357l0.327,-0.364l0.319,-0.364l0.315,-0.369l0.311,-0.372l0.309,-0.378l0.302,-0.381l0.298,-0.383l0.294,-0.388l0.289,-0.391l0.284,-0.394l0.279,-0.398l0.276,-0.403l0.269,-0.404l0.265,-0.407l0.261,-0.412l0.255,-0.414l0.249,-0.416l0.246,-0.422l0.241,-0.424l0.236,-0.427l0.229,-0.428l0.224,-0.432l0.22,-0.435l0.215,-0.439l0.21,-0.441l0.204,-0.444l0.198,-0.447l0.194,-0.449l0.188,-0.452l0.182,-0.454l0.177,-0.457l0.172,-0.459l0.166,-0.462l0.161,-0.466l0.155,-0.467l0.149,-0.469l0.144,-0.471l0.138,-0.476l0.133,-0.478l0.126,-0.478l0.121,-0.481l0.115,-0.485l0.109,-0.487l0.103,-0.487l0.098,-0.492l0.091,-0.494l0.086,-0.496l0.079,-0.499l0.074,-0.501l0.067,-0.502l0.061,-0.506l0.055,-0.507l0.048,-0.508l0.043,-0.514l0.036,-0.516l0.029,-0.514l0.023,-0.519l0.017,-0.523l0.01,-0.526l0.004,-0.605l0,-559.302l-0.004,-0.606l-0.01,-0.525l-0.017,-0.523l-0.023,-0.519l-0.029,-0.514l-0.036,-0.517l-0.043,-0.514l-0.048,-0.507l-0.055,-0.508l-0.061,-0.505l-0.067,-0.503l-0.074,-0.501l-0.079,-0.498l-0.086,-0.496l-0.091,-0.494l-0.098,-0.492l-0.103,-0.487l-0.109,-0.488l-0.115,-0.484l-0.121,-0.481l-0.126,-0.478l-0.133,-0.478l-0.138,-0.476l-0.144,-0.472l-0.149,-0.468l-0.155,-0.467l-0.161,-0.466l-0.166,-0.462l-0.172,-0.46l-0.177,-0.457l-0.182,-0.453l-0.188,-0.453l-0.194,-0.449l-0.198,-0.446l-0.205,-0.444l-0.209,-0.441l-0.215,-0.439l-0.22,-0.436l-0.224,-0.431l-0.229,-0.428l-0.236,-0.428l-0.241,-0.424l-0.246,-0.421l-0.249,-0.417l-0.255,-0.414l-0.261,-0.411l-0.265,-0.408l-0.269,-0.404l-0.276,-0.402l-0.279,-0.398l-0.284,-0.395l-0.289,-0.391l-0.294,-0.387l-0.298,-0.384l-0.302,-0.38l-0.309,-0.378l-0.31,-0.372l-0.316,-0.368l-0.32,-0.366l-0.327,-0.364l-0.328,-0.356l-0.332,-0.353l-0.339,-0.352l-0.341,-0.345l-0.345,-0.341l-0.351,-0.338l-0.354,-0.334l-0.357,-0.328l-0.362,-0.325l-0.365,-0.321l-0.369,-0.315l-0.374,-0.312l-0.377,-0.308l-0.38,-0.302l-0.384,-0.298l-0.388,-0.294l-0.39,-0.289l-0.395,-0.284l-0.398,-0.28l-0.402,-0.275l-0.404,-0.269l-0.408,-0.265l-0.411,-0.261l-0.414,-0.254l-0.417,-0.251l-0.421,-0.245l-0.424,-0.241l-0.427,-0.235l-0.429,-0.23l-0.432,-0.225l-0.436,-0.22l-0.437,-0.214l-0.442,-0.21l-0.444,-0.204l-0.445,-0.198l-0.45,-0.194l-0.452,-0.188l-0.454,-0.182l-0.457,-0.177l-0.461,-0.172l-0.461,-0.166l-0.464,-0.16l-0.469,-0.156l-0.469,-0.149l-0.472,-0.144l-0.475,-0.138l-0.477,-0.132l-0.479,-0.127l-0.481,-0.121l-0.484,-0.115l-0.488,-0.109l-0.488,-0.104l-0.491,-0.097l-0.494,-0.091l-0.496,-0.086l-0.498,-0.079l-0.5,-0.074l-0.503,-0.067l-0.506,-0.061l-0.508,-0.055l-0.508,-0.048l-0.513,-0.043l-0.516,-0.036l-0.515,-0.029l-0.52,-0.023l-0.522,-0.017l-0.525,-0.01l-0.606,-0.004l-304.683,0Z" style="fill:#fff;"/><path d="M1808.63,1428.47l-329.381,0l0,-511.639l329.381,0l0,511.639Zm-316.881,-499.139l0,486.639l304.381,0l0,-486.639l-304.381,0Z" style="fill:#fff;"/><path d="M1808.63,1418.52l0,67.186l-329.381,0l0,-67.186l329.381,0Zm-164.691,9.948c13.051,0 23.646,10.595 23.646,23.645c0,13.05 -10.595,23.645 -23.646,23.645c-13.05,0 -23.645,-10.595 -23.645,-23.645c0,-13.05 10.595,-23.645 23.645,-23.645Z" style="fill:#fff;"/></g></g></g></g></svg>