<?xml version="1.0" encoding="UTF-8" standalone="no"?><!DOCTYPE svg PUBLIC "-//W3C//DTD SVG 1.1//EN" "http://www.w3.org/Graphics/SVG/1.1/DTD/svg11.dtd"><svg width="100%" height="100%" viewBox="0 0 2084 2084" version="1.1" xmlns="http://www.w3.org/2000/svg" xmlns:xlink="http://www.w3.org/1999/xlink" xml:space="preserve" xmlns:serif="http://www.serif.com/" style="fill-rule:evenodd;clip-rule:evenodd;stroke-linejoin:round;stroke-miterlimit:1.41421;"><g id="Layer2"><path d="M1113.31,1340.51l-1.266,-88.64l0,-53.185c0,-62.47 -4.643,-100.037 -13.929,-112.7c-10.131,-14.351 -23.638,-21.527 -40.522,-21.527c-28.702,0 -57.827,6.331 -87.374,18.994l-13.929,6.332l-12.663,-45.587c68.38,-36.3 124.519,-64.159 168.417,-83.575l0,-212.738c0,-69.224 -18.15,-103.836 -54.451,-103.836c-14.351,0 -26.803,5.91 -37.355,17.728c-10.553,11.819 -15.829,26.17 -15.829,43.054l0,69.646c0,10.975 -3.588,20.05 -10.763,27.226c-7.176,7.175 -23.427,15.406 -48.753,24.693l-115.233,44.32l-17.728,-17.728c21.949,-22.794 32.924,-50.652 32.924,-83.576l0,-96.238c0,-5.909 48.33,-28.07 144.991,-66.481c96.66,-38.41 152.166,-57.616 166.517,-57.616c14.352,0 36.09,17.306 65.215,51.918c29.124,34.612 43.687,65.847 43.687,93.706l0,245.661c0,12.663 -22.371,30.391 -67.114,53.184c43.898,50.652 65.847,103.837 65.847,159.554l0,253.259c0,18.572 -50.651,44.531 -151.955,77.877c-101.304,33.345 -166.307,50.018 -195.009,50.018c-10.131,0 -17.939,-8.864 -23.427,-26.592c-5.487,-17.728 -10.552,-39.044 -15.195,-63.948c-4.643,-24.904 -9.075,-40.732 -13.296,-47.486c-7.598,-12.663 -25.326,-20.683 -53.185,-24.059l0,-24.06c100.46,-49.808 161.242,-74.711 182.347,-74.711c4.221,0 6.753,4.432 7.597,13.296c0.845,8.864 1.267,27.225 1.267,55.083c0,27.859 5.487,52.13 16.462,72.812c10.974,20.683 25.325,31.025 43.054,31.025c33.767,0 50.651,-26.17 50.651,-78.511l0,-26.592Z" style="fill-rule:nonzero;"/></g></svg>