<?xml version="1.0" encoding="UTF-8" standalone="no"?><!DOCTYPE svg PUBLIC "-//W3C//DTD SVG 1.1//EN" "http://www.w3.org/Graphics/SVG/1.1/DTD/svg11.dtd"><svg width="100%" height="100%" viewBox="0 0 2084 2084" version="1.1" xmlns="http://www.w3.org/2000/svg" xmlns:xlink="http://www.w3.org/1999/xlink" xml:space="preserve" xmlns:serif="http://www.serif.com/" style="fill-rule:evenodd;clip-rule:evenodd;stroke-linejoin:round;stroke-miterlimit:1.41421;"><g id="Layer3"><path d="M1099.38,1360.77l0,-189.944l-260.857,0c-3.376,0 -9.075,-7.598 -17.095,-22.794c-8.019,-15.195 -12.029,-27.225 -12.029,-36.089c0,-8.864 21.949,-59.516 65.847,-151.955c43.898,-92.44 91.384,-184.246 142.458,-275.419c51.074,-91.174 84.209,-136.76 99.404,-136.76c56.561,14.351 97.083,33.768 121.565,58.249c9.286,9.286 13.929,18.573 13.929,27.859l0,462.197l50.652,0l0,43.054l-50.652,31.658l0,140.558c0,22.794 3.799,39.045 11.396,48.753c7.598,9.708 20.683,14.562 39.256,14.562l0,35.456c-171.372,75.134 -257.48,112.701 -258.325,112.701l-20.26,-40.522c5.909,0 13.929,-2.954 24.059,-8.864c10.131,-5.909 18.573,-12.663 25.326,-20.261c16.884,-21.104 25.326,-51.918 25.326,-92.439Zm1.266,-264.656l0,-339.367l-170.949,341.9c113.122,-0.844 170.105,-1.688 170.949,-2.533Z" style="fill-rule:nonzero;"/></g></svg>