<?xml version="1.0" encoding="UTF-8" standalone="no"?><!DOCTYPE svg PUBLIC "-//W3C//DTD SVG 1.1//EN" "http://www.w3.org/Graphics/SVG/1.1/DTD/svg11.dtd"><svg width="100%" height="100%" viewBox="0 0 2084 2084" version="1.1" xmlns="http://www.w3.org/2000/svg" xmlns:xlink="http://www.w3.org/1999/xlink" xml:space="preserve" xmlns:serif="http://www.serif.com/" style="fill-rule:evenodd;clip-rule:evenodd;stroke-linejoin:round;stroke-miterlimit:1.41421;"><g id="Layer1"><path d="M1385.13,991.172c0,-91.499 0,-180.985 44.632,-226.799c-61.143,-57.164 -94.682,-24.48 -127.295,-55.21c-54.567,-51.478 -82.676,-68.598 -142.087,-62.957c-60.418,5.839 -111.849,-83.94 -118.379,-95.817l0,-1.311l-0.374,0.69l-0.375,-0.69l0,1.311c-6.459,11.877 -57.949,101.656 -118.238,95.817c-59.423,-5.641 -87.59,11.479 -142.157,62.957c-32.673,30.73 -66.152,-1.954 -127.296,55.21c44.691,45.814 44.691,135.3 44.691,226.799c0,91.464 -4.915,217.18 -4.915,217.18c0,0 -13.329,165.842 137.09,209.655c148.441,43.227 208.847,84.629 210.521,114.996l0,1.252l0.07,-0.667l0.117,0.667l0,-1.252c1.592,-30.297 63.379,-71.769 211.761,-114.996c150.431,-43.813 137.173,-209.655 137.173,-209.655c0,0 -4.939,-125.716 -4.939,-217.18Zm-603.452,253.222l0,-392.571c0,-30.82 -7.395,-48.25 -22.184,-52.292l0,-16.673l54.648,-43.198c7.214,4.042 14.428,11.368 21.643,21.978c7.214,10.61 10.821,20.209 10.821,28.798c39.678,-33.851 62.403,-50.776 68.175,-50.776c5.771,0 14.879,10.357 27.324,31.072c12.444,20.715 18.667,39.409 18.667,56.082l0,212.958c0,4.042 -19.659,16.926 -58.977,38.651c16.593,78.312 36.071,131.109 58.436,158.392c10.1,11.621 20.38,17.431 30.841,17.431l0,22.736c-33.547,29.809 -54.829,44.714 -63.847,44.714c-11.903,0 -26.963,-31.325 -45.179,-93.975c-18.216,-62.65 -28.045,-104.079 -29.488,-124.289l-5.952,2.274l0,99.279c0,18.694 1.443,32.083 4.329,40.167c2.885,8.084 8.837,12.126 17.855,12.126l0,23.493l-110.92,65.176l-8.657,-24.251c7.936,0 15.511,-6.569 22.725,-19.705c6.493,-12.631 9.74,-31.83 9.74,-57.597Zm233.742,0l0,-382.719c0,-16.673 -2.525,-31.072 -7.575,-43.198c-5.05,-12.125 -11.363,-18.188 -18.938,-18.188l0,-16.673c2.525,-0.506 22.184,-15.915 58.977,-46.23c2.525,1.011 5.591,2.4 9.198,4.169c3.607,1.768 8.387,6.694 14.339,14.778c5.951,8.084 8.927,17.431 8.927,28.041c2.164,-1.516 8.297,-6.316 18.397,-14.4c26.692,-21.22 43.195,-31.83 49.507,-31.83c6.313,0 13.347,4.547 21.102,13.642c7.756,9.094 13.617,19.957 17.585,32.588c0.721,-0.506 8.116,-5.811 22.184,-15.915c28.135,-20.21 45.089,-30.315 50.86,-30.315c11.543,0 22.365,10.61 32.465,31.83c10.1,21.22 15.15,40.672 15.15,58.355l0,381.203c0,27.789 8.837,44.209 26.512,49.261l0,16.673l-58.977,46.23c-7.935,-4.548 -15.33,-12 -22.184,-22.357c-6.853,-10.358 -10.28,-20.084 -10.28,-29.178l0,-371.351c0,-30.314 -3.517,-51.408 -10.551,-63.281c-7.034,-11.873 -19.749,-18.315 -38.145,-19.325l0,393.328c0,27.789 8.837,44.209 26.512,49.261l0,16.673l-58.976,46.23c-7.936,-4.548 -15.331,-12 -22.184,-22.357c-6.854,-10.358 -10.281,-20.084 -10.281,-29.178l0,-371.351c0,-31.83 -3.336,-53.555 -10.009,-65.176c-6.674,-11.62 -19.569,-17.43 -38.687,-17.43l0,388.781c0,18.694 1.443,32.083 4.329,40.167c2.885,8.084 8.837,12.126 17.855,12.126l0,23.493l-110.919,65.176l-8.657,-24.251c7.935,0 15.51,-6.569 22.725,-19.705c6.492,-12.631 9.739,-31.83 9.739,-57.597Zm-147.712,-431.98c-6.493,0 -13.527,3.79 -21.102,11.368l0,246.304c9.379,0 19.839,-4.168 31.382,-12.504c11.543,-8.337 17.314,-17.052 17.314,-26.146l0,-162.94c0,-37.388 -9.198,-56.082 -27.594,-56.082Z" style="fill:#fff;fill-rule:nonzero;"/></g></svg>