<?xml version="1.0" encoding="UTF-8" standalone="no"?><!DOCTYPE svg PUBLIC "-//W3C//DTD SVG 1.1//EN" "http://www.w3.org/Graphics/SVG/1.1/DTD/svg11.dtd"><svg width="100%" height="100%" viewBox="0 0 500 500" version="1.1" xmlns="http://www.w3.org/2000/svg" xmlns:xlink="http://www.w3.org/1999/xlink" xml:space="preserve" xmlns:serif="http://www.serif.com/" style="fill-rule:evenodd;clip-rule:evenodd;stroke-linejoin:round;stroke-miterlimit:1.41421;"><g id="Layer1"><path d="M424.318,224.373c0,-46.438 0,-91.854 22.652,-115.106c-31.032,-29.012 -48.053,-12.424 -64.606,-28.02c-27.694,-26.126 -41.959,-34.815 -72.112,-31.953c-30.663,2.964 -56.766,-42.601 -60.08,-48.629l0,-0.665l-0.19,0.35l-0.19,-0.35l0,0.665c-3.278,6.028 -29.41,51.593 -60.008,48.629c-30.159,-2.862 -44.454,5.827 -72.148,31.953c-16.582,15.596 -33.574,-0.992 -64.606,28.02c22.682,23.252 22.682,68.668 22.682,115.106c0,46.42 -2.495,110.223 -2.495,110.223c0,0 -6.765,84.169 69.577,106.405c75.337,21.939 105.994,42.952 106.844,58.364l0,0.635l0.035,-0.339l0.06,0.339l0,-0.635c0.807,-15.377 32.166,-36.425 107.473,-58.364c76.347,-22.236 69.618,-106.405 69.618,-106.405c0,0 -2.506,-63.803 -2.506,-110.223Zm-306.266,128.516l0,-199.239c0,-15.642 -3.753,-24.488 -11.259,-26.54l0,-8.461l27.735,-21.924c3.662,2.051 7.323,5.769 10.985,11.154c3.661,5.385 5.492,10.257 5.492,14.616c20.137,-17.18 31.671,-25.77 34.6,-25.77c2.929,0 7.552,5.256 13.868,15.77c6.316,10.513 9.473,20 9.473,28.462l0,108.081c0,2.052 -9.977,8.591 -29.931,19.617c8.421,39.745 18.307,66.541 29.657,80.387c5.126,5.898 10.343,8.847 15.652,8.847l0,11.539c-17.025,15.129 -27.826,22.693 -32.403,22.693c-6.041,0 -13.685,-15.898 -22.93,-47.694c-9.245,-31.796 -14.233,-52.823 -14.966,-63.08l-3.02,1.154l0,50.387c0,9.487 0.732,16.283 2.197,20.385c1.464,4.103 4.485,6.154 9.062,6.154l0,11.924l-56.295,33.078l-4.393,-12.308c4.027,0 7.872,-3.333 11.533,-10c3.295,-6.411 4.943,-16.155 4.943,-29.232Zm118.63,0l0,-194.239c0,-8.462 -1.282,-15.77 -3.845,-21.924c-2.563,-6.154 -5.767,-9.231 -9.611,-9.231l0,-8.462c1.281,-0.256 11.259,-8.077 29.932,-23.462c1.281,0.513 2.838,1.218 4.668,2.115c1.831,0.898 4.257,3.398 7.277,7.501c3.021,4.102 4.531,8.846 4.531,14.231c1.099,-0.769 4.211,-3.205 9.337,-7.308c13.547,-10.77 21.923,-16.155 25.126,-16.155c3.204,0 6.774,2.308 10.71,6.924c3.936,4.615 6.911,10.128 8.925,16.539c0.366,-0.257 4.119,-2.949 11.258,-8.077c14.28,-10.257 22.884,-15.386 25.813,-15.386c5.859,0 11.351,5.385 16.477,16.155c5.126,10.77 7.689,20.642 7.689,29.616l0,193.47c0,14.103 4.485,22.436 13.455,25.001l0,8.462l-29.932,23.462c-4.027,-2.308 -7.78,-6.09 -11.259,-11.347c-3.478,-5.256 -5.217,-10.192 -5.217,-14.808l0,-188.469c0,-15.385 -1.785,-26.091 -5.355,-32.117c-3.57,-6.025 -10.023,-9.295 -19.36,-9.808l0,199.624c0,14.103 4.486,22.436 13.456,25.001l0,8.462l-29.932,23.462c-4.027,-2.308 -7.78,-6.09 -11.259,-11.347c-3.478,-5.256 -5.217,-10.192 -5.217,-14.808l0,-188.469c0,-16.154 -1.694,-27.18 -5.08,-33.078c-3.387,-5.898 -9.932,-8.847 -19.635,-8.847l0,197.316c0,9.487 0.733,16.283 2.197,20.385c1.465,4.103 4.485,6.154 9.062,6.154l0,11.924l-56.294,33.078l-4.394,-12.308c4.028,0 7.872,-3.333 11.534,-10c3.295,-6.411 4.943,-16.155 4.943,-29.232Zm-74.968,-219.24c-3.295,0 -6.865,1.923 -10.709,5.77l0,125.005c4.76,0 10.069,-2.116 15.927,-6.347c5.858,-4.231 8.787,-8.654 8.787,-13.27l0,-82.695c0,-18.975 -4.668,-28.463 -14.005,-28.463Z" style="fill-rule:nonzero;"/></g></svg>